<svg xmlns="http://www.w3.org/2000/svg" xmlns:xlink="http://www.w3.org/1999/xlink" width="78.177" height="61.368" viewBox="0 0 78.177 61.368">
  <defs>
    <clipPath id="clip-path">
      <rect id="Rectangle_941" data-name="Rectangle 941" width="78.177" height="61.368" fill="rgba(0,0,0,0)"/>
    </clipPath>
    <linearGradient id="linear-gradient" x1="0.5" x2="0.5" y2="1" gradientUnits="objectBoundingBox">
      <stop offset="0" stop-color="#4159f0"/>
      <stop offset="1" stop-color="#0827d5"/>
    </linearGradient>
  </defs>
  <g id="Group_403" data-name="Group 403" clip-path="url(#clip-path)">
    <path id="Path_461" data-name="Path 461" d="M62.41,61.368V53.782H0V43.79H11.146c-.153-.273-.233-.452-.344-.608a23.853,23.853,0,0,1-3.735-7.927,1,1,0,0,0-.86-.834q-1.634-.369-3.246-.834c-.206-.06-.5-.332-.5-.508-.031-2.991-.022-5.983-.022-9.04,1.255-.316,2.482-.641,3.718-.927a1.17,1.17,0,0,0,.924-.869c.766-2.009,1.607-3.99,2.475-5.958a1.035,1.035,0,0,0,0-1.129c-.692-1.1-1.337-2.223-2.036-3.4,1.011-1.008,2-2,2.995-2.987,1.032-1.03,2.1-2.03,3.078-3.106a.882.882,0,0,1,1.366-.144,31.156,31.156,0,0,0,2.681,1.593,1.174,1.174,0,0,0,.96.033A24.867,24.867,0,0,1,24.777,4.61a.879.879,0,0,0,.722-.774c.261-1.113.531-2.226.856-3.321a.83.83,0,0,1,.6-.484C29.767,0,32.578.018,35.39,0c.438,0,.57.177.659.567.256,1.114.525,2.228.86,3.32a1.286,1.286,0,0,0,.673.677c2.022.874,4.072,1.682,6.086,2.573A1.033,1.033,0,0,0,44.8,7.11c.966-.612,1.949-1.2,2.955-1.746a.828.828,0,0,1,.764.095q3.015,2.949,5.963,5.965a.829.829,0,0,1,.094.766c-.559,1.027-1.209,2-1.762,3.035a1.287,1.287,0,0,0-.017.964q1.243,3.1,2.575,6.169a1.283,1.283,0,0,0,.686.663c1.091.336,2.2.607,3.318.866.389.09.567.226.564.663-.018,2.811,0,5.623-.031,8.434a.834.834,0,0,1-.488.6c-1.144.345-2.311.61-3.461.938a.85.85,0,0,0-.543.434A25.941,25.941,0,0,1,51.21,43.7H62.419V36.148l15.757,12.6L62.41,61.368m2.571-10.116v4.861l9.194-7.365L64.9,41.337v4.916h-.678q-16.519,0-33.037-.009a16.21,16.21,0,0,1-2.72-.209,17.48,17.48,0,1,1,6.4-34.355c7.524,1.8,12.231,6.626,13.52,14.244,1.235,7.3-1.576,13.133-7.594,17.421l-.572.408c2.5,0,4.786-.017,7.069.014a1.286,1.286,0,0,0,1.113-.543,22.263,22.263,0,0,0,4.791-9.861,1.088,1.088,0,0,1,.961-1c1.088-.229,2.159-.539,3.235-.815V25.965c-1.145-.289-2.25-.585-3.364-.839a.882.882,0,0,1-.8-.782,21.4,21.4,0,0,0-3.318-8.014.916.916,0,0,1,0-1.179c.625-.978,1.195-1.991,1.712-2.865L47.636,8.321c-.925.551-1.941,1.129-2.926,1.755a.816.816,0,0,1-1.044-.014A21.755,21.755,0,0,0,35.585,6.7a.89.89,0,0,1-.784-.8c-.259-1.131-.56-2.253-.841-3.368H28.4c-.283,1.128-.581,2.23-.829,3.343a.931.931,0,0,1-.837.84,21.1,21.1,0,0,0-7.94,3.29.975.975,0,0,1-1.247-.005c-.964-.608-1.954-1.174-2.875-1.722l-3.95,3.964c.56.946,1.132,1.964,1.76,2.946a.868.868,0,0,1-.012,1.11,21.412,21.412,0,0,0-3.324,8.012.933.933,0,0,1-.848.83c-1.111.25-2.212.547-3.332.829v5.556c1.127.289,2.247.6,3.381.855.511.113.674.392.815.864a30.5,30.5,0,0,0,1.64,4.941C15.01,46.6,21.872,51.086,31.287,51.217c10.88.151,21.764.035,32.646.035h1.047M31.206,13.758A15,15,0,1,0,46.179,28.779,15.02,15.02,0,0,0,31.206,13.758M20.035,51.215a30.553,30.553,0,0,1-6.375-4.68,1.305,1.305,0,0,0-.836-.27c-3.254-.018-6.509-.013-9.763-.009-.2,0-.395.035-.586.054v4.906Z" transform="translate(0 0)" fill="url(#linear-gradient)"/>
    <path id="Path_462" data-name="Path 462" d="M25.878,160.412H8.318v-4.906c.191-.018.389-.054.586-.054,3.254,0,6.509-.009,9.763.009a1.305,1.305,0,0,1,.836.27,30.554,30.554,0,0,0,6.375,4.68" transform="translate(-5.843 -109.197)" fill="#fff"/>
    <path id="Path_463" data-name="Path 463" d="M101.193,74.271c-.989-1-2.06-2.054-3.1-3.139a.966.966,0,0,0-1.136-.32,3.706,3.706,0,0,1-2.836-6.8A.966.966,0,0,0,94.713,63c-.024-2.472-.011-4.945-.011-7.417v-.8h2.5v.808c0,2.5.009,5-.008,7.5a.851.851,0,0,0,.528.894,3.571,3.571,0,0,1,1.8,4.3.9.9,0,0,0,.3,1.069c1.088,1.041,2.15,2.11,3.255,3.2l-1.882,1.725m-4-7.022a1.243,1.243,0,1,0-1.256,1.232,1.257,1.257,0,0,0,1.256-1.232" transform="translate(-64.77 -38.481)" fill="url(#linear-gradient)"/>
    <path id="Path_464" data-name="Path 464" d="M63.209,101.652l-.492-2.708,2.487-.19c.132.741.254,1.419.393,2.2l-2.389.7" transform="translate(-44.056 -69.37)" fill="url(#linear-gradient)"/>
    <path id="Path_465" data-name="Path 465" d="M65.676,84.035l-2.453-.383.7-2.678,2.334.921-.586,2.14" transform="translate(-44.412 -56.88)" fill="url(#linear-gradient)"/>
    <path id="Path_466" data-name="Path 466" d="M67.963,114.293l2.169-1.217,1.311,1.8-1.858,1.67-1.622-2.251" transform="translate(-47.741 -79.432)" fill="url(#linear-gradient)"/>
    <path id="Path_467" data-name="Path 467" d="M103.107,93.72a1.243,1.243,0,1,1-1.231-1.256,1.259,1.259,0,0,1,1.231,1.256" transform="translate(-70.682 -64.952)" fill="#fff"/>
  </g>
</svg>
