<svg xmlns="http://www.w3.org/2000/svg" xmlns:xlink="http://www.w3.org/1999/xlink" width="39" height="40" viewBox="0 0 39 40">
  <defs>
    <linearGradient id="linear-gradient" x1="0.5" x2="0.5" y2="1" gradientUnits="objectBoundingBox">
      <stop offset="0" stop-color="#4159f0"/>
      <stop offset="1" stop-color="#0827d5"/>
    </linearGradient>
    <clipPath id="clip-path">
      <rect id="Rectangle_2318" data-name="Rectangle 2318" width="39" height="40" transform="translate(0 -0.072)" fill="url(#linear-gradient)"/>
    </clipPath>
  </defs>
  <g id="Group_1789" data-name="Group 1789" transform="translate(1.662 2.734)">
    <g id="Group_1788" data-name="Group 1788" transform="translate(-1.662 -2.662)" clip-path="url(#clip-path)">
      <path id="Path_1871" data-name="Path 1871" d="M0,31.594V7.013a.507.507,0,0,0,.051-.125A3.738,3.738,0,0,1,3.924,3.734c1.053.029,2.108,0,3.162,0h.391c0-.747.028-1.449-.008-2.147A1.422,1.422,0,0,1,8.443,0h.545a1.4,1.4,0,0,1,.973,1.56c-.033.577-.006,1.157-.006,1.736v.422H24.907c0-.733.027-1.447-.007-2.157A1.407,1.407,0,0,1,25.874,0h.545a1.4,1.4,0,0,1,.972,1.557c-.031.508-.006,1.02-.006,1.53v.652h.425c1.133,0,2.267-.011,3.4.006A3.716,3.716,0,0,1,34.7,6.392c.061.2.107.414.159.621v24.58a1.4,1.4,0,0,0-.063.189,3.476,3.476,0,0,1-1.619,2.441,9.921,9.921,0,0,1-1.586.638H3.268A1.4,1.4,0,0,0,3.08,34.8,3.483,3.483,0,0,1,.621,33.152,9.994,9.994,0,0,1,0,31.594M32.369,14.96H2.493v.423q0,7.728,0,15.456a3.845,3.845,0,0,0,.021.476,1.205,1.205,0,0,0,1.027,1.031,4.391,4.391,0,0,0,.544.022h26.69a4.373,4.373,0,0,0,.544-.022,1.205,1.205,0,0,0,1.028-1.03,3.512,3.512,0,0,0,.021-.441q0-7.762,0-15.524v-.39M27.385,6.223c0,.184,0,.308,0,.432,0,.7.011,1.407-.009,2.111a1.231,1.231,0,0,1-2.46-.014c-.018-.826,0-1.652,0-2.5H9.954c0,.144,0,.266,0,.388,0,.692.009,1.385-.005,2.077A1.234,1.234,0,1,1,7.481,8.7c-.012-.465,0-.93,0-1.4,0-.348,0-.7,0-1.06-.141-.01-.241-.022-.34-.022-1.067,0-2.133,0-3.2,0A1.276,1.276,0,0,0,2.494,7.67q0,2.213,0,4.426c0,.109.013.219.02.333H32.348c.008-.092.02-.159.02-.226,0-1.543.008-3.087,0-4.63A1.242,1.242,0,0,0,31,6.225c-.828-.011-1.657,0-2.485,0H27.385" transform="translate(1.605 2.533)" fill="url(#linear-gradient)"/>
      <path id="Path_1872" data-name="Path 1872" d="M71.121,246.795c.4,0,.793-.008,1.189,0a1.247,1.247,0,0,1,1.288,1.219,1.229,1.229,0,0,1-1.233,1.269c-.826.028-1.654.026-2.48,0a1.236,1.236,0,0,1-1.255-1.25,1.252,1.252,0,0,1,1.3-1.24c.4-.008.793,0,1.189,0" transform="translate(-60.794 -221.853)" fill="url(#linear-gradient)"/>
      <path id="Path_1873" data-name="Path 1873" d="M167.1,246.795c.4,0,.793-.007,1.189,0a1.252,1.252,0,0,1,1.3,1.243,1.238,1.238,0,0,1-1.259,1.247q-1.222.035-2.446,0a1.246,1.246,0,1,1,.028-2.491c.4-.009.793,0,1.189,0" transform="translate(-148.072 -221.853)" fill="url(#linear-gradient)"/>
      <path id="Path_1874" data-name="Path 1874" d="M263.1,246.795c.4,0,.793-.007,1.189,0a1.252,1.252,0,0,1,1.3,1.243,1.238,1.238,0,0,1-1.259,1.247q-1.222.035-2.446,0a1.246,1.246,0,1,1,.028-2.491c.4-.009.793,0,1.189,0" transform="translate(-235.355 -221.853)" fill="url(#linear-gradient)"/>
      <path id="Path_1875" data-name="Path 1875" d="M71.135,304.029c-.408,0-.816.009-1.223,0a1.247,1.247,0,0,1-1.276-1.231,1.223,1.223,0,0,1,1.212-1.254c.848-.032,1.7-.032,2.548,0A1.22,1.22,0,0,1,73.6,302.8a1.247,1.247,0,0,1-1.28,1.227c-.4.01-.793,0-1.189,0" transform="translate(-60.799 -271.611)" fill="url(#linear-gradient)"/>
      <path id="Path_1876" data-name="Path 1876" d="M167.113,304.044c-.4,0-.793.007-1.189,0a1.252,1.252,0,0,1-1.3-1.244,1.238,1.238,0,0,1,1.26-1.247q1.222-.035,2.446,0a1.246,1.246,0,1,1-.029,2.491c-.4.009-.793,0-1.189,0" transform="translate(-148.075 -271.626)" fill="url(#linear-gradient)"/>
      <path id="Path_1877" data-name="Path 1877" d="M263.131,304.029c-.408,0-.816.009-1.223,0a1.246,1.246,0,0,1-1.274-1.233,1.224,1.224,0,0,1,1.215-1.252c.848-.031,1.7-.032,2.548,0A1.22,1.22,0,0,1,265.6,302.8a1.247,1.247,0,0,1-1.282,1.225c-.4.01-.793,0-1.189,0" transform="translate(-235.367 -271.611)" fill="url(#linear-gradient)"/>
      <path id="Path_1878" data-name="Path 1878" d="M71.161,191.979c.4,0,.793-.007,1.189,0a1.24,1.24,0,0,1,1.271,1.2,1.2,1.2,0,0,1-1.179,1.274c-.87.037-1.744.037-2.614,0a1.2,1.2,0,0,1-1.169-1.282,1.239,1.239,0,0,1,1.279-1.187c.408-.008.815,0,1.223,0" transform="translate(-60.819 -172.015)" fill="url(#linear-gradient)"/>
      <path id="Path_1879" data-name="Path 1879" d="M167.162,191.976c.4,0,.793-.008,1.189,0a1.24,1.24,0,0,1,1.26,1.207,1.194,1.194,0,0,1-1.158,1.259c-.881.039-1.767.039-2.648,0a1.2,1.2,0,0,1-1.16-1.258,1.239,1.239,0,0,1,1.259-1.209c.419-.01.838,0,1.257,0" transform="translate(-148.093 -172.011)" fill="url(#linear-gradient)"/>
      <path id="Path_1880" data-name="Path 1880" d="M263.154,191.974c.408,0,.816-.009,1.223,0a1.235,1.235,0,0,1,1.241,1.191,1.189,1.189,0,0,1-1.141,1.272c-.892.041-1.789.041-2.681,0a1.189,1.189,0,0,1-1.14-1.273,1.235,1.235,0,0,1,1.241-1.19c.419-.011.838,0,1.257,0" transform="translate(-235.385 -172.009)" fill="url(#linear-gradient)"/>
    </g>
  </g>
</svg>
