<svg xmlns="http://www.w3.org/2000/svg" xmlns:xlink="http://www.w3.org/1999/xlink" width="176.701" height="145.304" viewBox="0 0 176.701 145.304">
  <defs>
    <clipPath id="clip-path">
      <rect id="Rectangle_259" data-name="Rectangle 259" width="176.701" height="145.305" fill="none" stroke="rgba(181,176,176,0.17)" stroke-width="1"/>
    </clipPath>
  </defs>
  <g id="Group_182" data-name="Group 182" clip-path="url(#clip-path)">
    <path id="Path_294" data-name="Path 294" d="M171.267.5H5.775A5.26,5.26,0,0,0,.5,5.744V116.525a5.26,5.26,0,0,0,5.275,5.244H74.3s13.46,23.379,17.934,23.379a1.017,1.017,0,0,0,.7-.262c3.517-3.146,16.527-23.117,16.527-23.117h61.8a5.26,5.26,0,0,0,5.275-5.244V5.744A5.26,5.26,0,0,0,171.267.5" transform="translate(-0.17 -0.172)" fill="#fff" stroke="rgba(181,176,176,0.17)" stroke-width="1"/>
    <path id="Path_295" data-name="Path 295" d="M171.267.5H5.775A5.26,5.26,0,0,0,.5,5.744V116.525a5.26,5.26,0,0,0,5.275,5.244H74.3s13.46,23.379,17.934,23.379a1.017,1.017,0,0,0,.7-.262c3.517-3.146,16.527-23.117,16.527-23.117h61.8a5.26,5.26,0,0,0,5.275-5.244V5.744A5.26,5.26,0,0,0,171.267.5Z" transform="translate(-0.17 -0.172)" fill="none" stroke="rgba(181,176,176,0.17)" stroke-width="1"/>
  </g>
</svg>
