<svg id="Group_1766" data-name="Group 1766" xmlns="http://www.w3.org/2000/svg" xmlns:xlink="http://www.w3.org/1999/xlink" width="40.746" height="40.665" viewBox="0 0 40.746 40.665">
  <defs>
    <linearGradient id="linear-gradient" x1="0.5" x2="0.5" y2="1" gradientUnits="objectBoundingBox">
      <stop offset="0" stop-color="#242d65"/>
      <stop offset="1" stop-color="#cf2032"/>
    </linearGradient>
    <clipPath id="clip-path">
      <rect id="Rectangle_2218" data-name="Rectangle 2218" width="40.746" height="40.665" fill="url(#linear-gradient)"/>
    </clipPath>
  </defs>
  <g id="Group_1727" data-name="Group 1727" clip-path="url(#clip-path)">
    <path id="Path_1737" data-name="Path 1737" d="M20.691,0a1.6,1.6,0,0,1,1.2,1.458A1.462,1.462,0,0,1,20.582,3.03c-.868.1-1.748.1-2.613.218A16.661,16.661,0,0,0,9.39,7.013,16.571,16.571,0,0,0,3.655,15.95,16.775,16.775,0,0,0,7.523,31.841a16.422,16.422,0,0,0,10.11,5.529,16.846,16.846,0,0,0,14.084-4.036,16.445,16.445,0,0,0,5.369-8.624,36.219,36.219,0,0,0,.565-3.8c.033-.235.015-.477.044-.712a1.5,1.5,0,0,1,1.312-1.38,1.524,1.524,0,0,1,1.653,1.021c.023.059.057.115.086.172v1.509q-.049.429-.1.858a19.977,19.977,0,0,1-4.991,11.361,19.961,19.961,0,0,1-14.43,6.9A19.4,19.4,0,0,1,9.992,37.806,20.035,20.035,0,0,1,.317,23.833C.174,23.07.1,22.294,0,21.525V19.142c.033-.286.066-.571.1-.857A20.07,20.07,0,0,1,5.214,6.777,19.994,19.994,0,0,1,16.864.316C17.63.181,18.407.1,19.179,0Z" fill="url(#linear-gradient)"/>
    <path id="Path_1738" data-name="Path 1738" d="M106.693,70.32a3.952,3.952,0,0,1,.332-.46q8.926-8.894,17.856-17.785a1.684,1.684,0,0,1,1.551-.613,1.516,1.516,0,0,1,.924,2.458,4.279,4.279,0,0,1-.327.347l-19.1,19.015a1.6,1.6,0,0,1-2.654-.047q-3.707-4.016-7.411-8.034a1.541,1.541,0,0,1,.1-2.366,1.508,1.508,0,0,1,1.908.049,4.256,4.256,0,0,1,.365.365q3.088,3.343,6.172,6.689c.079.086.142.187.287.382" transform="translate(-87.675 -46.32)" fill="url(#linear-gradient)"/>
  </g>
</svg>
