<svg xmlns="http://www.w3.org/2000/svg" xmlns:xlink="http://www.w3.org/1999/xlink" width="60.762" height="60.412" viewBox="0 0 60.762 60.412">
  <defs>
    <clipPath id="clip-path">
      <rect id="Rectangle_260" data-name="Rectangle 260" width="60.762" height="60.412" fill="none"/>
    </clipPath>
    <linearGradient id="linear-gradient" x1="0.5" x2="0.5" y2="1" gradientUnits="objectBoundingBox">
      <stop offset="0" stop-color="#4159f0"/>
      <stop offset="1" stop-color="#0827d5"/>
    </linearGradient>
  </defs>
  <g id="Group_183" data-name="Group 183" clip-path="url(#clip-path)">
    <path id="Path_296" data-name="Path 296" d="M57.6,59.98a24.978,24.978,0,0,1-3.487-5.488c-.308-.653-.742-.867-1.252-.641-.526.233-.693.752-.342,1.392.756,1.377,1.531,2.745,2.355,4.082.43.7.977,1.324,1.553,2.091-.172.131-.345.26-.515.392-1.431,1.109-2.851,2.233-4.3,3.322-.568.428-.765.856-.477,1.323a.919.919,0,0,0,1.4.191c.779-.5,1.563-1,2.29-1.574.957-.75,1.86-1.568,2.767-2.34.98.824,1.937,1.675,2.945,2.461a26.722,26.722,0,0,0,2.253,1.523.875.875,0,0,0,1.254-.229.9.9,0,0,0-.333-1.271c-.162-.112-.336-.207-.5-.313a23.744,23.744,0,0,1-4.4-3.58,26.809,26.809,0,0,0,5.123-9.264.616.616,0,0,1,.465-.295c.591-.036,1.186,0,1.779-.021a.811.811,0,0,0,.854-.8.857.857,0,0,0-.779-.943,3.6,3.6,0,0,0-.533-.016q-3.293,0-6.585,0c-.207,0-.415-.019-.652-.031,0-.344.009-.618,0-.891a.9.9,0,0,0-.839-.958.915.915,0,0,0-.932.939c-.019.3,0,.608,0,.941-2.449,0-4.8,0-7.152,0a3.136,3.136,0,0,0-.65.027.874.874,0,0,0,.109,1.737c.177.012.356,0,.534,0h12.6A24.923,24.923,0,0,1,57.6,59.98M91.887,92.439c-.039-.132-.077-.306-.14-.47q-3.113-8.206-6.232-16.409a1.255,1.255,0,0,0-1.262-.965A1.3,1.3,0,0,0,83,75.576q-3.132,8.2-6.275,16.393c-.253.662-.094,1.12.432,1.333s.968-.039,1.222-.69c.371-.951.748-1.9,1.085-2.864a.712.712,0,0,1,.8-.568q3.973.037,7.947,0a.7.7,0,0,1,.8.562c.345,1.022.748,2.026,1.146,3.029a.84.84,0,0,0,.983.578.893.893,0,0,0,.747-.913M61.423,88.65l-.049.122c-.847,0-1.694,0-2.542,0a5.786,5.786,0,0,1-6.062-5.994c-.006-1.749,0-3.5,0-5.246,0-.67-.311-1.031-.86-1.042-.568-.011-.912.372-.915,1.06-.006,1.886-.03,3.773.007,5.658A7.392,7.392,0,0,0,56.847,90.3a27.2,27.2,0,0,0,3.948.238c.2.01.392,0,.588,0a10.757,10.757,0,0,1-1.36,1.164.89.89,0,1,0,1.052,1.419q1.813-1.328,3.6-2.688a.887.887,0,0,0,.005-1.565q-1.787-1.362-3.6-2.689a.906.906,0,0,0-1.32.081.885.885,0,0,0,.258,1.328c.461.362.935.707,1.4,1.059M80.409,52.815l.047-.117c.848,0,1.7,0,2.545,0A5.783,5.783,0,0,1,89.058,58.7c.006,1.75,0,3.5,0,5.25,0,.661.326,1.026.877,1.027s.894-.374.9-1.021c.008-1.927.043-3.855-.012-5.781a7.386,7.386,0,0,0-5.583-6.957,22.01,22.01,0,0,0-3.706-.29c-.36-.023-.722,0-1.083,0a12.423,12.423,0,0,1,1.392-1.188.886.886,0,1,0-1.076-1.4c-1.225.9-2.447,1.8-3.653,2.724a.877.877,0,0,0,.026,1.528c1.192.909,2.4,1.8,3.6,2.692a.91.91,0,0,0,1.322-.078.886.886,0,0,0-.255-1.33c-.46-.363-.934-.709-1.4-1.062" transform="translate(-40.534 -40.53)" fill="#fff"/>
    <path id="Path_297" data-name="Path 297" d="M172.295,202.128a4.059,4.059,0,0,1-2.318-.629,3.735,3.735,0,0,1-1.006-.948,4.265,4.265,0,0,1-.7-2.539q.02-12.271.008-24.541c0-.648-.017-1.3.044-1.945a3.653,3.653,0,0,1,3.329-3.292c.255-.025.513-.033.77-.033q7.18,0,14.36,0c.909,0,1.346.285,1.354.876s-.436.893-1.333.893H172.5c-1.747,0-2.444.692-2.445,2.428q0,12.772,0,25.544c0,1.729.7,2.416,2.456,2.416h25.753c1.63,0,2.36-.72,2.36-2.328q0-12.861,0-25.721c0-1.613-.727-2.337-2.353-2.339q-3.353,0-6.705,0a4.072,4.072,0,0,1-.651-.029.863.863,0,0,1-.005-1.707,3.344,3.344,0,0,1,.591-.031c2.1,0,4.2.065,6.289-.019a4.755,4.755,0,0,1,3.3.919,4.175,4.175,0,0,1,1.319,3.037V199.06a13.093,13.093,0,0,1-.658,1.425,4.05,4.05,0,0,1-2.427,1.643Z" transform="translate(-141.645 -141.718)" fill="url(#linear-gradient)"/>
    <path id="Path_298" data-name="Path 298" d="M30.381,0a4.493,4.493,0,0,1,3.064,1.558,3.778,3.778,0,0,1,.675,2.262c.022,6.507.009,13.014.007,19.521a1.8,1.8,0,0,1-.051.467.8.8,0,0,1-.875.639.786.786,0,0,1-.819-.7,4.257,4.257,0,0,1-.032-.705q0-9.407,0-18.814c0-1.776-.685-2.454-2.476-2.454H4.128C2.5,1.77,1.78,2.487,1.78,4.108q0,12.857,0,25.714c0,1.612.727,2.336,2.354,2.337q9.491,0,18.983,0a5.534,5.534,0,0,1,.71.025.792.792,0,0,1,.761.828.807.807,0,0,1-.761.89,4.247,4.247,0,0,1-.651.025c-6.189,0-12.379-.048-18.567.025C2.13,33.983.54,32.965,0,30.795V3.588a3.865,3.865,0,0,1,.528-1.75A4.178,4.178,0,0,1,3.086,0Z" fill="url(#linear-gradient)"/>
    <path id="Path_299" data-name="Path 299" d="M364.5,367.568a4.05,4.05,0,0,0,2.427-1.643,13.112,13.112,0,0,0,.658-1.425v3.068Z" transform="translate(-306.824 -307.158)" fill="#fff"/>
    <path id="Path_300" data-name="Path 300" d="M57.594,59.98a24.921,24.921,0,0,0,4.548-8.232h-12.6c-.178,0-.357.007-.534,0a.874.874,0,0,1-.109-1.737,3.134,3.134,0,0,1,.65-.027c2.351,0,4.7,0,7.152,0,0-.333-.016-.638,0-.941a.915.915,0,0,1,.932-.939.9.9,0,0,1,.839.958c.01.273,0,.547,0,.891.237.011.444.03.652.031q3.293,0,6.585,0a3.6,3.6,0,0,1,.533.016.857.857,0,0,1,.779.943.81.81,0,0,1-.854.8c-.593.021-1.188-.015-1.779.021a.615.615,0,0,0-.465.295A26.808,26.808,0,0,1,58.8,61.321a23.734,23.734,0,0,0,4.4,3.58c.166.106.341.2.5.313a.9.9,0,0,1,.333,1.271.875.875,0,0,1-1.255.229,26.719,26.719,0,0,1-2.253-1.523c-1.008-.785-1.964-1.636-2.945-2.461-.907.772-1.811,1.59-2.768,2.34-.727.57-1.512,1.072-2.29,1.574a.918.918,0,0,1-1.4-.191c-.288-.467-.091-.9.477-1.323,1.447-1.089,2.867-2.213,4.3-3.322.17-.132.343-.261.515-.392-.575-.766-1.123-1.393-1.553-2.091-.823-1.338-1.6-2.706-2.355-4.082-.351-.64-.184-1.158.342-1.392.509-.226.944-.012,1.252.641a24.977,24.977,0,0,0,3.487,5.488" transform="translate(-40.533 -40.53)" fill="url(#linear-gradient)"/>
    <path id="Path_301" data-name="Path 301" d="M243.248,234.38a.893.893,0,0,1-.747.913.84.84,0,0,1-.984-.578c-.4-1-.8-2.007-1.146-3.029a.7.7,0,0,0-.8-.562q-3.973.03-7.947,0a.713.713,0,0,0-.8.568c-.337.963-.714,1.913-1.085,2.864-.254.651-.706.9-1.222.69s-.685-.671-.432-1.333q3.135-8.2,6.275-16.393a1.3,1.3,0,0,1,1.254-.981,1.255,1.255,0,0,1,1.262.965q3.12,8.2,6.232,16.409c.062.164.1.338.14.47m-11.5-5.067h7.712L235.621,219.2l-3.873,10.111" transform="translate(-191.895 -182.471)" fill="url(#linear-gradient)"/>
    <path id="Path_302" data-name="Path 302" d="M76.457,240.74c-.468-.352-.943-.7-1.4-1.059a.885.885,0,0,1-.258-1.328.906.906,0,0,1,1.32-.081q1.81,1.332,3.6,2.689a.887.887,0,0,1-.005,1.565q-1.785,1.364-3.6,2.688a.89.89,0,1,1-1.052-1.419,10.788,10.788,0,0,0,1.36-1.164c-.2,0-.393.009-.588,0a27.246,27.246,0,0,1-3.948-.238,7.392,7.392,0,0,1-5.847-7.095c-.037-1.885-.013-3.772-.007-5.658,0-.688.347-1.072.915-1.061.549.011.858.372.861,1.042.006,1.749,0,3.5,0,5.246a5.787,5.787,0,0,0,6.062,5.994c.847,0,1.695,0,2.542,0l.049-.122" transform="translate(-55.567 -192.62)" fill="url(#linear-gradient)"/>
    <path id="Path_303" data-name="Path 303" d="M232.165,52.829c.468.353.942.7,1.4,1.062a.886.886,0,0,1,.255,1.33.91.91,0,0,1-1.322.078c-1.207-.89-2.411-1.783-3.6-2.692a.877.877,0,0,1-.026-1.528c1.206-.923,2.428-1.826,3.653-2.724a.886.886,0,1,1,1.076,1.4,12.423,12.423,0,0,0-1.392,1.188c.361,0,.724-.019,1.083,0a22.011,22.011,0,0,1,3.707.29,7.386,7.386,0,0,1,5.583,6.957c.055,1.926.02,3.854.012,5.781,0,.646-.353,1.022-.9,1.021s-.874-.367-.877-1.027c-.007-1.75,0-3.5,0-5.25a5.783,5.783,0,0,0-6.058-6.005c-.848,0-1.7,0-2.545,0l-.047.117" transform="translate(-192.29 -40.544)" fill="url(#linear-gradient)"/>
    <path id="Path_304" data-name="Path 304" d="M251.861,243.593l3.873-10.111,3.839,10.111Z" transform="translate(-212.008 -196.751)" fill="#fff"/>
  </g>
</svg>
