<svg xmlns="http://www.w3.org/2000/svg" xmlns:xlink="http://www.w3.org/1999/xlink" width="73.895" height="60.412" viewBox="0 0 73.895 60.412">
  <defs>
    <clipPath id="clip-path">
      <rect id="Rectangle_939" data-name="Rectangle 939" width="73.895" height="60.412" fill="rgba(0,0,0,0)"/>
    </clipPath>
    <linearGradient id="linear-gradient" x1="0.5" x2="0.5" y2="1" gradientUnits="objectBoundingBox">
      <stop offset="0" stop-color="#4159f0"/>
      <stop offset="1" stop-color="#0827d5"/>
    </linearGradient>
  </defs>
  <g id="Group_399" data-name="Group 399" clip-path="url(#clip-path)">
    <path id="Path_444" data-name="Path 444" d="M110.551,57.986V55.727c1.819-.258,3.666-.455,5.488-.79a46.168,46.168,0,0,0,17.574-7.371,69.573,69.573,0,0,0,17.266-17.214c.86-1.185,1.673-2.4,2.5-3.611.659-.961.954-1.066,2.054-.7.343.113.688.223,1.139.37L155,19.317,148.344,23l1.547.426c1.179.324,1.482,1.137.768,2.122a54.693,54.693,0,0,1-7.612,8.456,53.474,53.474,0,0,1-26.633,13.213c-.341.063-.683.128-1.026.181s-.687.093-1.116.15l-.355-2.31c.888-.165,1.73-.349,2.582-.468a.725.725,0,0,0,.729-.74c.861-6.017,1.787-12.025,2.6-18.049a20.474,20.474,0,0,0-.143-3.781c-.032-.583-.106-1.164-.178-1.941-.4.522-.685.887-.965,1.255-1.472,1.937-2.964,3.86-4.406,5.818a2.978,2.978,0,0,1-2.5,1.357c-.768.01-1.533.133-2.3.187a2.3,2.3,0,0,1-2.316-1.182,2.238,2.238,0,0,1,.14-2.592q4.787-6.555,9.606-13.088a5.821,5.821,0,0,1,3.15-2.032,5.991,5.991,0,0,1-1.49-5.05,5.785,5.785,0,0,1,1.7-3.242A5.993,5.993,0,0,1,127.144.72c2.658,1.474,3.474,3.853,2.625,7.809,1.011-.789,1.963-1.53,2.913-2.272,2.015-1.575,4.024-3.157,6.045-4.724A2.4,2.4,0,0,1,142.5,2.1q.574.825,1.129,1.663a2.388,2.388,0,0,1-.588,3.528c-3.333,2.549-6.662,5.1-10.02,7.618a1.326,1.326,0,0,0-.623,1.471c.252,1.491.4,3,.629,4.5a1.037,1.037,0,0,0,.487.638c1.392.762,2.8,1.505,4.216,2.213a2.86,2.86,0,0,1,1.546,1.887c.638,2.212,1.31,4.415,2.01,6.758a51.2,51.2,0,0,0,6.514-7.006c-1-.257-1.908-.5-2.819-.718a1.224,1.224,0,0,1-1.078-1.072,1.209,1.209,0,0,1,.744-1.255c3.471-1.924,6.936-3.859,10.412-5.776a1.2,1.2,0,0,1,1.949.886q1.173,5.188,2.314,10.383a1.2,1.2,0,0,1-1.611,1.485,19.948,19.948,0,0,1-1.974-.659c-.5-.208-.737-.066-1.02.357a84.623,84.623,0,0,1-9.643,12c-6.525,6.693-14,11.927-22.958,14.854a46.385,46.385,0,0,1-10.855,2.126c-.2.015-.393,0-.713,0M140.4,3.249c-3.34,2.611-6.574,5.162-9.843,7.669a3.181,3.181,0,0,1-1.541.6c-2.518.258-5.043.452-7.567.647a4.1,4.1,0,0,0-3.182,1.793c-2.9,4-5.832,7.974-8.751,11.96-.122.166-.219.351-.38.612.759-.068,1.4-.167,2.04-.169a1.483,1.483,0,0,0,1.264-.729c2.252-3,4.531-5.973,6.792-8.963.4-.524.818-.975,1.544-.749.71.22.853.814.9,1.473.124,1.633.29,3.264.406,4.9a19.464,19.464,0,0,1,.148,3.709c-.483,3.889-1.109,7.76-1.677,11.638-.308,2.1-.608,4.208-.931,6.449.928-.275,1.737-.571,2.572-.743.679-.139.885-.511.992-1.145q1.361-8.033,2.782-16.056c.214-1.218.922-1.553,2.049-1.007,1.495.725,2.953,1.537,4.484,2.174a4.293,4.293,0,0,1,2.64,2.972c.548,1.843,1.274,3.632,1.952,5.525.657-.5,1.272-.924,1.817-1.422a.936.936,0,0,0,.22-.787c-.663-2.337-1.384-4.657-2.051-6.993a1.413,1.413,0,0,0-.817-.961c-1.509-.752-2.992-1.557-4.5-2.312a1.671,1.671,0,0,1-1.027-1.417c-.246-2.094-.537-4.184-.838-6.271a1.818,1.818,0,0,1,.768-1.925c3.517-2.633,7-5.313,10.494-7.977.192-.146.373-.306.593-.487l-1.357-2M125.614,42.117a48.838,48.838,0,0,0,9.137-4.726.767.767,0,0,0,.119-.684c-.735-2.129-1.5-4.247-2.266-6.365a.869.869,0,0,0-.312-.471c-1.363-.686-2.74-1.345-4.2-2.055l-2.476,14.3M124.307,2.392a3.569,3.569,0,1,0,3.546,3.541,3.556,3.556,0,0,0-3.546-3.541" transform="translate(-85.473 0)" fill="url(#linear-gradient)"/>
    <path id="Path_445" data-name="Path 445" d="M24.612,178.5c-.486.558-.9,1.1-1.383,1.564a.807.807,0,0,0-.222,1.019c.194.533.55.472.94.473,2.158.006,2.282.129,2.282,2.258,0,1.092,0,2.185,0,3.277,0,1.252-.378,1.619-1.655,1.623-.223,0-.448.016-.67,0a.762.762,0,0,0-.918.513c-.2.483-.019.708.28,1.007,1.587,1.582,1.581,1.717-.015,3.313-.807.807-1.606,1.624-2.425,2.42a1.208,1.208,0,0,1-1.943,0,8.169,8.169,0,0,1-.682-.686.759.759,0,0,0-1.01-.259c-.5.2-.5.51-.5.924,0,2.195-.118,2.308-2.305,2.308-1.142,0-2.284.007-3.426,0-.98-.009-1.4-.435-1.421-1.4a7.479,7.479,0,0,1,0-.893.824.824,0,0,0-.565-.96c-.527-.249-.72.071-.991.34-1.505,1.5-1.715,1.5-3.22,0-.826-.824-1.659-1.642-2.473-2.477a1.209,1.209,0,0,1-.014-1.943,8.61,8.61,0,0,1,.686-.682.746.746,0,0,0,.267-1.006c-.2-.481-.487-.518-.915-.517C.106,188.7,0,188.59,0,186.406c0-1.117,0-2.234,0-3.351.006-1.084.409-1.492,1.47-1.5a7.109,7.109,0,0,1,.893.006c.466.055.686-.127.885-.562.211-.46.008-.668-.267-.944-1.615-1.624-1.611-1.729.026-3.366.773-.772,1.542-1.547,2.319-2.315s1.319-.751,2.1.008c.2.19.393.379.578.58.276.3.5.526,1,.3a.817.817,0,0,0,.534-.906c-.005-2.249.092-2.336,2.344-2.336,1.142,0,2.284-.009,3.426,0a1.22,1.22,0,0,1,1.378,1.372c.007.3.014.6,0,.894-.022.439,0,.77.53.982.494.2.713-.012,1-.3,1.552-1.545,1.732-1.541,3.269,0,.807.808,1.63,1.6,2.414,2.43a7.471,7.471,0,0,1,.7,1.1m-12.692-4.064c0,.428,0,.8,0,1.165-.009.926-.239,1.213-1.1,1.521a12.742,12.742,0,0,0-1.777.749,1.3,1.3,0,0,1-1.79-.305c-.257-.3-.476-.632-.69-.919l-1.941,1.883a10.4,10.4,0,0,1,.895.709c.7.685.718,1.022.29,1.914a15.472,15.472,0,0,0-.725,1.785,1.3,1.3,0,0,1-1.379,1c-.415-.007-.83,0-1.269,0v2.39c.411,0,.779,0,1.147,0,.934.007,1.214.23,1.523,1.1a13.174,13.174,0,0,0,.75,1.776,1.278,1.278,0,0,1-.246,1.739c-.313.279-.661.518-.976.761l1.882,1.925c.263-.33.5-.65.759-.947a1.309,1.309,0,0,1,1.8-.275,12.01,12.01,0,0,0,1.851.76,1.3,1.3,0,0,1,1,1.377c-.008.415,0,.831,0,1.278h2.39c0-.408,0-.776,0-1.143.008-.966.227-1.227,1.156-1.555a14.119,14.119,0,0,0,1.772-.759,1.28,1.28,0,0,1,1.679.266c.3.312.615.611.867.861l1.8-1.691c-.3-.262-.591-.491-.852-.75a1.306,1.306,0,0,1-.32-1.908,11.568,11.568,0,0,0,.7-1.715,1.328,1.328,0,0,1,1.455-1.1c.411.014.823,0,1.218,0v-2.39c-.4,0-.75,0-1.1,0-1.01-.007-1.268-.22-1.608-1.191a12.077,12.077,0,0,0-.724-1.706,1.266,1.266,0,0,1,.28-1.732c.316-.275.674-.5.927-.688l-1.824-1.878c-.239.259-.48.541-.743.8a1.292,1.292,0,0,1-1.85.306,13.193,13.193,0,0,0-1.783-.733,1.333,1.333,0,0,1-1.062-1.483c.016-.389,0-.779,0-1.2Z" transform="translate(0 -137.833)" fill="url(#linear-gradient)"/>
    <path id="Path_446" data-name="Path 446" d="M150.361,16.352l1.356,2c-.22.181-.4.341-.593.487-3.493,2.665-6.976,5.344-10.494,7.977a1.819,1.819,0,0,0-.768,1.925c.3,2.087.592,4.177.838,6.271a1.671,1.671,0,0,0,1.026,1.417c1.508.755,2.99,1.56,4.5,2.312a1.415,1.415,0,0,1,.817.961c.667,2.336,1.387,4.656,2.051,6.993a.936.936,0,0,1-.22.787c-.545.5-1.16.919-1.817,1.422-.678-1.892-1.4-3.682-1.952-5.525a4.293,4.293,0,0,0-2.64-2.972c-1.531-.637-2.989-1.449-4.484-2.174-1.127-.547-1.835-.211-2.049,1.007q-1.411,8.025-2.782,16.056c-.107.634-.313,1.005-.992,1.145-.835.172-1.644.468-2.572.743.323-2.241.623-4.345.931-6.449.567-3.879,1.194-7.749,1.677-11.638a19.479,19.479,0,0,0-.147-3.709c-.115-1.634-.282-3.264-.406-4.9-.05-.659-.193-1.253-.9-1.473-.726-.225-1.148.225-1.545.749-2.261,2.99-4.54,5.966-6.792,8.963a1.484,1.484,0,0,1-1.264.729c-.641,0-1.281.1-2.04.169.161-.261.258-.445.38-.612,2.918-3.985,5.854-7.959,8.751-11.96a4.1,4.1,0,0,1,3.182-1.793c2.524-.194,5.049-.389,7.567-.647a3.182,3.182,0,0,0,1.54-.6c3.269-2.507,6.5-5.058,9.843-7.669" transform="translate(-95.434 -13.103)" fill="#fff"/>
    <path id="Path_447" data-name="Path 447" d="M202.022,154.3l2.476-14.3c1.462.71,2.839,1.368,4.2,2.055a.869.869,0,0,1,.312.471c.766,2.117,1.531,4.236,2.266,6.365a.766.766,0,0,1-.119.684,48.838,48.838,0,0,1-9.137,4.726" transform="translate(-161.881 -112.179)" fill="#fff"/>
    <path id="Path_448" data-name="Path 448" d="M180.972,12.039a3.569,3.569,0,0,1-.034,7.137,3.569,3.569,0,1,1,.034-7.137" transform="translate(-142.139 -9.647)" fill="#fff"/>
    <path id="Path_449" data-name="Path 449" d="M21.72,184.194h2.389c0,.421.013.811,0,1.2a1.333,1.333,0,0,0,1.062,1.483,13.2,13.2,0,0,1,1.782.733,1.292,1.292,0,0,0,1.85-.306c.262-.26.5-.542.743-.8l1.824,1.878c-.253.186-.611.413-.927.688a1.266,1.266,0,0,0-.281,1.732,12.073,12.073,0,0,1,.724,1.706c.34.971.6,1.184,1.608,1.191.346,0,.693,0,1.1,0v2.39c-.4,0-.807.012-1.218,0a1.328,1.328,0,0,0-1.455,1.1,11.578,11.578,0,0,1-.7,1.715,1.306,1.306,0,0,0,.32,1.908c.261.259.552.488.852.75l-1.8,1.692c-.252-.25-.566-.549-.867-.861a1.279,1.279,0,0,0-1.679-.266,14.107,14.107,0,0,1-1.772.759c-.929.328-1.148.589-1.156,1.555,0,.367,0,.734,0,1.143h-2.39c0-.447-.006-.862,0-1.278a1.3,1.3,0,0,0-1-1.377,12.007,12.007,0,0,1-1.851-.76,1.31,1.31,0,0,0-1.8.275c-.26.3-.5.617-.759.947L14.43,201.46c.314-.243.663-.481.975-.761a1.277,1.277,0,0,0,.246-1.739,13.2,13.2,0,0,1-.75-1.776c-.309-.865-.589-1.089-1.523-1.1-.368,0-.735,0-1.147,0V193.7c.439,0,.854-.006,1.269,0a1.3,1.3,0,0,0,1.379-1,15.51,15.51,0,0,1,.725-1.785c.428-.891.407-1.229-.29-1.914a10.437,10.437,0,0,0-.9-.709l1.941-1.883c.214.287.433.62.69.919a1.3,1.3,0,0,0,1.79.305,12.728,12.728,0,0,1,1.777-.749c.863-.308,1.093-.595,1.1-1.521,0-.368,0-.737,0-1.165m-4.763,10.7a5.958,5.958,0,1,0,5.977-5.957,5.976,5.976,0,0,0-5.977,5.957" transform="translate(-9.801 -147.595)" fill="#fff"/>
    <path id="Path_450" data-name="Path 450" d="M36.02,214A5.958,5.958,0,1,1,42,219.955,5.973,5.973,0,0,1,36.02,214m9.532-.012a3.574,3.574,0,1,0-3.6,3.588,3.588,3.588,0,0,0,3.6-3.588" transform="translate(-28.863 -166.702)" fill="url(#linear-gradient)"/>
    <path id="Path_451" data-name="Path 451" d="M55.168,223.6a3.574,3.574,0,1,1-3.55-3.561,3.591,3.591,0,0,1,3.55,3.561" transform="translate(-38.479 -176.317)" fill="#fff"/>
  </g>
</svg>
