<svg id="Group_604" data-name="Group 604" xmlns="http://www.w3.org/2000/svg" xmlns:xlink="http://www.w3.org/1999/xlink" width="500" height="383.117" viewBox="0 0 500 383.117">
  <defs>
    <clipPath id="clip-path">
      <rect id="Rectangle_1037" data-name="Rectangle 1037" width="500" height="383.117" fill="none"/>
    </clipPath>
    <clipPath id="clip-path-5">
      <rect id="Rectangle_961" data-name="Rectangle 961" width="162.589" height="162.588" transform="translate(166.404 92.379)" fill="none"/>
    </clipPath>
    <clipPath id="clip-path-6">
      <rect id="Rectangle_962" data-name="Rectangle 962" width="81.907" height="85.734" transform="translate(169.187 169.233)" fill="none"/>
    </clipPath>
    <clipPath id="clip-path-7">
      <rect id="Rectangle_963" data-name="Rectangle 963" width="68.622" height="86.482" transform="translate(256.74 93.844)" fill="none"/>
    </clipPath>
    <clipPath id="clip-path-8">
      <rect id="Rectangle_964" data-name="Rectangle 964" width="13.203" height="9.646" transform="translate(260.508 193.406)" fill="none"/>
    </clipPath>
    <clipPath id="clip-path-9">
      <rect id="Rectangle_965" data-name="Rectangle 965" width="34.869" height="59.222" transform="translate(293.953 170.05)" fill="none"/>
    </clipPath>
    <clipPath id="clip-path-10">
      <rect id="Rectangle_966" data-name="Rectangle 966" width="48.231" height="30.583" transform="translate(186.39 93.427)" fill="none"/>
    </clipPath>
    <clipPath id="clip-path-11">
      <rect id="Rectangle_972" data-name="Rectangle 972" width="159.635" height="161.54" transform="translate(169.187 93.427)" fill="none"/>
    </clipPath>
    <clipPath id="clip-path-18">
      <rect id="Rectangle_974" data-name="Rectangle 974" width="22.464" height="22.464" transform="translate(50.912 77.612)" fill="none"/>
    </clipPath>
    <clipPath id="clip-path-19">
      <rect id="Rectangle_975" data-name="Rectangle 975" width="23.822" height="23.822" transform="translate(50.234 76.932)" fill="none"/>
    </clipPath>
    <clipPath id="clip-path-20">
      <rect id="Rectangle_976" data-name="Rectangle 976" width="19.968" height="19.968" transform="translate(46.129 288.047)" fill="none"/>
    </clipPath>
    <clipPath id="clip-path-21">
      <rect id="Rectangle_977" data-name="Rectangle 977" width="21.175" height="21.175" transform="translate(45.524 287.444)" fill="none"/>
    </clipPath>
    <clipPath id="clip-path-22">
      <rect id="Rectangle_978" data-name="Rectangle 978" width="22.035" height="22.039" transform="translate(432.872 204.303)" fill="none"/>
    </clipPath>
    <clipPath id="clip-path-23">
      <rect id="Rectangle_979" data-name="Rectangle 979" width="23.372" height="23.372" transform="translate(432.203 203.634)" fill="none"/>
    </clipPath>
    <clipPath id="clip-path-24">
      <rect id="Rectangle_984" data-name="Rectangle 984" width="89.596" height="39.596" transform="translate(304.1 98.729)" fill="none"/>
    </clipPath>
    <clipPath id="clip-path-25">
      <rect id="Rectangle_987" data-name="Rectangle 987" width="57.777" height="91.397" transform="translate(315.306 195.756)" fill="none"/>
    </clipPath>
    <clipPath id="clip-path-26">
      <rect id="Rectangle_989" data-name="Rectangle 989" width="38.987" height="62.137" transform="translate(180.62 47.563)" fill="none"/>
    </clipPath>
    <clipPath id="clip-path-27">
      <rect id="Rectangle_991" data-name="Rectangle 991" width="99.154" height="21.67" transform="translate(94.431 211.61)" fill="none"/>
    </clipPath>
    <clipPath id="clip-path-28">
      <rect id="Rectangle_992" data-name="Rectangle 992" width="300.019" height="295.01" transform="translate(94.004 29.039)" fill="none"/>
    </clipPath>
    <clipPath id="clip-path-29">
      <rect id="Rectangle_993" data-name="Rectangle 993" width="3.873" height="3.493" transform="translate(215.943 105.944)" fill="none"/>
    </clipPath>
    <clipPath id="clip-path-30">
      <rect id="Rectangle_994" data-name="Rectangle 994" width="3.873" height="3.493" transform="translate(301.059 134.373)" fill="none"/>
    </clipPath>
    <clipPath id="clip-path-31">
      <rect id="Rectangle_995" data-name="Rectangle 995" width="3.873" height="3.493" transform="translate(190.244 208.085)" fill="none"/>
    </clipPath>
    <clipPath id="clip-path-32">
      <rect id="Rectangle_996" data-name="Rectangle 996" width="3.873" height="3.493" transform="translate(312.491 192.529)" fill="none"/>
    </clipPath>
    <clipPath id="clip-path-33">
      <rect id="Rectangle_997" data-name="Rectangle 997" width="64.741" height="64.741" transform="translate(361.371 68.901)" fill="none"/>
    </clipPath>
    <clipPath id="clip-path-34">
      <rect id="Rectangle_998" data-name="Rectangle 998" width="9.25" height="19.001" transform="translate(365.641 107.008)" fill="none"/>
    </clipPath>
    <clipPath id="clip-path-35">
      <rect id="Rectangle_999" data-name="Rectangle 999" width="10.385" height="18.502" transform="translate(372.877 112.23)" fill="none"/>
    </clipPath>
    <clipPath id="clip-path-36">
      <rect id="Rectangle_1000" data-name="Rectangle 1000" width="38.819" height="21.992" transform="translate(379.223 111.644)" fill="none"/>
    </clipPath>
    <clipPath id="clip-path-37">
      <rect id="Rectangle_1001" data-name="Rectangle 1001" width="8.508" height="5.17" transform="translate(395.56 102.492)" fill="none"/>
    </clipPath>
    <clipPath id="clip-path-38">
      <rect id="Rectangle_1002" data-name="Rectangle 1002" width="10.275" height="13.729" transform="translate(409.378 115.88)" fill="none"/>
    </clipPath>
    <clipPath id="clip-path-39">
      <rect id="Rectangle_1003" data-name="Rectangle 1003" width="34.317" height="34.318" transform="translate(294.936 14.406)" fill="none"/>
    </clipPath>
    <clipPath id="clip-path-40">
      <rect id="Rectangle_1004" data-name="Rectangle 1004" width="36.392" height="36.392" transform="translate(293.899 13.369)" fill="none"/>
    </clipPath>
    <clipPath id="clip-path-41">
      <rect id="Rectangle_1005" data-name="Rectangle 1005" width="34.318" height="34.31" transform="translate(173.875 304.764)" fill="none"/>
    </clipPath>
    <clipPath id="clip-path-42">
      <rect id="Rectangle_1006" data-name="Rectangle 1006" width="36.392" height="36.392" transform="translate(172.835 303.723)" fill="none"/>
    </clipPath>
    <clipPath id="clip-path-43">
      <rect id="Rectangle_1007" data-name="Rectangle 1007" width="34.318" height="34.317" transform="translate(91.022 112.453)" fill="none"/>
    </clipPath>
    <clipPath id="clip-path-44">
      <rect id="Rectangle_1008" data-name="Rectangle 1008" width="36.393" height="36.392" transform="translate(89.982 111.413)" fill="none"/>
    </clipPath>
    <clipPath id="clip-path-45">
      <rect id="Rectangle_1009" data-name="Rectangle 1009" width="59.05" height="59.04" transform="translate(150.274 16.81)" fill="none"/>
    </clipPath>
    <clipPath id="clip-path-46">
      <rect id="Rectangle_1010" data-name="Rectangle 1010" width="6.97" height="10.601" transform="translate(182.359 45.46)" fill="none"/>
    </clipPath>
    <clipPath id="clip-path-47">
      <rect id="Rectangle_1011" data-name="Rectangle 1011" width="39.339" height="13.085" transform="translate(156.615 62.765)" fill="none"/>
    </clipPath>
    <clipPath id="clip-path-48">
      <rect id="Rectangle_1012" data-name="Rectangle 1012" width="7.612" height="7.858" transform="translate(170.234 51.259)" fill="none"/>
    </clipPath>
    <clipPath id="clip-path-49">
      <rect id="Rectangle_1013" data-name="Rectangle 1013" width="55.71" height="55.72" transform="translate(67.582 206.357)" fill="none"/>
    </clipPath>
    <clipPath id="clip-path-50">
      <rect id="Rectangle_1014" data-name="Rectangle 1014" width="41.95" height="15.982" transform="translate(75.082 246.095)" fill="none"/>
    </clipPath>
    <clipPath id="clip-path-51">
      <rect id="Rectangle_1015" data-name="Rectangle 1015" width="7.796" height="7.153" transform="translate(89.079 237.713)" fill="none"/>
    </clipPath>
    <clipPath id="clip-path-52">
      <rect id="Rectangle_1016" data-name="Rectangle 1016" width="69.53" height="69.53" transform="translate(339.093 249.031)" fill="none"/>
    </clipPath>
    <clipPath id="clip-path-53">
      <rect id="Rectangle_1017" data-name="Rectangle 1017" width="19.21" height="17.78" transform="translate(341.993 297.671)" fill="none"/>
    </clipPath>
    <clipPath id="clip-path-54">
      <rect id="Rectangle_1018" data-name="Rectangle 1018" width="47.09" height="23.194" transform="translate(357.823 295.366)" fill="none"/>
    </clipPath>
    <clipPath id="clip-path-55">
      <rect id="Rectangle_1019" data-name="Rectangle 1019" width="36.93" height="19.66" transform="translate(357.823 298.901)" fill="none"/>
    </clipPath>
    <clipPath id="clip-path-56">
      <rect id="Rectangle_1020" data-name="Rectangle 1020" width="8.406" height="12.496" transform="translate(376.733 280.145)" fill="none"/>
    </clipPath>
    <clipPath id="clip-path-58">
      <rect id="Rectangle_1022" data-name="Rectangle 1022" width="12.952" height="11.367" transform="translate(255.214 98.834)" fill="none"/>
    </clipPath>
    <clipPath id="clip-path-60">
      <rect id="Rectangle_1024" data-name="Rectangle 1024" width="32.105" height="36.031" transform="translate(258.587 155.008)" fill="none"/>
    </clipPath>
    <clipPath id="clip-path-61">
      <rect id="Rectangle_1025" data-name="Rectangle 1025" width="9.055" height="10.172" transform="translate(276.669 344.584)" fill="none"/>
    </clipPath>
    <clipPath id="clip-path-62">
      <rect id="Rectangle_1026" data-name="Rectangle 1026" width="7.737" height="9.498" transform="translate(238.844 346.784)" fill="none"/>
    </clipPath>
    <clipPath id="clip-path-63">
      <rect id="Rectangle_1027" data-name="Rectangle 1027" width="30.092" height="7.517" transform="translate(230.653 199.599)" fill="none"/>
    </clipPath>
    <clipPath id="clip-path-64">
      <rect id="Rectangle_1031" data-name="Rectangle 1031" width="8.929" height="5.427" transform="translate(235.513 144.788)" fill="none"/>
    </clipPath>
    <clipPath id="clip-path-65">
      <rect id="Rectangle_1032" data-name="Rectangle 1032" width="6.483" height="51.339" transform="translate(247.523 236.018)" fill="none"/>
    </clipPath>
    <clipPath id="clip-path-66">
      <rect id="Rectangle_1033" data-name="Rectangle 1033" width="35.844" height="30.762" transform="translate(192.199 161.042)" fill="none"/>
    </clipPath>
    <clipPath id="clip-path-67">
      <rect id="Rectangle_1034" data-name="Rectangle 1034" width="15.665" height="17.784" transform="translate(287.453 147.559)" fill="none"/>
    </clipPath>
    <clipPath id="clip-path-68">
      <rect id="Rectangle_1035" data-name="Rectangle 1035" width="13.883" height="15.987" transform="translate(288.099 147.889)" fill="none"/>
    </clipPath>
  </defs>
  <g id="Group_603" data-name="Group 603" clip-path="url(#clip-path)">
    <rect id="Rectangle_951" data-name="Rectangle 951" width="500" height="0.25" transform="translate(0 337.954)" fill="#ebebeb"/>
    <rect id="Rectangle_952" data-name="Rectangle 952" width="33.122" height="0.25" transform="translate(416.779 354.05)" fill="#ebebeb"/>
    <rect id="Rectangle_953" data-name="Rectangle 953" width="8.693" height="0.25" transform="translate(322.527 356.763)" fill="#ebebeb"/>
    <rect id="Rectangle_954" data-name="Rectangle 954" width="19.192" height="0.25" transform="translate(396.586 344.764)" fill="#ebebeb"/>
    <rect id="Rectangle_955" data-name="Rectangle 955" width="43.193" height="0.25" transform="translate(52.459 346.444)" fill="#ebebeb"/>
    <rect id="Rectangle_956" data-name="Rectangle 956" width="6.333" height="0.25" transform="translate(104.556 346.444)" fill="#ebebeb"/>
    <rect id="Rectangle_957" data-name="Rectangle 957" width="93.676" height="0.249" transform="translate(131.471 350.667)" fill="#ebebeb"/>
    <g id="Group_409" data-name="Group 409">
      <g id="Group_408" data-name="Group 408" clip-path="url(#clip-path)">
        <path id="Path_481" data-name="Path 481" d="M237.014,293.355H43.915a5.714,5.714,0,0,1-5.708-5.708V16.216a5.715,5.715,0,0,1,5.708-5.708h193.1a5.715,5.715,0,0,1,5.707,5.708V287.647a5.714,5.714,0,0,1-5.707,5.708m-193.1-282.6a5.464,5.464,0,0,0-5.458,5.458V287.647a5.464,5.464,0,0,0,5.458,5.458h193.1a5.464,5.464,0,0,0,5.457-5.458V16.216a5.464,5.464,0,0,0-5.457-5.458Z" fill="#ebebeb"/>
        <path id="Path_482" data-name="Path 482" d="M453.311,293.355h-193.1a5.713,5.713,0,0,1-5.707-5.708V16.216a5.714,5.714,0,0,1,5.707-5.708h193.1a5.715,5.715,0,0,1,5.708,5.708V287.647a5.714,5.714,0,0,1-5.708,5.708m-193.1-282.6a5.463,5.463,0,0,0-5.457,5.458V287.647a5.463,5.463,0,0,0,5.457,5.458h193.1a5.464,5.464,0,0,0,5.458-5.458V16.216a5.464,5.464,0,0,0-5.458-5.458Z" fill="#ebebeb"/>
        <path id="Path_483" data-name="Path 483" d="M393.93,101.863,285.086,65.1,285,65.015,227.5,6.075,181.382,48.2l-.675-.738,46.83-42.773,58.1,59.546L393.553,100.68l44.294-60.937.809.588Z" fill="#f0f0f0"/>
        <path id="Path_484" data-name="Path 484" d="M55.613,192.343a5.379,5.379,0,1,1-5.38-5.38,5.38,5.38,0,0,1,5.38,5.38" fill="#f0f0f0"/>
        <path id="Path_485" data-name="Path 485" d="M232.9,5.38A5.38,5.38,0,1,1,227.517,0a5.38,5.38,0,0,1,5.38,5.38" fill="#f0f0f0"/>
        <path id="Path_486" data-name="Path 486" d="M443.631,40.037a5.38,5.38,0,1,1-5.38-5.38,5.38,5.38,0,0,1,5.38,5.38" fill="#f0f0f0"/>
        <path id="Path_487" data-name="Path 487" d="M444.1,323.94a5.38,5.38,0,1,1-5.38-5.38,5.38,5.38,0,0,1,5.38,5.38" fill="#f0f0f0"/>
        <path id="Path_488" data-name="Path 488" d="M290.74,64.665a5.38,5.38,0,1,1-5.38-5.38,5.38,5.38,0,0,1,5.38,5.38" fill="#f0f0f0"/>
        <path id="Path_489" data-name="Path 489" d="M191.355,324.078l-.417-.079L56.019,298.523l.185-.982,134.5,25.4L284.89,64.494l.94.343Z" fill="#f0f0f0"/>
        <rect id="Rectangle_958" data-name="Rectangle 958" width="1" height="61.49" transform="matrix(0.663, -0.749, 0.749, 0.663, 61.812, 89.218)" fill="#f0f0f0"/>
        <path id="Path_490" data-name="Path 490" d="M438.457,324.365l-66.7-41.34,1.456-.4L443.29,215.2l-50.006-113.73.915-.4,50.288,114.368-.252.242-70.229,67.566,64.976,40.269Z" fill="#f0f0f0"/>
        <path id="Path_491" data-name="Path 491" d="M56.531,298.3l-.84-.543,40.316-62.274L49.528,192.371l.338-.366,58.217-63.029.346.2L373.714,282.642l-.5.865L108.274,130.243,50.94,192.317,97.3,235.325Z" fill="#f0f0f0"/>
      </g>
    </g>
    <g id="Group_411" data-name="Group 411">
      <g id="Group_410" data-name="Group 410" clip-path="url(#clip-path)">
        <path id="Path_492" data-name="Path 492" d="M443.889,371.794c0,6.254-86.807,11.323-193.889,11.323S56.111,378.048,56.111,371.794,142.918,360.471,250,360.471s193.889,5.07,193.889,11.323" fill="#f5f5f5"/>
      </g>
    </g>
    <g id="Group_449" data-name="Group 449">
      <g id="Group_448" data-name="Group 448" clip-path="url(#clip-path)">
        <path id="Path_493" data-name="Path 493" d="M241,254.687q4.035.333,7.994.271a81.283,81.283,0,0,0,79.717-74.587c.042-.494.076-.988.111-1.477a81.1,81.1,0,0,0-3.461-29.308v-.006a81.371,81.371,0,0,0-62.717-55.819,83.068,83.068,0,0,0-8.249-1.1A81.29,81.29,0,1,0,241,254.687" fill="#407bff"/>
        <g id="Group_414" data-name="Group 414" opacity="0.7">
          <g id="Group_413" data-name="Group 413">
            <g id="Group_412" data-name="Group 412" clip-path="url(#clip-path-5)">
              <path id="Path_494" data-name="Path 494" d="M241,254.687q4.035.333,7.994.271a81.283,81.283,0,0,0,79.717-74.587c.042-.494.076-.988.111-1.477a81.1,81.1,0,0,0-3.461-29.308v-.006a81.371,81.371,0,0,0-62.717-55.819,83.068,83.068,0,0,0-8.249-1.1A81.29,81.29,0,1,0,241,254.687" fill="#fff"/>
            </g>
          </g>
        </g>
        <g id="Group_417" data-name="Group 417" style="mix-blend-mode: normal;isolation: isolate">
          <g id="Group_416" data-name="Group 416">
            <g id="Group_415" data-name="Group 415" clip-path="url(#clip-path-6)">
              <path id="Path_495" data-name="Path 495" d="M186.815,193.5c-.263,1.511-2.184,2.054-3.733,2.249q-3.486.431-6.973.868c-1.1-2.889-4.517-2.914-6.922-1.789A81.32,81.32,0,0,0,241,254.686q4.035.333,7.994.272a2.27,2.27,0,0,0,.13-.2c1.211-2.13-.546-4.016-1.486-5.763-.213-.4-2.205-5.43-1.544-5.444a21.506,21.506,0,0,1-6.332-.818.648.648,0,0,1-.407-.242c-.192-.333.271-.657.645-.745.957-.225,1.952-.277,2.894-.559a3.329,3.329,0,0,0,2.234-1.768c.367-.917.1-1.968.306-2.933a4.046,4.046,0,0,1,2.3-2.627,13.312,13.312,0,0,1,3.358-.9c-2.456-1.337-.669-4.123-2.6-5.985-.619-.6-1.521-1.329-1.141-2.1.362-.734,1.661-.723,1.823-1.525.113-.562-.478-1.024-1.037-1.15a6.161,6.161,0,0,1-1.67-.359,1.494,1.494,0,0,1-.472-2.086c.42-.589,1.2-.77,1.834-1.11s1.214-1.127.83-1.74a1.125,1.125,0,0,0-.369-.347c-1.041-.644-2.4-.106-3.419.575s-2.048,1.539-3.272,1.526a1.018,1.018,0,0,1,.4-1.382,1.684,1.684,0,0,0,.5-.256c.285-.291.071-.772-.124-1.13a7.325,7.325,0,0,1-.561-5.583l7.443.142c.062-.558.123-.891.713-1.059a77.634,77.634,0,0,1-4.953-6,1.506,1.506,0,0,0-.664-.642,4.773,4.773,0,0,0-.975-.049c-1.074-.147-1.248-1.614-1.138-2.692-.15-.327-.679-.186-.877.115s-.244.692-.486.958a1.38,1.38,0,0,1-1.507.163,3.577,3.577,0,0,1-1.888-4.636,1.078,1.078,0,0,1,.407-.515c.424-.243.939.056,1.42.143,1.9.341,1.61-1.758,1.153-2.75-.62-1.346-2.469-2.213-3.812-2.557-1.569-.4-12.037-2.4-10.312-5.816a1.578,1.578,0,0,1,.807-.68,23.857,23.857,0,0,1,3.2-.61c1.048-.295,2.065-1.385,1.608-2.373-.183-.4-.563-.669-.775-1.051-.59-1.063.32-2.443-.1-3.585a9.853,9.853,0,0,0-.919-1.4c-.281-.483-.327-1.213.151-1.5.535-.325,1.269.158,1.841-.1a.982.982,0,0,0,.012-1.623,1.692,1.692,0,0,0-1.851.137,2.249,2.249,0,0,1-.894.494c-.611.081-1.068-.527-1.38-1.059l-1.486-2.537a1.438,1.438,0,0,0-1.181,1.051c-.192.526-.229,1.1-.447,1.623-1.052,2.508-4.87,2.209-4.375,5.641a1.629,1.629,0,0,1,1.657,2.02c-.4,1.214-2.222,1.88-1.966,3.133.089.435.435.788.505,1.227.193,1.212-1.681,1.657-2.486,1.933-2.668.915-2.85-.837-5.162-.941-1.058-.048-2.008.666-3.061.782-.968.106-1.931-.3-2.9-.247-2.675.156-1.334,3.781-1.145,5.357-1.436-.958-3.356.16-4.5,1.449-1.757,1.982-1.593,1.632-3.918,1.72a1.691,1.691,0,0,0-1.507.888c-.432.979.488,2.032.511,3.1.011.513-.188,1.018-.141,1.529.124,1.342,1.714,1.927,2.678,2.868a3.687,3.687,0,0,1,1.031,3.238,7.739,7.739,0,0,1-2.054-.146l-1.207-2.331a5.053,5.053,0,0,0-1.358-1.856,4.169,4.169,0,0,1-1.032-.779c-.506-.7-.1-1.652.024-2.5.292-2.069-.748-5.551-1.255-7.6-.539-2.187-1.992-3.048-2.52-5.068a.632.632,0,0,0-.91-.29,1.394,1.394,0,0,0-.576.906,3.82,3.82,0,0,0,.22,2.5c-.462-1.02-3.042,1.663-3.2,2.173-.255.834.3,2.024.277,2.891-.053,2.15-.573,3.359-2.795,1.777-.85-.606-1.938-1.319-2.839-.793a1.344,1.344,0,0,1-.749,1.52,2.834,2.834,0,0,1-1.808.137,1.8,1.8,0,0,1-1.1-.533,3,3,0,0,0-.4-.528c-.57-.444-1.29.326-1.6.979" fill="#407bff"/>
            </g>
          </g>
        </g>
        <g id="Group_420" data-name="Group 420" style="mix-blend-mode: normal;isolation: isolate">
          <g id="Group_419" data-name="Group 419">
            <g id="Group_418" data-name="Group 418" clip-path="url(#clip-path-7)">
              <path id="Path_496" data-name="Path 496" d="M285.028,129.579c.449.7-.025,1.622-.538,2.281s-1.111,1.434-.887,2.239l2.895.264a.525.525,0,0,1,.576.718q-.113.929-.226,1.858c-.609.475-1.2-1.022-1.954-.873-.335.066-.506.427-.69.715-1.567,2.456-4.3.616-5.763-.661-1.7-1.482-4.159-1.578-6.416-1.6a3.072,3.072,0,0,0-2.272.6c-.562.559-.593,1.443-.877,2.193-.484,1.3-1.728,2.145-2.432,3.339-2.46,4.172,1.962,7.379,5.723,6.244,1.949-.588,1.614-.929,3.606-.357.831.239,1.848.034,2.358.956a1.553,1.553,0,0,1-1.356,2.259,6.622,6.622,0,0,1-3.2-.372c.379,1.317-.038,2.821-.144,4.222a1.842,1.842,0,0,0-1.967,2.461c.635.01,1.493.248,1.44.881a1.059,1.059,0,0,1-.223.5c-.442.635-1.009,1.183-1.389,1.859-.583,1.039-.579,4.151-2.068,4.524-.261.066-.541.044-.8.126a1.2,1.2,0,0,0-.729,1.391,1.626,1.626,0,0,0,1.179,1.142c.37.1.766.089,1.128.215,1.922.67.234,2.568.7,3.508a17.038,17.038,0,0,0,3.833,2.551,4.529,4.529,0,0,0-2.165,3.416c-.046,1.564,1.144,2.323,2.631,2.787,1.572.491,3.475.654,4.607,1.091a1.936,1.936,0,0,0,1.863.049c.64-.505.5-1.695,1.238-2.041a2.25,2.25,0,0,1,.761-.124,2.867,2.867,0,0,0,2.448-3.227c.35-.455,1.031-.412,1.605-.4s1.3-.173,1.384-.741c.1-.653-.741-1.016-1.4-1.055a7.276,7.276,0,0,0-2.007.16,2.384,2.384,0,0,1-1.478.06,1.917,1.917,0,0,1-.773-.813,4.394,4.394,0,0,1-.819-2.573,1.872,1.872,0,0,1,1.727-1.791,3.708,3.708,0,0,0,.734.044c.623-.1.893-.867.856-1.5a5.716,5.716,0,0,1-.079-1.88c.172-.607,1.015-1.059,1.434-.588.354-.806.588-1.981-.2-2.37a2.381,2.381,0,0,0-.831-.144c-1.738-.163-4.088-2.517-2.156-3.856,1.27-.881,3.321.956,4.438-.712.534-.8.2-1.959.752-2.747.325-.234.7.239.777.633a3.713,3.713,0,0,1-1.212,3.42c.977.57,2.522-.081,3.186.836s-.315,2.476.55,3.182a1.8,1.8,0,0,0,.9.3c1.564.231,4.484-.035,4.58,2.205a3.267,3.267,0,0,0,.049.811c.241.788,1.313.863,2.134.782.422-.807-.128-1.749-.493-2.583s-.339-2.113.548-2.321c.635-.15,1.374.4,1.909.023.247-.173.362-.5.629-.645.645-.343,1.191.652,1.888.874.96.306,1.687-.953,1.688-1.961s-.25-2.155.407-2.919c.208-.242.487-.412.717-.634a4.276,4.276,0,0,0,.944-2.727c.159-1.562,6.325,2.484,6.714,2.549,2.964.494,4.784-2.445,6.815-4.055a18.1,18.1,0,0,1,3.538-2,82,82,0,0,0-58.856-55,26.285,26.285,0,0,0-3.774-.731c.383,1.889,1.55,4.872.282,6.665-1.609,2.278-5.018.284-6.272,2.955-.042.681,1.094.57,1.619,1.006a2.368,2.368,0,0,1,.51,1c.145.351.485.705.848.6.423.631-.236,1.406-.794,1.919a4.949,4.949,0,0,0-1.521,2.162c-.519,1.786.655,3.56,1.408,5.26a24.433,24.433,0,0,1,1.319,4.411c.011-.711,1.017-1,1.651-.674a7.294,7.294,0,0,1,1.534,1.464c.875.839,2.006.33,2.949,1.048,1.173.887,1.922,2.483,3.37,2.723,1.755.3,3.03-1.577,3.809-3.172,1.928,1.022,3.121,3.487,5.3,3.649a5.6,5.6,0,0,0,2.431-.56q2.4-.942,4.787-1.887a2.983,2.983,0,0,1,2.061-.285,3.016,3.016,0,0,1,1.508,1.9l1.033,2.511a1.823,1.823,0,0,1,.192,1.083,1.6,1.6,0,0,1-.767.871,8.651,8.651,0,0,1-6.2,1.267,35.056,35.056,0,0,0,1.692,8.516c-1.63-.422-3.507.122-5.016-.507" fill="#407bff"/>
            </g>
          </g>
        </g>
        <g id="Group_423" data-name="Group 423" style="mix-blend-mode: normal;isolation: isolate">
          <g id="Group_422" data-name="Group 422">
            <g id="Group_421" data-name="Group 421" clip-path="url(#clip-path-8)">
              <path id="Path_497" data-name="Path 497" d="M266.439,195.577a3.228,3.228,0,0,1-2.452,1.259,15.4,15.4,0,0,1-1.725-.326,1.592,1.592,0,0,0-1.579.523c-.409.627-.022,1.45.365,2.09a2.458,2.458,0,0,0,1.265,1.25,11.915,11.915,0,0,0,1.328.073c.868.143,1.425.963,2,1.628s1.518,1.264,2.285.832c.505-.284.722-.921,1.212-1.23,1.195-.753,2.665.883,3.748.266,1.283-.731.813-2.82.281-4a10.784,10.784,0,0,0-2.552-3c-2.6-2.522-2.236-1.682-4.178.633" fill="#407bff"/>
            </g>
          </g>
        </g>
        <g id="Group_426" data-name="Group 426" style="mix-blend-mode: normal;isolation: isolate">
          <g id="Group_425" data-name="Group 425">
            <g id="Group_424" data-name="Group 424" clip-path="url(#clip-path-9)">
              <path id="Path_498" data-name="Path 498" d="M306.976,229.272c12.789-12.673,20.268-31.143,21.736-48.9.041-.494.076-.989.11-1.477-2.466-2.544-7.379-4.166-8.665.408-.507-.036-.61-.338-1-.624-.606-.45-1.458.16-1.8.834-1.114,2.21-1.269,4.983-4.331,4.388-3.653-.711-1.176-2.275-2.366-4.289a4.169,4.169,0,0,0-.712-.718c-.873-.884-.757-2.311-.582-3.54a1.416,1.416,0,0,0,1.919-.8,2.254,2.254,0,0,1,.283-.839c.413-.489,1.266-.031,1.464.577a17.884,17.884,0,0,1,.179,1.9c.132.626.816,1.24,1.362.907a1.11,1.11,0,0,0,.428-.656,3.477,3.477,0,0,0-.626-3.169,1.4,1.4,0,0,0-.06-2.723c-.889-.2-2.16.33-2.52-.506a2.021,2.021,0,0,1-.783,1.954c-2.358,1.713-7.662.187-7.133,5.21a19.221,19.221,0,0,1,.348,2.4,1.854,1.854,0,0,1-1.261,1.864c1.432,1.155.908,3.8,2.446,4.809a1.952,1.952,0,0,0,2.385-.253.907.907,0,0,1,.336-.264c.28-.087.54.177.827.238.5.107.93-.409,1.439-.438.709-.04,1.1.81,1.222,1.509s.314,1.557,1,1.749c.233.065.485.033.718.1a1.212,1.212,0,0,1,.78,1.13,3.569,3.569,0,0,1-.324,1.419c-.295.3-.822.116-1.107-.192a8.05,8.05,0,0,0-.785-.979c-.184-.145-4.433.182-4.3-.127-.632,1.464-.95,4.665-3.147,3.849-.775-.288-1.566-.812-2.358-.576q.564-1.551,1.094-3.115c-.322-.284-.82.106-.956.513s-.159.9-.5,1.158a1.371,1.371,0,0,1-.869.177l-2.941-.058c-1.063-.02-2.288.03-2.951.862-.754.946-.32,2.4.484,3.3a1.111,1.111,0,0,1,.4.745,1.088,1.088,0,0,1-.424.642,4.393,4.393,0,0,0-1.443,3.724,2.865,2.865,0,0,0,2.862,2.458c.531-.048,1.189-.226,1.5.205.184.253.178.662.463.791.359.162.661-.288.918-.586a1.584,1.584,0,0,1,1.941-.314c.313.186,1.294,3.2,1.038,3.643-.587,1.006-3.37.61-4.459.658a1.584,1.584,0,0,0-1.166.378c-.431.5-.082,1.286.4,1.733s1.111.794,1.351,1.4a2.749,2.749,0,0,1,.106,1.133,2.887,2.887,0,0,1-.7,2.141c-.275.235-.632.358-.908.593a2.241,2.241,0,0,0-.454,2.3c.219.8.646,1.532.8,2.344.324,1.728-.624,3.6.062,5.222.332.782,1.366,1.406,2.013.856.559-.476.554-1.6,1.283-1.682.7-.079,1.564,1.683,2.144,2.026.459.271,1.385-.176,2.228.434.685.5.823,1.589,1.56,2.127" fill="#407bff"/>
            </g>
          </g>
        </g>
        <g id="Group_429" data-name="Group 429" style="mix-blend-mode: normal;isolation: isolate">
          <g id="Group_428" data-name="Group 428">
            <g id="Group_427" data-name="Group 427" clip-path="url(#clip-path-10)">
              <path id="Path_499" data-name="Path 499" d="M198.424,120.963c.719-.915,1.172-1.968,2.522-2.2,1.839-.32,2.535.71,1.73,2.454a.776.776,0,0,0-.108.491c.126.531.92.222,1.373-.084a3.658,3.658,0,0,1,3.529-.17c.268.118.766-4.928.5-5.507-.918-2.029-5.169-1.073-4.3-3.281,1.591-.033,3.221.174,4.818.29q.132-1.151.263-2.3c-.065.572,2.906.454,3.243.282,1.308-.663.954-3.046,3.3-2.658,2.971.49,3.141,6.328-.238,5.375a15.159,15.159,0,0,0-1.2,5.657c-.611,0-1.228-.012-1.838-.021a1.663,1.663,0,0,0-.225,1.486,4.594,4.594,0,0,0,5.071.048c.963.738,2.328.03,3.321-.672,1.391,2.236,5.377,1.924,6.4-.5s-1.528-5.507-4.1-4.947a5.891,5.891,0,0,0-1.254-3.393,7.7,7.7,0,0,0,7.347-5.09c.516-1.522.632-3.363,1.916-4.33.569-.432,1.291-.612,1.887-1.006,1.332-.9,1.723-2.65,1.932-4.244q.2-1.6.3-3.21a81.352,81.352,0,0,0-48.182,26.794,3.228,3.228,0,0,0,.121,1.658,3.536,3.536,0,0,0,2.547,1.577c3.9,1.03,6.393.805,9.1-2.227.078-.087.151-.176.222-.266" fill="#407bff"/>
            </g>
          </g>
        </g>
        <g id="Group_447" data-name="Group 447" opacity="0.4">
          <g id="Group_446" data-name="Group 446">
            <g id="Group_445" data-name="Group 445" clip-path="url(#clip-path-11)">
              <g id="Group_432" data-name="Group 432" style="mix-blend-mode: normal;isolation: isolate">
                <g id="Group_431" data-name="Group 431">
                  <g id="Group_430" data-name="Group 430" clip-path="url(#clip-path-6)">
                    <path id="Path_500" data-name="Path 500" d="M186.815,193.5c-.263,1.511-2.184,2.054-3.733,2.249q-3.486.431-6.973.868c-1.1-2.889-4.517-2.914-6.922-1.789A81.32,81.32,0,0,0,241,254.686q4.035.333,7.994.272a2.27,2.27,0,0,0,.13-.2c1.211-2.13-.546-4.016-1.486-5.763-.213-.4-2.205-5.43-1.544-5.444a21.506,21.506,0,0,1-6.332-.818.648.648,0,0,1-.407-.242c-.192-.333.271-.657.645-.745.957-.225,1.952-.277,2.894-.559a3.329,3.329,0,0,0,2.234-1.768c.367-.917.1-1.968.306-2.933a4.046,4.046,0,0,1,2.3-2.627,13.312,13.312,0,0,1,3.358-.9c-2.456-1.337-.669-4.123-2.6-5.985-.619-.6-1.521-1.329-1.141-2.1.362-.734,1.661-.723,1.823-1.525.113-.562-.478-1.024-1.037-1.15a6.161,6.161,0,0,1-1.67-.359,1.494,1.494,0,0,1-.472-2.086c.42-.589,1.2-.77,1.834-1.11s1.214-1.127.83-1.74a1.125,1.125,0,0,0-.369-.347c-1.041-.644-2.4-.106-3.419.575s-2.048,1.539-3.272,1.526a1.018,1.018,0,0,1,.4-1.382,1.684,1.684,0,0,0,.5-.256c.285-.291.071-.772-.124-1.13a7.325,7.325,0,0,1-.561-5.583l7.443.142c.062-.558.123-.891.713-1.059a77.634,77.634,0,0,1-4.953-6,1.506,1.506,0,0,0-.664-.642,4.773,4.773,0,0,0-.975-.049c-1.074-.147-1.248-1.614-1.138-2.692-.15-.327-.679-.186-.877.115s-.244.692-.486.958a1.38,1.38,0,0,1-1.507.163,3.577,3.577,0,0,1-1.888-4.636,1.078,1.078,0,0,1,.407-.515c.424-.243.939.056,1.42.143,1.9.341,1.61-1.758,1.153-2.75-.62-1.346-2.469-2.213-3.812-2.557-1.569-.4-12.037-2.4-10.312-5.816a1.578,1.578,0,0,1,.807-.68,23.857,23.857,0,0,1,3.2-.61c1.048-.295,2.065-1.385,1.608-2.373-.183-.4-.563-.669-.775-1.051-.59-1.063.32-2.443-.1-3.585a9.853,9.853,0,0,0-.919-1.4c-.281-.483-.327-1.213.151-1.5.535-.325,1.269.158,1.841-.1a.982.982,0,0,0,.012-1.623,1.692,1.692,0,0,0-1.851.137,2.249,2.249,0,0,1-.894.494c-.611.081-1.068-.527-1.38-1.059l-1.486-2.537a1.438,1.438,0,0,0-1.181,1.051c-.192.526-.229,1.1-.447,1.623-1.052,2.508-4.87,2.209-4.375,5.641a1.629,1.629,0,0,1,1.657,2.02c-.4,1.214-2.222,1.88-1.966,3.133.089.435.435.788.505,1.227.193,1.212-1.681,1.657-2.486,1.933-2.668.915-2.85-.837-5.162-.941-1.058-.048-2.008.666-3.061.782-.968.106-1.931-.3-2.9-.247-2.675.156-1.334,3.781-1.145,5.357-1.436-.958-3.356.16-4.5,1.449-1.757,1.982-1.593,1.632-3.918,1.72a1.691,1.691,0,0,0-1.507.888c-.432.979.488,2.032.511,3.1.011.513-.188,1.018-.141,1.529.124,1.342,1.714,1.927,2.678,2.868a3.687,3.687,0,0,1,1.031,3.238,7.739,7.739,0,0,1-2.054-.146l-1.207-2.331a5.053,5.053,0,0,0-1.358-1.856,4.169,4.169,0,0,1-1.032-.779c-.506-.7-.1-1.652.024-2.5.292-2.069-.748-5.551-1.255-7.6-.539-2.187-1.992-3.048-2.52-5.068a.632.632,0,0,0-.91-.29,1.394,1.394,0,0,0-.576.906,3.82,3.82,0,0,0,.22,2.5c-.462-1.02-3.042,1.663-3.2,2.173-.255.834.3,2.024.277,2.891-.053,2.15-.573,3.359-2.795,1.777-.85-.606-1.938-1.319-2.839-.793a1.344,1.344,0,0,1-.749,1.52,2.834,2.834,0,0,1-1.808.137,1.8,1.8,0,0,1-1.1-.533,3,3,0,0,0-.4-.528c-.57-.444-1.29.326-1.6.979" fill="#fff"/>
                  </g>
                </g>
              </g>
              <g id="Group_435" data-name="Group 435" style="mix-blend-mode: normal;isolation: isolate">
                <g id="Group_434" data-name="Group 434">
                  <g id="Group_433" data-name="Group 433" clip-path="url(#clip-path-7)">
                    <path id="Path_501" data-name="Path 501" d="M285.028,129.579c.449.7-.025,1.622-.538,2.281s-1.111,1.434-.887,2.239l2.895.264a.525.525,0,0,1,.576.718q-.113.929-.226,1.858c-.609.475-1.2-1.022-1.954-.873-.335.066-.506.427-.69.715-1.567,2.456-4.3.616-5.763-.661-1.7-1.482-4.159-1.578-6.416-1.6a3.072,3.072,0,0,0-2.272.6c-.562.559-.593,1.443-.877,2.193-.484,1.3-1.728,2.145-2.432,3.339-2.46,4.172,1.962,7.379,5.723,6.244,1.949-.588,1.614-.929,3.606-.357.831.239,1.848.034,2.358.956a1.553,1.553,0,0,1-1.356,2.259,6.622,6.622,0,0,1-3.2-.372c.379,1.317-.038,2.821-.144,4.222a1.842,1.842,0,0,0-1.967,2.461c.635.01,1.493.248,1.44.881a1.059,1.059,0,0,1-.223.5c-.442.635-1.009,1.183-1.389,1.859-.583,1.039-.579,4.151-2.068,4.524-.261.066-.541.044-.8.126a1.2,1.2,0,0,0-.729,1.391,1.626,1.626,0,0,0,1.179,1.142c.37.1.766.089,1.128.215,1.922.67.234,2.568.7,3.508a17.038,17.038,0,0,0,3.833,2.551,4.529,4.529,0,0,0-2.165,3.416c-.046,1.564,1.144,2.323,2.631,2.787,1.572.491,3.475.654,4.607,1.091a1.936,1.936,0,0,0,1.863.049c.64-.505.5-1.695,1.238-2.041a2.25,2.25,0,0,1,.761-.124,2.867,2.867,0,0,0,2.448-3.227c.35-.455,1.031-.412,1.605-.4s1.3-.173,1.384-.741c.1-.653-.741-1.016-1.4-1.055a7.276,7.276,0,0,0-2.007.16,2.384,2.384,0,0,1-1.478.06,1.917,1.917,0,0,1-.773-.813,4.394,4.394,0,0,1-.819-2.573,1.872,1.872,0,0,1,1.727-1.791,3.708,3.708,0,0,0,.734.044c.623-.1.893-.867.856-1.5a5.716,5.716,0,0,1-.079-1.88c.172-.607,1.015-1.059,1.434-.588.354-.806.588-1.981-.2-2.37a2.381,2.381,0,0,0-.831-.144c-1.738-.163-4.088-2.517-2.156-3.856,1.27-.881,3.321.956,4.438-.712.534-.8.2-1.959.752-2.747.325-.234.7.239.777.633a3.713,3.713,0,0,1-1.212,3.42c.977.57,2.522-.081,3.186.836s-.315,2.476.55,3.182a1.8,1.8,0,0,0,.9.3c1.564.231,4.484-.035,4.58,2.205a3.267,3.267,0,0,0,.049.811c.241.788,1.313.863,2.134.782.422-.807-.128-1.749-.493-2.583s-.339-2.113.548-2.321c.635-.15,1.374.4,1.909.023.247-.173.362-.5.629-.645.645-.343,1.191.652,1.888.874.96.306,1.687-.953,1.688-1.961s-.25-2.155.407-2.919c.208-.242.487-.412.717-.634a4.276,4.276,0,0,0,.944-2.727c.159-1.562,6.325,2.484,6.714,2.549,2.964.494,4.784-2.445,6.815-4.055a18.1,18.1,0,0,1,3.538-2,82,82,0,0,0-58.856-55,26.285,26.285,0,0,0-3.774-.731c.383,1.889,1.55,4.872.282,6.665-1.609,2.278-5.018.284-6.272,2.955-.042.681,1.094.57,1.619,1.006a2.368,2.368,0,0,1,.51,1c.145.351.485.705.848.6.423.631-.236,1.406-.794,1.919a4.949,4.949,0,0,0-1.521,2.162c-.519,1.786.655,3.56,1.408,5.26a24.433,24.433,0,0,1,1.319,4.411c.011-.711,1.017-1,1.651-.674a7.294,7.294,0,0,1,1.534,1.464c.875.839,2.006.33,2.949,1.048,1.173.887,1.922,2.483,3.37,2.723,1.755.3,3.03-1.577,3.809-3.172,1.928,1.022,3.121,3.487,5.3,3.649a5.6,5.6,0,0,0,2.431-.56q2.4-.942,4.787-1.887a2.983,2.983,0,0,1,2.061-.285,3.016,3.016,0,0,1,1.508,1.9l1.033,2.511a1.823,1.823,0,0,1,.192,1.083,1.6,1.6,0,0,1-.767.871,8.651,8.651,0,0,1-6.2,1.267,35.056,35.056,0,0,0,1.692,8.516c-1.63-.422-3.507.122-5.016-.507" fill="#fff"/>
                  </g>
                </g>
              </g>
              <g id="Group_438" data-name="Group 438" style="mix-blend-mode: normal;isolation: isolate">
                <g id="Group_437" data-name="Group 437">
                  <g id="Group_436" data-name="Group 436" clip-path="url(#clip-path-8)">
                    <path id="Path_502" data-name="Path 502" d="M266.439,195.577a3.228,3.228,0,0,1-2.452,1.259,15.4,15.4,0,0,1-1.725-.326,1.592,1.592,0,0,0-1.579.523c-.409.627-.022,1.45.365,2.09a2.458,2.458,0,0,0,1.265,1.25,11.915,11.915,0,0,0,1.328.073c.868.143,1.425.963,2,1.628s1.518,1.264,2.285.832c.505-.284.722-.921,1.212-1.23,1.195-.753,2.665.883,3.748.266,1.283-.731.813-2.82.281-4a10.784,10.784,0,0,0-2.552-3c-2.6-2.522-2.236-1.682-4.178.633" fill="#fff"/>
                  </g>
                </g>
              </g>
              <g id="Group_441" data-name="Group 441" style="mix-blend-mode: normal;isolation: isolate">
                <g id="Group_440" data-name="Group 440">
                  <g id="Group_439" data-name="Group 439" clip-path="url(#clip-path-9)">
                    <path id="Path_503" data-name="Path 503" d="M306.976,229.272c12.789-12.673,20.268-31.143,21.736-48.9.041-.494.076-.989.11-1.477-2.466-2.544-7.379-4.166-8.665.408-.507-.036-.61-.338-1-.624-.606-.45-1.458.16-1.8.834-1.114,2.21-1.269,4.983-4.331,4.388-3.653-.711-1.176-2.275-2.366-4.289a4.169,4.169,0,0,0-.712-.718c-.873-.884-.757-2.311-.582-3.54a1.416,1.416,0,0,0,1.919-.8,2.254,2.254,0,0,1,.283-.839c.413-.489,1.266-.031,1.464.577a17.884,17.884,0,0,1,.179,1.9c.132.626.816,1.24,1.362.907a1.11,1.11,0,0,0,.428-.656,3.477,3.477,0,0,0-.626-3.169,1.4,1.4,0,0,0-.06-2.723c-.889-.2-2.16.33-2.52-.506a2.021,2.021,0,0,1-.783,1.954c-2.358,1.713-7.662.187-7.133,5.21a19.221,19.221,0,0,1,.348,2.4,1.854,1.854,0,0,1-1.261,1.864c1.432,1.155.908,3.8,2.446,4.809a1.952,1.952,0,0,0,2.385-.253.907.907,0,0,1,.336-.264c.28-.087.54.177.827.238.5.107.93-.409,1.439-.438.709-.04,1.1.81,1.222,1.509s.314,1.557,1,1.749c.233.065.485.033.718.1a1.212,1.212,0,0,1,.78,1.13,3.569,3.569,0,0,1-.324,1.419c-.295.3-.822.116-1.107-.192a8.05,8.05,0,0,0-.785-.979c-.184-.145-4.433.182-4.3-.127-.632,1.464-.95,4.665-3.147,3.849-.775-.288-1.566-.812-2.358-.576q.564-1.551,1.094-3.115c-.322-.284-.82.106-.956.513s-.159.9-.5,1.158a1.371,1.371,0,0,1-.869.177l-2.941-.058c-1.063-.02-2.288.03-2.951.862-.754.946-.32,2.4.484,3.3a1.111,1.111,0,0,1,.4.745,1.088,1.088,0,0,1-.424.642,4.393,4.393,0,0,0-1.443,3.724,2.865,2.865,0,0,0,2.862,2.458c.531-.048,1.189-.226,1.5.205.184.253.178.662.463.791.359.162.661-.288.918-.586a1.584,1.584,0,0,1,1.941-.314c.313.186,1.294,3.2,1.038,3.643-.587,1.006-3.37.61-4.459.658a1.584,1.584,0,0,0-1.166.378c-.431.5-.082,1.286.4,1.733s1.111.794,1.351,1.4a2.749,2.749,0,0,1,.106,1.133,2.887,2.887,0,0,1-.7,2.141c-.275.235-.632.358-.908.593a2.241,2.241,0,0,0-.454,2.3c.219.8.646,1.532.8,2.344.324,1.728-.624,3.6.062,5.222.332.782,1.366,1.406,2.013.856.559-.476.554-1.6,1.283-1.682.7-.079,1.564,1.683,2.144,2.026.459.271,1.385-.176,2.228.434.685.5.823,1.589,1.56,2.127" fill="#fff"/>
                  </g>
                </g>
              </g>
              <g id="Group_444" data-name="Group 444" style="mix-blend-mode: normal;isolation: isolate">
                <g id="Group_443" data-name="Group 443">
                  <g id="Group_442" data-name="Group 442" clip-path="url(#clip-path-10)">
                    <path id="Path_504" data-name="Path 504" d="M198.424,120.963c.719-.915,1.172-1.968,2.522-2.2,1.839-.32,2.535.71,1.73,2.454a.776.776,0,0,0-.108.491c.126.531.92.222,1.373-.084a3.658,3.658,0,0,1,3.529-.17c.268.118.766-4.928.5-5.507-.918-2.029-5.169-1.073-4.3-3.281,1.591-.033,3.221.174,4.818.29q.132-1.151.263-2.3c-.065.572,2.906.454,3.243.282,1.308-.663.954-3.046,3.3-2.658,2.971.49,3.141,6.328-.238,5.375a15.159,15.159,0,0,0-1.2,5.657c-.611,0-1.228-.012-1.838-.021a1.663,1.663,0,0,0-.225,1.486,4.594,4.594,0,0,0,5.071.048c.963.738,2.328.03,3.321-.672,1.391,2.236,5.377,1.924,6.4-.5s-1.528-5.507-4.1-4.947a5.891,5.891,0,0,0-1.254-3.393,7.7,7.7,0,0,0,7.347-5.09c.516-1.522.632-3.363,1.916-4.33.569-.432,1.291-.612,1.887-1.006,1.332-.9,1.723-2.65,1.932-4.244q.2-1.6.3-3.21a81.352,81.352,0,0,0-48.182,26.794,3.228,3.228,0,0,0,.121,1.658,3.536,3.536,0,0,0,2.547,1.577c3.9,1.03,6.393.805,9.1-2.227.078-.087.151-.176.222-.266" fill="#fff"/>
                  </g>
                </g>
              </g>
            </g>
          </g>
        </g>
      </g>
    </g>
    <g id="Group_568" data-name="Group 568">
      <g id="Group_567" data-name="Group 567" clip-path="url(#clip-path)">
        <path id="Path_505" data-name="Path 505" d="M50.234,88.843A11.911,11.911,0,1,0,62.145,76.932,11.9,11.9,0,0,0,50.234,88.843" fill="#407bff"/>
        <g id="Group_452" data-name="Group 452" opacity="0.3">
          <g id="Group_451" data-name="Group 451">
            <g id="Group_450" data-name="Group 450" clip-path="url(#clip-path-18)">
              <path id="Path_506" data-name="Path 506" d="M50.912,88.844A11.232,11.232,0,1,0,62.144,77.612,11.232,11.232,0,0,0,50.912,88.844" fill="#fff"/>
            </g>
          </g>
        </g>
        <path id="Path_507" data-name="Path 507" d="M55.468,88.655a1.813,1.813,0,0,0,1.378,1.664,2.559,2.559,0,0,0,.049,1.664c.336.914,2.173.914,2.173.914a.938.938,0,0,0,.834.563c.04.054.084.1.119.143.079.119.168.242.262.361.227,1.807.182,3.713-.7,4.681,0,.005.015.01.02.02-.77.084-1.546.187-2.311.311-.365.054-.731.118-1.091.188a11.9,11.9,0,0,0,13.284-.944c-.341-.005-.726-.01-1.146-.01-.622,0-1.323,0-2.089.02a.172.172,0,0,0-.02-.044,2.434,2.434,0,0,1-2.163-1.58,3.5,3.5,0,0,1-.143-1.235,3.924,3.924,0,0,0,.988-.326,4.089,4.089,0,0,0,2.024-2.217,3.741,3.741,0,0,0,.139-.415,10.42,10.42,0,0,0,.256-3.546,1.666,1.666,0,0,0,.81-1.145,1.225,1.225,0,0,0-.844-1.5,1.6,1.6,0,0,0,1.225-1.669,1.271,1.271,0,0,0-1.225-1.476s.434-.627-.41-1.793a1.5,1.5,0,0,0-2.01-.449,2.341,2.341,0,0,0-2.336-1.057,2.543,2.543,0,0,0-1.822,1.2s0-.854-1.649-.38a2.233,2.233,0,0,0-1.447,2.375,1.21,1.21,0,0,0-1.679.627c-.573,1.19.667,3.274.667,3.274a1.621,1.621,0,0,0-1.141,1.778" fill="#407bff"/>
        <g id="Group_455" data-name="Group 455" opacity="0.7">
          <g id="Group_454" data-name="Group 454">
            <g id="Group_453" data-name="Group 453" clip-path="url(#clip-path-19)">
              <path id="Path_508" data-name="Path 508" d="M50.234,88.843A11.911,11.911,0,1,0,62.145,76.932,11.9,11.9,0,0,0,50.234,88.843" fill="#fff"/>
            </g>
          </g>
        </g>
        <path id="Path_509" data-name="Path 509" d="M66.7,298.032a10.587,10.587,0,1,1-10.588-10.587A10.588,10.588,0,0,1,66.7,298.032" fill="#407bff"/>
        <g id="Group_458" data-name="Group 458" opacity="0.3">
          <g id="Group_457" data-name="Group 457">
            <g id="Group_456" data-name="Group 456" clip-path="url(#clip-path-20)">
              <path id="Path_510" data-name="Path 510" d="M66.1,298.033a9.984,9.984,0,1,1-9.986-9.986,9.942,9.942,0,0,1,9.986,9.986" fill="#fff"/>
            </g>
          </g>
        </g>
        <path id="Path_511" data-name="Path 511" d="M64,304.152a9.99,9.99,0,0,1-13.515,2.129c.333-.76.544-1.212.544-1.212a29.321,29.321,0,0,1,3.8-.935,2.957,2.957,0,0,1,1.309-.649,3.841,3.841,0,0,0-.075-2.274,3.937,3.937,0,0,1-1.018-1.005,2.793,2.793,0,0,1-.54-.531c-.308-.128-2.432-1.115-2.542-4.6,0-.145,0-.285.009-.426-.658-.066-1.343.141-.869,1.479.821,2.309-.04,3.521-.04,3.521a8.953,8.953,0,0,0-.074-1.528c0,2.388-1.291,2.542-1.291,2.542s.821-.861-.391-3.516-.86-6.255,1.445-6.409a3.01,3.01,0,0,1,2.55,1.071,3.863,3.863,0,0,1,4.525-.527s2.072-.5,2.656.04c.127.118.031.391-.219.751a2.7,2.7,0,0,1,1.158,1.711,4.093,4.093,0,0,1-.566,3.244c.277,2.625-.171,4.592-2.256,4.776,0,.066-.009.132-.013.193-.005.092-.009.184-.009.268a3.152,3.152,0,0,0,.145,1.119,5.834,5.834,0,0,1,.873.237c1.87,0,3.96.2,3.96.2l.022.013a2.788,2.788,0,0,1,.421.316" fill="#407bff"/>
        <g id="Group_461" data-name="Group 461" opacity="0.7">
          <g id="Group_460" data-name="Group 460">
            <g id="Group_459" data-name="Group 459" clip-path="url(#clip-path-21)">
              <path id="Path_512" data-name="Path 512" d="M66.7,298.032a10.587,10.587,0,1,1-10.588-10.587A10.588,10.588,0,0,1,66.7,298.032" fill="#fff"/>
            </g>
          </g>
        </g>
        <path id="Path_513" data-name="Path 513" d="M455.575,215.32a11.686,11.686,0,1,1-11.686-11.686,11.686,11.686,0,0,1,11.686,11.686" fill="#407bff"/>
        <g id="Group_464" data-name="Group 464" opacity="0.3">
          <g id="Group_463" data-name="Group 463">
            <g id="Group_462" data-name="Group 462" clip-path="url(#clip-path-22)">
              <path id="Path_514" data-name="Path 514" d="M454.907,215.32A11.018,11.018,0,1,1,443.89,204.3a10.947,10.947,0,0,1,11.017,11.017" fill="#fff"/>
            </g>
          </g>
        </g>
        <path id="Path_515" data-name="Path 515" d="M453.061,221.424a11,11,0,0,1-15.92,2.6,6.171,6.171,0,0,1,.063-1.807c.135-1.347,1.69-2.432,1.662-3.377s-1.594-2.161-.582-2.7,1.231-2.64.417-3.818a2.565,2.565,0,0,1,.063-3.58,4.662,4.662,0,0,1,3-1.632,5.52,5.52,0,0,1,3.26-.47,6.9,6.9,0,0,1,3.241,1.1,4.718,4.718,0,0,1,1.686,2.079,6.58,6.58,0,0,1,.349,4.772c-.552,1.575,1.9,1.482,1.967,2.931s-1.148,1.526-.935,2.495c.1.446.94.863,1.725,1.409" fill="#407bff"/>
        <g id="Group_467" data-name="Group 467" opacity="0.7">
          <g id="Group_466" data-name="Group 466">
            <g id="Group_465" data-name="Group 465" clip-path="url(#clip-path-23)">
              <path id="Path_516" data-name="Path 516" d="M455.575,215.32a11.686,11.686,0,1,1-11.686-11.686,11.686,11.686,0,0,1,11.686,11.686" fill="#fff"/>
            </g>
          </g>
        </g>
        <rect id="Rectangle_980" data-name="Rectangle 980" width="97.223" height="0.999" transform="translate(304.089 137.382) rotate(-23.41)" fill="#407bff"/>
        <rect id="Rectangle_981" data-name="Rectangle 981" width="1.001" height="72.459" transform="matrix(0.85, -0.526, 0.526, 0.85, 180.619, 48.09)" fill="#407bff"/>
        <rect id="Rectangle_982" data-name="Rectangle 982" width="101.09" height="1" transform="translate(94.434 232.315) rotate(-11.827)" fill="#407bff"/>
        <g id="Group_470" data-name="Group 470" opacity="0.8">
          <g id="Group_469" data-name="Group 469">
            <g id="Group_468" data-name="Group 468" clip-path="url(#clip-path-24)">
              <rect id="Rectangle_983" data-name="Rectangle 983" width="97.223" height="0.999" transform="translate(304.089 137.382) rotate(-23.41)" fill="#fff"/>
            </g>
          </g>
        </g>
        <rect id="Rectangle_985" data-name="Rectangle 985" width="1.001" height="107.228" transform="translate(315.305 196.287) rotate(-32.068)" fill="#407bff"/>
        <g id="Group_473" data-name="Group 473" opacity="0.8">
          <g id="Group_472" data-name="Group 472">
            <g id="Group_471" data-name="Group 471" clip-path="url(#clip-path-25)">
              <rect id="Rectangle_986" data-name="Rectangle 986" width="1.001" height="107.228" transform="translate(315.305 196.287) rotate(-32.068)" fill="#fff"/>
            </g>
          </g>
        </g>
        <g id="Group_476" data-name="Group 476" opacity="0.8">
          <g id="Group_475" data-name="Group 475">
            <g id="Group_474" data-name="Group 474" clip-path="url(#clip-path-26)">
              <rect id="Rectangle_988" data-name="Rectangle 988" width="1.001" height="72.459" transform="matrix(0.85, -0.526, 0.526, 0.85, 180.619, 48.09)" fill="#fff"/>
            </g>
          </g>
        </g>
        <g id="Group_479" data-name="Group 479" opacity="0.8">
          <g id="Group_478" data-name="Group 478">
            <g id="Group_477" data-name="Group 477" clip-path="url(#clip-path-27)">
              <rect id="Rectangle_990" data-name="Rectangle 990" width="101.09" height="1" transform="translate(94.434 232.315) rotate(-11.827)" fill="#fff"/>
            </g>
          </g>
        </g>
        <path id="Path_517" data-name="Path 517" d="M190.876,324.049,94,232.98l13.7-103.589.1-.114,72.989-81.92.183-.025L313.251,29.039l80.771,69.943-.027.262L373.116,287.306l-.358.072ZM95.063,232.6l96.123,90.364L372.2,286.47,392.971,99.395l-80.032-69.3L181.3,48.3l-72.642,81.53Z" fill="#407bff"/>
        <g id="Group_482" data-name="Group 482" opacity="0.8">
          <g id="Group_481" data-name="Group 481">
            <g id="Group_480" data-name="Group 480" clip-path="url(#clip-path-28)">
              <path id="Path_518" data-name="Path 518" d="M190.876,324.049,94,232.98l13.7-103.589.1-.114,72.989-81.92.183-.025L313.251,29.039l80.771,69.943-.027.262L373.116,287.306l-.358.072ZM95.063,232.6l96.123,90.364L372.2,286.47,392.971,99.395l-80.032-69.3L181.3,48.3l-72.642,81.53Z" fill="#fff"/>
            </g>
          </g>
        </g>
        <path id="Path_519" data-name="Path 519" d="M220.682,109.437l-1.5,8.756-1.5-8.756Z" fill="#407bff"/>
        <path id="Path_520" data-name="Path 520" d="M223.524,109.437a4.342,4.342,0,1,1-4.342-4.342,4.342,4.342,0,0,1,4.342,4.342" fill="#407bff"/>
        <g id="Group_485" data-name="Group 485" opacity="0.3">
          <g id="Group_484" data-name="Group 484">
            <g id="Group_483" data-name="Group 483" clip-path="url(#clip-path-29)">
              <path id="Path_521" data-name="Path 521" d="M219.606,106.375c.483.635.1,1.738-.852,2.464s-2.119.8-2.6.167-.1-1.738.852-2.464,2.119-.8,2.6-.167" fill="#fff"/>
            </g>
          </g>
        </g>
        <path id="Path_522" data-name="Path 522" d="M305.8,137.866l-1.5,8.756-1.5-8.756Z" fill="#407bff"/>
        <path id="Path_523" data-name="Path 523" d="M308.64,137.866a4.342,4.342,0,1,1-4.342-4.342,4.342,4.342,0,0,1,4.342,4.342" fill="#407bff"/>
        <g id="Group_488" data-name="Group 488" opacity="0.3">
          <g id="Group_487" data-name="Group 487">
            <g id="Group_486" data-name="Group 486" clip-path="url(#clip-path-30)">
              <path id="Path_524" data-name="Path 524" d="M304.723,134.8c.483.635.1,1.738-.852,2.464s-2.119.8-2.6.167-.1-1.738.852-2.464,2.119-.8,2.6-.167" fill="#fff"/>
            </g>
          </g>
        </g>
        <path id="Path_525" data-name="Path 525" d="M194.983,211.578l-1.5,8.756-1.5-8.756Z" fill="#407bff"/>
        <path id="Path_526" data-name="Path 526" d="M197.825,211.578a4.342,4.342,0,1,1-4.342-4.342,4.342,4.342,0,0,1,4.342,4.342" fill="#407bff"/>
        <g id="Group_491" data-name="Group 491" opacity="0.3">
          <g id="Group_490" data-name="Group 490">
            <g id="Group_489" data-name="Group 489" clip-path="url(#clip-path-31)">
              <path id="Path_527" data-name="Path 527" d="M193.908,208.516c.483.634.1,1.738-.852,2.464s-2.119.8-2.6.167-.1-1.738.852-2.464,2.119-.8,2.6-.167" fill="#fff"/>
            </g>
          </g>
        </g>
        <path id="Path_528" data-name="Path 528" d="M317.229,196.022l-1.5,8.756-1.5-8.756Z" fill="#407bff"/>
        <path id="Path_529" data-name="Path 529" d="M320.072,196.022a4.342,4.342,0,1,1-4.342-4.342,4.342,4.342,0,0,1,4.342,4.342" fill="#407bff"/>
        <g id="Group_494" data-name="Group 494" opacity="0.3">
          <g id="Group_493" data-name="Group 493">
            <g id="Group_492" data-name="Group 492" clip-path="url(#clip-path-32)">
              <path id="Path_530" data-name="Path 530" d="M316.154,192.96c.483.634.1,1.738-.852,2.464s-2.119.8-2.6.167-.1-1.738.852-2.464,2.119-.8,2.6-.167" fill="#fff"/>
            </g>
          </g>
        </g>
        <path id="Path_531" data-name="Path 531" d="M427.08,101.273a33.232,33.232,0,0,1-6.649,19.986,32.164,32.164,0,0,1-5.078,5.379,31.641,31.641,0,0,1-5.506,3.821,33.3,33.3,0,0,1-29.89,1.157c-.39-.163-.78-.352-1.156-.553l-.013-.013a31.87,31.87,0,0,1-6.536-4.3A33.319,33.319,0,0,1,360.4,101.273a33.341,33.341,0,1,1,66.681,0" fill="#407bff"/>
        <g id="Group_497" data-name="Group 497" opacity="0.7">
          <g id="Group_496" data-name="Group 496">
            <g id="Group_495" data-name="Group 495" clip-path="url(#clip-path-33)">
              <path id="Path_532" data-name="Path 532" d="M426.112,101.271A32.37,32.37,0,1,1,393.741,68.9a32.371,32.371,0,0,1,32.371,32.371" fill="#fff"/>
            </g>
          </g>
        </g>
        <path id="Path_533" data-name="Path 533" d="M372.253,116.4l3.124-12.974s1.982-1.58,2.106-2.728-1.218-7.945-2.079-8.355-5.939,1.361-6.187,2.812,1.756,7.159,2.158,7.625l-5.13,15.092Z" fill="#e4897b"/>
        <path id="Path_534" data-name="Path 534" d="M374.757,108.961l-1.879,17.048a31.953,31.953,0,0,1-7.237-8.677c1.159-4.088,2.331-7.761,2.88-9.408.183-.586.293-.916.293-.916l1.074.135,4.454.561.549.073Z" fill="#407bff"/>
        <path id="Path_535" data-name="Path 535" d="M383.262,119.944l-2.9,10.788c-.379-.159-.757-.342-1.123-.537l-.012-.012a31.02,31.02,0,0,1-6.346-4.174c.232-.525,6.175-13.936,8.4-13.778Z" fill="#407bff"/>
        <g id="Group_500" data-name="Group 500" opacity="0.3" style="mix-blend-mode: normal;isolation: isolate">
          <g id="Group_499" data-name="Group 499">
            <g id="Group_498" data-name="Group 498" clip-path="url(#clip-path-34)">
              <path id="Path_536" data-name="Path 536" d="M374.757,108.961l-1.879,17.048a31.953,31.953,0,0,1-7.237-8.677c1.159-4.088,2.331-7.761,2.88-9.408.183-.586.293-.916.293-.916l1.074.135,4.454.561.549.073Z"/>
            </g>
          </g>
        </g>
        <g id="Group_503" data-name="Group 503" opacity="0.3" style="mix-blend-mode: normal;isolation: isolate">
          <g id="Group_502" data-name="Group 502">
            <g id="Group_501" data-name="Group 501" clip-path="url(#clip-path-35)">
              <path id="Path_537" data-name="Path 537" d="M383.262,119.944l-2.9,10.788c-.379-.159-.757-.342-1.123-.537l-.012-.012a31.02,31.02,0,0,1-6.346-4.174c.232-.525,6.175-13.936,8.4-13.778Z"/>
            </g>
          </g>
        </g>
        <path id="Path_538" data-name="Path 538" d="M376.151,106.719l-1.024,2.3-7.1-1.18.161-1.308Z" fill="#407bff"/>
        <path id="Path_539" data-name="Path 539" d="M413.438,90.138c-.828,3.173,3.7,11.923,1.864,27.843s-19.3,14.948-27.14,9.641-6.489-34.107-3.791-39.786,29.067,2.3,29.067,2.3" fill="#263238"/>
        <path id="Path_540" data-name="Path 540" d="M418.055,115.88c-.172.464-.319.915-.477,1.379s-.317.9-.463,1.342c-.293.879-.575,1.733-.855,2.563-.561,1.66-1.062,3.246-1.537,4.735a30.777,30.777,0,0,1-5.345,3.71,32.337,32.337,0,0,1-29.021,1.123c-.378-.159-.755-.342-1.121-.537.011-.318.011-.647.011-.952s0-.623.012-.928c.012-.915.05-1.769.074-2.575.024-.537.049-1.061.06-1.549.013-.257.025-.489.037-.733.049-.891.086-1.7.146-2.453.013-.244.037-.488.049-.72.049-.707.111-1.342.159-1.928.366-3.7.854-5.162,1.172-5.747a1.244,1.244,0,0,1,.17-.257c.1-.11.147-.122.147-.122s.489-.049,1.306-.11c2.161-.183,6.638-.5,10.691-.476a1.389,1.389,0,0,1,.231.013q.8.018,1.61.073c2.087.11,4.174.293,6.237.549.768.1,1.537.207,2.306.317q1.245.183,2.489.4c.11.024.232.037.343.061a82.781,82.781,0,0,1,9.078,2.075c.831.232,1.66.476,2.478.744Z" fill="#407bff"/>
        <g id="Group_506" data-name="Group 506" opacity="0.3" style="mix-blend-mode: normal;isolation: isolate">
          <g id="Group_505" data-name="Group 505">
            <g id="Group_504" data-name="Group 504" clip-path="url(#clip-path-36)">
              <path id="Path_541" data-name="Path 541" d="M418.042,115.88c0,.012,0,.012-.012.024-.159.452-.317.9-.452,1.355-.17.452-.317.9-.463,1.342-.293.879-.574,1.733-.855,2.563-.561,1.66-1.061,3.246-1.537,4.735a30.7,30.7,0,0,1-5.345,3.71,32.335,32.335,0,0,1-29.02,1.123c-.378-.159-.757-.342-1.123-.537l-.012-.013c0-.317.012-.634.025-.939s0-.623.012-.928c.012-.915.049-1.769.073-2.575.024-.537.049-1.061.061-1.549.012-.257.024-.489.036-.733.037-.891.086-1.7.147-2.453.012-.244.037-.488.049-.72.049-.707.11-1.342.158-1.928.367-3.7.855-5.162,1.172-5.747a1.283,1.283,0,0,1,.171-.257c.1-.11.146-.122.146-.122s.488-.049,1.306-.11c2.16-.183,6.639-.5,10.69-.476a1.383,1.383,0,0,1,.232.013q.805.018,1.611.073c2.087.11,4.173.293,6.236.549.769.1,1.538.207,2.306.317q1.245.183,2.49.4c.11.024.232.037.342.061a82.746,82.746,0,0,1,9.079,2.075c.83.232,1.659.476,2.477.744"/>
            </g>
          </g>
        </g>
        <path id="Path_542" data-name="Path 542" d="M399.322,110.784c7.141.56,8.017,2.719,7.255,3.849s-10.437,10.587-13.35,16.923c0,0-10.486-22.072,6.1-20.772" fill="#fff"/>
        <path id="Path_543" data-name="Path 543" d="M395.634,117.981c7.069-.905,9.193-3.924,9.193-3.924-4.485-4.232-.759-11.565-.759-11.565l-8.508,1.589a25.008,25.008,0,0,1,.332,3.582c.065,5.164-2.271,5.215-2.271,5.215-1.493,2.8,2.013,5.1,2.013,5.1" fill="#e4897b"/>
        <g id="Group_509" data-name="Group 509" opacity="0.2" style="mix-blend-mode: normal;isolation: isolate">
          <g id="Group_508" data-name="Group 508">
            <g id="Group_507" data-name="Group 507" clip-path="url(#clip-path-37)">
              <path id="Path_544" data-name="Path 544" d="M395.56,104.08a24.875,24.875,0,0,1,.332,3.582c5.748,0,8.177-5.171,8.177-5.171Z"/>
            </g>
          </g>
        </g>
        <path id="Path_545" data-name="Path 545" d="M400.263,80.289c-7.4-.4-9.994,3.424-10.953,11.017-1.2,9.488.542,16.371,9.9,14.843,12.712-2.075,13.335-25.187,1.052-25.86" fill="#e4897b"/>
        <path id="Path_546" data-name="Path 546" d="M394.114,91.154a15.68,15.68,0,0,1-2.32,2.95,2.036,2.036,0,0,0,1.9.943Z" fill="#de5753"/>
        <path id="Path_547" data-name="Path 547" d="M398.674,90.8c-.047.607.242,1.124.647,1.156s.77-.435.818-1.041-.242-1.125-.647-1.156-.77.434-.818,1.041" fill="#263238"/>
        <path id="Path_548" data-name="Path 548" d="M399.659,89.8l-1.279-.621s.57,1.162,1.279.621" fill="#263238"/>
        <path id="Path_549" data-name="Path 549" d="M391.141,90.08c-.047.607.242,1.124.646,1.156s.771-.434.819-1.041-.242-1.125-.646-1.156-.772.434-.819,1.041" fill="#263238"/>
        <path id="Path_550" data-name="Path 550" d="M392.126,89.082l-1.279-.621s.57,1.162,1.279.621" fill="#263238"/>
        <path id="Path_551" data-name="Path 551" d="M402.175,87.331a.34.34,0,0,1-.278-.142,3.526,3.526,0,0,0-2.844-1.153.338.338,0,0,1-.367-.317.343.343,0,0,1,.317-.367,4.168,4.168,0,0,1,3.449,1.434.343.343,0,0,1-.277.545" fill="#263238"/>
        <path id="Path_552" data-name="Path 552" d="M390.689,85.876a.343.343,0,0,1-.175-.639,3.786,3.786,0,0,1,3.292-.465.343.343,0,0,1-.271.63,3.119,3.119,0,0,0-2.673.427.354.354,0,0,1-.173.047" fill="#263238"/>
        <path id="Path_553" data-name="Path 553" d="M394.617,98.016a18.678,18.678,0,0,1,.722,2.616c.16,0,.32-.007.479-.018,2.165-.1,3.136-.861,3.556-1.675a2.792,2.792,0,0,0,.284-1.292,2.7,2.7,0,0,0-.1-.751,10.211,10.211,0,0,1-4.207,1.074c-.451.042-.737.046-.737.046" fill="#263238"/>
        <path id="Path_554" data-name="Path 554" d="M395.354,97.971l.233.766c2.039-.1,3.461-.442,4.071-1.09a2.732,2.732,0,0,0-.1-.75,10.226,10.226,0,0,1-4.207,1.074" fill="#fff"/>
        <path id="Path_555" data-name="Path 555" d="M395.818,100.614c2.164-.1,3.135-.861,3.556-1.675a6.979,6.979,0,0,0-2.382.587,2.606,2.606,0,0,0-1.174,1.088" fill="#de5753"/>
        <path id="Path_556" data-name="Path 556" d="M407.664,93.2s-3.125-6.266-2.345-10.929c0,0-14.329-6.791-15.867,8.047,0,0-.708-13.289,12.022-12.887,12.711.4,11.658,19,4.788,24.183,0,0,3.333-4.5,1.4-8.414" fill="#263238"/>
        <path id="Path_557" data-name="Path 557" d="M406.37,94.693a3.252,3.252,0,0,1,3.655-2.774c2.279.376,3.113,5.141-2.65,5.96-.827.118-1.244-.707-1.005-3.186" fill="#e4897b"/>
        <path id="Path_558" data-name="Path 558" d="M403.349,81.53a28.08,28.08,0,0,0,4.313,17.409c4.162,6.283-.619,11.79-.619,11.79s7.384-4.7,7.644-11.79c0,0,6.1-16.949-6.564-21.519,0,0-.052-3.817-8.309-3.091s-14.91,7.8-16.171,16.825,3.441,19.082,3.441,19.082-5-31.969,16.265-28.706" fill="#263238"/>
        <path id="Path_559" data-name="Path 559" d="M403.825,81.681a21.329,21.329,0,0,0-.614,6.557,32.452,32.452,0,0,0,1.062,6.617,28.081,28.081,0,0,0,2.475,6.249,18.061,18.061,0,0,0,4.184,5.258,18.187,18.187,0,0,1-4.4-5.133,28.423,28.423,0,0,1-2.738-6.236,33.11,33.11,0,0,1-1.331-6.706,22.019,22.019,0,0,1,.41-6.908Z" fill="#263238"/>
        <path id="Path_560" data-name="Path 560" d="M419.653,120.676a31.214,31.214,0,0,1-4.93,5.223,30.647,30.647,0,0,1-5.345,3.71c.11-.427.256-.854.4-1.281a33.063,33.063,0,0,1,5.332-9.141,36.888,36.888,0,0,1,2.917-3.282c.012-.013.025-.025.025-.025.768.635,1.269,2.38,1.6,4.8" fill="#407bff"/>
        <g id="Group_512" data-name="Group 512" opacity="0.3" style="mix-blend-mode: normal;isolation: isolate">
          <g id="Group_511" data-name="Group 511">
            <g id="Group_510" data-name="Group 510" clip-path="url(#clip-path-38)">
              <path id="Path_561" data-name="Path 561" d="M419.653,120.676a31.214,31.214,0,0,1-4.93,5.223,30.647,30.647,0,0,1-5.345,3.71c.11-.427.256-.854.4-1.281a33.063,33.063,0,0,1,5.332-9.141,36.888,36.888,0,0,1,2.917-3.282c.012-.013.025-.025.025-.025.768.635,1.269,2.38,1.6,4.8"/>
            </g>
          </g>
        </g>
        <path id="Path_562" data-name="Path 562" d="M330.291,31.565a18.2,18.2,0,1,1-18.2-18.2,18.2,18.2,0,0,1,18.2,18.2" fill="#407bff"/>
        <g id="Group_515" data-name="Group 515" opacity="0.3">
          <g id="Group_514" data-name="Group 514">
            <g id="Group_513" data-name="Group 513" clip-path="url(#clip-path-39)">
              <path id="Path_563" data-name="Path 563" d="M329.253,31.569A17.159,17.159,0,1,1,312.1,14.407a17.092,17.092,0,0,1,17.155,17.162" fill="#fff"/>
            </g>
          </g>
        </g>
        <path id="Path_564" data-name="Path 564" d="M324.667,43.239a17.154,17.154,0,0,1-25.793-.739,1.918,1.918,0,0,1,.271-.091,3.888,3.888,0,0,1,.822-.86.907.907,0,0,1,.008-.143l.3-.053a3.607,3.607,0,0,1,1.879-.49,4.726,4.726,0,0,1,.559.03l1.07-.2s-.007.1-.022.294c1.357.106,3.426.234,5.778.392a3.055,3.055,0,0,0,1.064-1.5,5.343,5.343,0,0,0,.2-1.976,5.947,5.947,0,0,1-2.4-.634,6.156,6.156,0,0,1-2.965-3.372,5.8,5.8,0,0,1-.187-.619,15.493,15.493,0,0,1-.092-6.48v-.015a1.561,1.561,0,0,1-.181,0,.182.182,0,0,1-.151-.189c0-.015.007-.03.007-.045a.2.2,0,0,1,.227-.166c.015,0,.031-.008.052-.008a13.227,13.227,0,0,1,.287-3.877,4.615,4.615,0,0,1-.03-3.916c.641-.92.144-.422,1.826-.565s.664-1.637,1.736-1.652.851.656,2.164,1.154.83-1,2.323-1.139,1.705,1,2.776,1.282a5.113,5.113,0,0,0,2.069,0c.783,0,.851,2.278,1.183,2.7s.883-.212,1.593.958a1.087,1.087,0,0,1,.127.558c0,1.509-1.886,4.383-1.886,4.383a21.238,21.238,0,0,1-.385,2.128,1.958,1.958,0,0,1,.34,2.263,4.228,4.228,0,0,1-1.66,1.773,12.307,12.307,0,0,1-1.079,1.886c-.474,2.617-.7,5.71.189,7.664a57.206,57.206,0,0,1,7.975,1.26" fill="#407bff"/>
        <g id="Group_518" data-name="Group 518" opacity="0.5">
          <g id="Group_517" data-name="Group 517">
            <g id="Group_516" data-name="Group 516" clip-path="url(#clip-path-40)">
              <path id="Path_565" data-name="Path 565" d="M330.291,31.565a18.2,18.2,0,1,1-18.2-18.2,18.2,18.2,0,0,1,18.2,18.2" fill="#fff"/>
            </g>
          </g>
        </g>
        <path id="Path_566" data-name="Path 566" d="M209.227,321.919a18.2,18.2,0,1,1-18.2-18.2,18.2,18.2,0,0,1,18.2,18.2" fill="#407bff"/>
        <g id="Group_521" data-name="Group 521" opacity="0.2">
          <g id="Group_520" data-name="Group 520">
            <g id="Group_519" data-name="Group 519" clip-path="url(#clip-path-41)">
              <path id="Path_567" data-name="Path 567" d="M208.193,321.919a17.16,17.16,0,1,1-17.162-17.155,17.073,17.073,0,0,1,17.162,17.155" fill="#fff"/>
            </g>
          </g>
        </g>
        <path id="Path_568" data-name="Path 568" d="M202.821,334.374a17.15,17.15,0,0,1-21.5,1.69c1.244-.174,2.557-.332,3.892-.468,1.034-2.248.77-5.824.219-8.849a14.758,14.758,0,0,1-1.237-2.18,4.771,4.771,0,0,1-1.916-2.045,2.262,2.262,0,0,1,.385-2.617,20.07,20.07,0,0,1-.559-4.127l-.075.038s-1.381-5.326,3.779-7.28,10.373,1.539,10.373,1.539,1.117-2.082,2.452-1.539c1.132.46.528,1.939.317,2.391a2.742,2.742,0,0,1,1.169-1.018c.913-.415,2.173.747-.656,3.576a4.1,4.1,0,0,1-1.011.724,13.89,13.89,0,0,1,.075,3.863,17.832,17.832,0,0,1-.1,7.476,5.283,5.283,0,0,1-.219.716,7.023,7.023,0,0,1-3.425,3.893,6.723,6.723,0,0,1-2.769.739,6.3,6.3,0,0,0,.234,2.278,3.578,3.578,0,0,0,1.23,1.736c2.723-.189,5.107-.325,6.676-.453-.015-.226-.03-.34-.03-.34l1.237.227a5.215,5.215,0,0,1,1.464.03" fill="#407bff"/>
        <g id="Group_524" data-name="Group 524" opacity="0.5">
          <g id="Group_523" data-name="Group 523">
            <g id="Group_522" data-name="Group 522" clip-path="url(#clip-path-42)">
              <path id="Path_569" data-name="Path 569" d="M209.227,321.919a18.2,18.2,0,1,1-18.2-18.2,18.2,18.2,0,0,1,18.2,18.2" fill="#fff"/>
            </g>
          </g>
        </g>
        <path id="Path_570" data-name="Path 570" d="M126.375,129.609a18.2,18.2,0,1,1-18.2-18.2,18.2,18.2,0,0,1,18.2,18.2" fill="#407bff"/>
        <g id="Group_527" data-name="Group 527" opacity="0.2">
          <g id="Group_526" data-name="Group 526">
            <g id="Group_525" data-name="Group 525" clip-path="url(#clip-path-43)">
              <path id="Path_571" data-name="Path 571" d="M125.34,129.608a17.158,17.158,0,1,1-17.162-17.155,17.107,17.107,0,0,1,17.162,17.155" fill="#fff"/>
            </g>
          </g>
        </g>
        <path id="Path_572" data-name="Path 572" d="M120.979,141.037a17.158,17.158,0,0,1-22.9,2.444l6.8-2.1c.129.143.249.3.378.468.286-.053.58-.113.875-.166.543-.1,1.086-.174,1.637-.257a5.1,5.1,0,0,0,.679-2.1c-.574.031-.936.038-.936.038.189-.679-.822-2.089-.822-2.089l-.34,1.863a3.7,3.7,0,0,1-1.146-.4c-.453-.287-1.049-2.316-1.049-2.316s-1.177,1.977-1.433,2.429-.943,0-.943,0a6.9,6.9,0,0,1,.113-3.478,1.184,1.184,0,0,0-1.2-1.72,6.14,6.14,0,0,1-.452,1.947,5.967,5.967,0,0,0-.461,2.542c0,.717.061,1.222-.452,1.222s-.573-.452-.521-1.222-.739-1.516-.279-2.142.113-2.347.113-2.347c-.286,1.2-1.6,1.147-1.825,2s.626,2.059.226,2.489-1.086,0-1.086,0,.573-.943.173-1.494-1.033-.822-.746-1.938.8-1.109.633-2.347-.747-1.161,0-1.622a6.1,6.1,0,0,0,1.713-3.568c0-.943-.4-3.108,1.2-3.87s2-1.35,1.713-3.364,1.252-1.871,3.2-1.471c0,0,.966-1.539,1.879-1.253s1.6.113,1.795-.4,2.716-.46,3.093,0a2.744,2.744,0,0,0,2.558.453c.822-.339,3.01,1.026,2.942,1.939s-.053,1.433,1.124,1.954,1.395.792,1.908,2.836-.339,2.867.687,3.659.913,3.945.973,4.919,0,2.052,0,2.052l-.287.083c-.286.075-.512-1.057-.46-1.894.061-.8-1.735-1.969-1.886-2.067.038.083.362.777.573,1.328a9.975,9.975,0,0,1,.227,3.063c-.053.973,1.086,1.508,1.086,1.508l-1.252.627s-.973-2.075-.641-3.154a2.3,2.3,0,0,0-.619-2.044v2.044s-.34.732-.853,1.705.4,1.26.544,1.773-1.124.543-1.124.543l-.234-1.23-.43,1.23a6.714,6.714,0,0,1-2.475.754,4.31,4.31,0,0,0,.5,1.954c.408-.022.815-.045,1.222-.06.808-.008,1.645.008,2.452.038h.015c1.449.045,2.814.136,3.825.211" fill="#407bff"/>
        <g id="Group_530" data-name="Group 530" opacity="0.5">
          <g id="Group_529" data-name="Group 529">
            <g id="Group_528" data-name="Group 528" clip-path="url(#clip-path-44)">
              <path id="Path_573" data-name="Path 573" d="M126.375,129.609a18.2,18.2,0,1,1-18.2-18.2,18.2,18.2,0,0,1,18.2,18.2" fill="#fff"/>
            </g>
          </g>
        </g>
        <path id="Path_574" data-name="Path 574" d="M210.322,46.33A30.521,30.521,0,1,1,179.8,15.808,30.522,30.522,0,0,1,210.322,46.33" fill="#407bff"/>
        <g id="Group_533" data-name="Group 533" opacity="0.7">
          <g id="Group_532" data-name="Group 532">
            <g id="Group_531" data-name="Group 531" clip-path="url(#clip-path-45)">
              <path id="Path_575" data-name="Path 575" d="M209.324,46.33a29.356,29.356,0,0,1-6.14,17.99,28.806,28.806,0,0,1-3.51,3.82,27.5,27.5,0,0,1-3.79,2.92.452.452,0,0,1-.17.11,27,27,0,0,1-3.28,1.84,29.5,29.5,0,0,1-35.1-7.55l-.01-.01a29.516,29.516,0,1,1,52-19.12" fill="#fff"/>
            </g>
          </g>
        </g>
        <path id="Path_576" data-name="Path 576" d="M186.667,46.33c.652-1.444,1.113-.818,2.992.632a4.774,4.774,0,0,1,2.176,4.3c0,1.538-.3,4.6-.3,4.6l4.879,5.472-2.208,3.33-5.671-6.4s-2.8-2.11-3.264-4.483,1.393-7.457,1.393-7.457" fill="#ebb376"/>
        <path id="Path_577" data-name="Path 577" d="M186.022,44.687l4,7.175a.881.881,0,0,1-.1,1.006l-3.1,3.579a.881.881,0,0,1-1.419-.12l-3.582-5.9Z" fill="#263238"/>
        <g id="Group_536" data-name="Group 536" opacity="0.4">
          <g id="Group_535" data-name="Group 535">
            <g id="Group_534" data-name="Group 534" clip-path="url(#clip-path-46)">
              <path id="Path_578" data-name="Path 578" d="M185.8,45.46l3.527,6.645-3.358,3.956-3.612-5.868Z" fill="#407bff"/>
            </g>
          </g>
        </g>
        <path id="Path_579" data-name="Path 579" d="M195.885,71.06c.03.15.049.29.069.43-.08-.1-.16-.21-.24-.32a26.922,26.922,0,0,1-3.28,1.84c.261-2.03.55-3.86.81-5.39.231-1.4.44-2.55.6-3.36s.25-1.28.271-1.36v-.01a3.92,3.92,0,0,1,1.05.34c1.53.75,3.039,2.54,4.509,4.91a27.547,27.547,0,0,1-3.789,2.92" fill="#407bff"/>
        <path id="Path_580" data-name="Path 580" d="M195.954,71.49c-.08-.1-.16-.21-.24-.32a27,27,0,0,1-3.28,1.84,29.5,29.5,0,0,1-35.1-7.55c.51-.12,1.03-.23,1.55-.33l.16-.03c.1-.02.2-.04.31-.06,1.35-.26,2.73-.49,4.11-.69a.037.037,0,0,1,.03-.01c.6-.09,1.21-.17,1.81-.25.8-.11,1.6-.2,2.39-.29a1.225,1.225,0,0,1,.19-.02c1.83-.21,3.66-.38,5.44-.51.59-.04,1.17-.08,1.74-.11h.01c.75-.05,1.49-.1,2.22-.14s1.46-.07,2.16-.1l.87-.03c.87-.03,1.71-.05,2.51-.07,2.63-.06,4.94-.06,6.78-.04.43.01.84.01,1.22.02.69.01,1.28.03,1.76.05.98.02,1.52.05,1.52.05.12.44.24.9.35,1.37v.01c.51,2.05.98,4.33,1.42,6.78.03.15.05.29.07.43" fill="#407bff"/>
        <g id="Group_539" data-name="Group 539" opacity="0.2" style="mix-blend-mode: normal;isolation: isolate">
          <g id="Group_538" data-name="Group 538">
            <g id="Group_537" data-name="Group 537" clip-path="url(#clip-path-47)">
              <path id="Path_581" data-name="Path 581" d="M195.954,71.49c-.08-.1-.16-.21-.24-.32a27,27,0,0,1-3.28,1.84,29.5,29.5,0,0,1-35.1-7.55l-.72.15c.23-.05.47-.11.71-.16.52-.11,1.04-.22,1.56-.32l.16-.03c.1-.02.2-.04.31-.06,1.35-.26,2.73-.49,4.11-.69a.037.037,0,0,1,.03-.01c.6-.09,1.21-.17,1.81-.25.8-.11,1.6-.2,2.39-.29a1.225,1.225,0,0,1,.19-.02c1.83-.21,3.66-.38,5.44-.51l1.73-.12c.76-.05,1.5-.09,2.24-.13s1.46-.07,2.16-.1l.87-.03c.86-.03,1.7-.06,2.5-.08,2.64-.05,4.95-.05,6.79-.04.44.01.84.01,1.22.02.68.01,1.26.03,1.74.04.99.03,1.54.06,1.54.06v.01c.12.44.24.9.35,1.37v.01c.51,2.05.98,4.33,1.42,6.78.03.15.05.29.07.43"/>
            </g>
          </g>
        </g>
        <path id="Path_582" data-name="Path 582" d="M167.648,63.762c3.246,2.95,11.2,1.859,11.2,1.859s4.965-1.359,3.922-2.91c-2.924-.483-4.34-1.848-4.925-3.594a8.489,8.489,0,0,1-.3-3.34,17.508,17.508,0,0,1,.245-1.865l-9.832-7.281c1.288,4.806,2.865,13.647-.314,17.131" fill="#ebb376"/>
        <g id="Group_542" data-name="Group 542" opacity="0.2" style="mix-blend-mode: normal;isolation: isolate">
          <g id="Group_541" data-name="Group 541">
            <g id="Group_540" data-name="Group 540" clip-path="url(#clip-path-48)">
              <path id="Path_583" data-name="Path 583" d="M170.234,51.259c.39,5.9,5.239,7.527,7.612,7.858a8.489,8.489,0,0,1-.3-3.34Z"/>
            </g>
          </g>
        </g>
        <path id="Path_584" data-name="Path 584" d="M187.2,32.611s1.4,9.183-3.478,12.715-4.874-13.563-4.874-13.563Z" fill="#263238"/>
        <path id="Path_585" data-name="Path 585" d="M169.573,52.624a8.336,8.336,0,0,0,9.57,3.23,9.283,9.283,0,0,0,5.3-4.315,9.54,9.54,0,0,0,.441-.882c2.4-5.611,3.162-15.427-2.772-19.106a9.038,9.038,0,0,0-13.8,6.807c-.729,6.561-1.467,10.384,1.263,14.266" fill="#ebb376"/>
        <path id="Path_586" data-name="Path 586" d="M177.874,41.863c-.126.519.113,1,.465,1.064s.7-.327.792-.854-.121-1.006-.464-1.064-.7.319-.793.854" fill="#263238"/>
        <path id="Path_587" data-name="Path 587" d="M183.863,42.886c-.126.519.121,1.007.465,1.064s.7-.327.792-.854-.121-1.006-.465-1.064-.705.352-.792.854" fill="#263238"/>
        <path id="Path_588" data-name="Path 588" d="M181.915,42.822a19.124,19.124,0,0,0,1.757,4.965,3.11,3.11,0,0,1-2.627.04Z" fill="#d58745"/>
        <path id="Path_589" data-name="Path 589" d="M176.347,39.607a.33.33,0,0,0,.322-.07,2.545,2.545,0,0,1,2.169-.7.314.314,0,1,0,.15-.609h0a3.13,3.13,0,0,0-2.746.849.314.314,0,0,0-.027.443l0,.006a.494.494,0,0,0,.128.083" fill="#263238"/>
        <path id="Path_590" data-name="Path 590" d="M186.789,41.26a.3.3,0,0,0,.181.044.313.313,0,0,0,.22-.385l0-.007a3.126,3.126,0,0,0-1.942-2.13.313.313,0,0,0-.391.209.322.322,0,0,0,.21.392,2.543,2.543,0,0,1,1.511,1.712.321.321,0,0,0,.213.165" fill="#263238"/>
        <path id="Path_591" data-name="Path 591" d="M174.469,31.057v2.931a2.17,2.17,0,0,0-1.413,2.579c.636,2.543-1.2,6.142-3.249,7.417,0,0,.071-1.06-.848-.918s-1.342,5.651.071,8.476c0,0-2.331-2.684-3.108-8.618-.719-5.487-.348-9.942,1-11.867Z" fill="#263238"/>
        <path id="Path_592" data-name="Path 592" d="M164.556,43.207a6.279,6.279,0,0,0,3.014,3.736c1.94,1.042,3.39-.579,3.258-2.663-.134-1.851-1.285-4.681-3.434-4.843a2.8,2.8,0,0,0-2.838,3.77" fill="#ebb376"/>
        <path id="Path_593" data-name="Path 593" d="M174.469,33.988s1.9,1.888,3.753.506c0,0,2.091,1.743,3.8.506a3.862,3.862,0,0,0,2.465,1.77,1.337,1.337,0,0,0,1.537-1.391s2.42,1.391,3.314.74-.488-3.251-.488-3.251,1.138-.614.406-2.7-4.112-1.6-4.112-1.6.13-1.95-2.228-3.982a2.291,2.291,0,0,0-3.761.487s-2.284-3.088-5.114-2.682-2.5,2.357-2.5,2.357-3.251-2.032-4.714,0,0,3.007,0,3.007-3.251,1.092-3.089,3.31,1.83,1.892,1.83,1.892-.936,1.057,1.178,1.951,4.1-1.3,4.1-1.3a1.443,1.443,0,0,0,.7,2.113c1.521.854,2.934-1.725,2.934-1.725" fill="#263238"/>
        <path id="Path_594" data-name="Path 594" d="M180.911,49.795a18.7,18.7,0,0,0-1.847,1.988c-.14-.076-.281-.153-.416-.237-1.875-1.086-2.386-2.21-2.384-3.126a2.8,2.8,0,0,1,.344-1.277,2.729,2.729,0,0,1,.432-.622,10.221,10.221,0,0,0,3.238,2.894c.381.245.633.38.633.38" fill="#263238"/>
        <path id="Path_595" data-name="Path 595" d="M180.277,49.415l-.56.572c-1.763-1.028-2.867-1.988-3.11-2.844a2.719,2.719,0,0,1,.433-.621,10.214,10.214,0,0,0,3.237,2.893" fill="#fff"/>
        <path id="Path_596" data-name="Path 596" d="M178.648,51.547c-1.875-1.087-2.386-2.21-2.384-3.126a6.967,6.967,0,0,1,1.843,1.619,2.616,2.616,0,0,1,.541,1.507" fill="#de5753"/>
        <path id="Path_597" data-name="Path 597" d="M178.849,65.621s-11.471-7.794-15.122-8.231-3,4.116-3,4.116-2.817,0-1.734,3.467,16.665,5.381,22.421,3.666,9.176-4.943,8.225-7.989-3.615-.437-3.615-.437-1.547-2.869-3.777-2.2-3.4,7.605-3.4,7.605" fill="#407bff"/>
        <path id="Path_598" data-name="Path 598" d="M203.184,64.32a28.806,28.806,0,0,1-3.51,3.82,27.5,27.5,0,0,1-3.79,2.92c.03.15.05.29.07.43-.08-.1-.16-.21-.24-.32-.76-1.02-1.64-2.26-2.47-3.55a21.419,21.419,0,0,1-2.41-4.82v-.01a5.093,5.093,0,0,1-.24-1.24l-.95-1.32.31-.36,2.52-2.96.55-.64,1.08,1.41s1.39-.5,5.84,3.33a32.563,32.563,0,0,1,3.24,3.31" fill="#407bff"/>
        <path id="Path_599" data-name="Path 599" d="M124.295,234.219a28.858,28.858,0,1,1-28.858-28.858,28.858,28.858,0,0,1,28.858,28.858" fill="#407bff"/>
        <g id="Group_545" data-name="Group 545" opacity="0.7">
          <g id="Group_544" data-name="Group 544">
            <g id="Group_543" data-name="Group 543" clip-path="url(#clip-path-49)">
              <path id="Path_600" data-name="Path 600" d="M123.292,234.217a27.644,27.644,0,0,1-6.26,17.57,27.965,27.965,0,0,1-3.95,3.97c-.46.38-.94.75-1.44,1.1a27.088,27.088,0,0,1-4.32,2.55,27.764,27.764,0,0,1-25.9-1.13,25.973,25.973,0,0,1-3.03-2.05h-.01a1.73,1.73,0,0,1-.15-.13,24.729,24.729,0,0,1-3.15-2.9,27.846,27.846,0,1,1,48.21-18.98" fill="#fff"/>
            </g>
          </g>
        </g>
        <path id="Path_601" data-name="Path 601" d="M113.082,255.757c-.46.38-.94.75-1.44,1.1a27.088,27.088,0,0,1-4.32,2.55,27.764,27.764,0,0,1-25.9-1.13,25.973,25.973,0,0,1-3.03-2.05h-.01a1.73,1.73,0,0,1-.15-.13c.02-.07.03-.12.05-.19v-.01c.24-.9.47-1.84.68-2.82.3-1.32.57-2.69.81-4.12a60.936,60.936,0,0,0,.84-11.78c-.49-14.75,2.19-20.16,8.22-23.05.27-.13.55-.27.85-.39a8.078,8.078,0,0,1,4.25-.53h.01c5.16.7,9.64,5.51,9.64,5.51a33.95,33.95,0,0,1,2.36,3.99,66.5,66.5,0,0,1,6.93,25.44v.01a75.036,75.036,0,0,1,.21,7.6" fill="#263238"/>
        <path id="Path_602" data-name="Path 602" d="M112.872,248.157v-.01a8.337,8.337,0,0,0-2.91-1.52s-5.88-.57-10.99-.53c-.56.02-1.13.05-1.69.08-2.62.14-5.24.41-7.83.8-.76.11-1.52.23-2.27.37a74.615,74.615,0,0,0-7.41,1.61c-1.17.31-2.33.65-3.49,1.02a9.528,9.528,0,0,0-1.2,3.22,24.729,24.729,0,0,0,3.15,2.9,1.73,1.73,0,0,0,.15.13h.01a25.973,25.973,0,0,0,3.03,2.05,27.764,27.764,0,0,0,25.9,1.13,27.088,27.088,0,0,0,4.32-2.55c.5-.35.98-.72,1.44-1.1a27.965,27.965,0,0,0,3.95-3.97,38.255,38.255,0,0,0-4.16-3.63" fill="#407bff"/>
        <g id="Group_548" data-name="Group 548" opacity="0.2" style="mix-blend-mode: normal;isolation: isolate">
          <g id="Group_547" data-name="Group 547">
            <g id="Group_546" data-name="Group 546" clip-path="url(#clip-path-50)">
              <path id="Path_603" data-name="Path 603" d="M112.872,248.157v-.01a8.337,8.337,0,0,0-2.91-1.52s-5.88-.57-10.99-.53c-.56.02-1.13.05-1.69.08-2.62.14-5.24.41-7.83.8-.76.11-1.52.23-2.27.37a74.615,74.615,0,0,0-7.41,1.61c-1.17.31-2.33.65-3.49,1.02a9.528,9.528,0,0,0-1.2,3.22,24.729,24.729,0,0,0,3.15,2.9,1.73,1.73,0,0,0,.15.13h.01a25.973,25.973,0,0,0,3.03,2.05,27.764,27.764,0,0,0,25.9,1.13,27.088,27.088,0,0,0,4.32-2.55c.5-.35.98-.72,1.44-1.1a27.965,27.965,0,0,0,3.95-3.97,38.255,38.255,0,0,0-4.16-3.63" fill="#fff"/>
            </g>
          </g>
        </g>
        <path id="Path_604" data-name="Path 604" d="M96.81,251.9c-6.476-.831-8.423-3.6-8.423-3.6,2.648-2.493,2.167-6.175,1.491-8.472a13.225,13.225,0,0,0-.8-2.118l7.795,1.458a22.351,22.351,0,0,0-.3,3.283,9.773,9.773,0,0,0,.22,2.411c.529,2.33,1.857,2.362,1.857,2.362,1.368,2.558-1.841,4.676-1.841,4.676" fill="#eec1bb"/>
        <g id="Group_551" data-name="Group 551" opacity="0.2" style="mix-blend-mode: normal;isolation: isolate">
          <g id="Group_550" data-name="Group 550">
            <g id="Group_549" data-name="Group 549" clip-path="url(#clip-path-51)">
              <path id="Path_605" data-name="Path 605" d="M96.573,242.454a9.822,9.822,0,0,0,.22,2.411c-3.1-.407-5.441-2.884-6.916-5.034a13.11,13.11,0,0,0-.8-2.118l7.795,1.458a22.5,22.5,0,0,0-.3,3.283"/>
            </g>
          </g>
        </g>
        <path id="Path_606" data-name="Path 606" d="M95.286,217.588c6.779.251,8.826,3.962,9.064,10.966.3,8.753-1.869,14.884-10.276,12.705-11.417-2.96-10.046-24.089,1.212-23.671" fill="#eec1bb"/>
        <path id="Path_607" data-name="Path 607" d="M99.982,228.012a14.358,14.358,0,0,0,1.868,2.885,1.863,1.863,0,0,1-1.815.7Z" fill="#d4827d"/>
        <path id="Path_608" data-name="Path 608" d="M92.981,223.89a.35.35,0,0,1-.233-.087.354.354,0,0,1-.033-.5,3.858,3.858,0,0,1,3.3-1.031.354.354,0,0,1-.117.7,3.2,3.2,0,0,0-2.654.8.352.352,0,0,1-.266.12" fill="#263238"/>
        <path id="Path_609" data-name="Path 609" d="M103.578,223.528a.359.359,0,0,1-.206-.067,2.832,2.832,0,0,0-2.367-.608.354.354,0,0,1-.219-.673,3.5,3.5,0,0,1,3,.706.355.355,0,0,1-.208.642" fill="#263238"/>
        <path id="Path_610" data-name="Path 610" d="M98.948,234.228a17.1,17.1,0,0,0-.879,2.325c-.145-.016-.291-.033-.435-.057-1.966-.273-2.788-1.049-3.1-1.826a2.542,2.542,0,0,1-.15-1.2,2.426,2.426,0,0,1,.151-.676,9.356,9.356,0,0,0,3.745,1.333c.41.075.67.1.67.1" fill="#263238"/>
        <path id="Path_611" data-name="Path 611" d="M98.279,234.124,98,234.8c-1.851-.262-3.119-.694-3.62-1.336a2.482,2.482,0,0,1,.151-.676,9.365,9.365,0,0,0,3.746,1.333" fill="#fff"/>
        <path id="Path_612" data-name="Path 612" d="M97.634,236.5c-1.966-.273-2.788-1.049-3.1-1.826a6.4,6.4,0,0,1,2.123.735,2.4,2.4,0,0,1,.98,1.091" fill="#de5753"/>
        <path id="Path_613" data-name="Path 613" d="M87.454,228.738s3.376-5.452,3.055-9.77c0,0,13.638-4.989,13.795,8.67,0,0,1.761-12.058-9.882-12.76-11.625-.7-12.226,16.348-6.4,21.651,0,0-2.662-4.38-.572-7.791" fill="#263238"/>
        <path id="Path_614" data-name="Path 614" d="M88.508,230.21a2.978,2.978,0,0,0-3.1-2.836c-2.109.151-3.27,4.427,1.917,5.658.744.176,1.194-.541,1.184-2.822" fill="#eec1bb"/>
        <path id="Path_615" data-name="Path 615" d="M91.479,213.107c3.666-1.018,13.441-1.154,15.749,8.96l-1.358.679a21.657,21.657,0,0,0-7.331-2.172,16.83,16.83,0,0,0-1.9-2.715,15.087,15.087,0,0,1,0,2.579s-6.376.934-9.232,3.53c-4.48,4.073-4.752,6.653-4.752,6.653s-3.107-14.2,8.825-17.514" fill="#263238"/>
        <path id="Path_616" data-name="Path 616" d="M108.179,221.973a.244.244,0,0,1-.232-.167,11.82,11.82,0,0,0-5.9-7.283c-5.026-2.473-10.973-.458-11.033-.438a.242.242,0,0,1-.311-.15.244.244,0,0,1,.151-.311c.061-.022,6.2-2.1,11.408.46a12.3,12.3,0,0,1,6.146,7.568.244.244,0,0,1-.155.308.231.231,0,0,1-.077.013" fill="#263238"/>
        <path id="Path_617" data-name="Path 617" d="M93.991,227.311s1.587-1.35,2.339.466a4.735,4.735,0,0,0-2.339-.466" fill="#263238"/>
        <path id="Path_618" data-name="Path 618" d="M101.531,228.314s.879-1.839,2.047-.537a4.555,4.555,0,0,0-2.047.537" fill="#263238"/>
        <path id="Path_619" data-name="Path 619" d="M409.624,283.8a35.764,35.764,0,1,1-35.764-35.764A35.764,35.764,0,0,1,409.624,283.8" fill="#407bff"/>
        <g id="Group_554" data-name="Group 554" opacity="0.7">
          <g id="Group_553" data-name="Group 553">
            <g id="Group_552" data-name="Group 552" clip-path="url(#clip-path-52)">
              <path id="Path_620" data-name="Path 620" d="M408.623,283.791a34.438,34.438,0,0,1-3.71,15.61c-.47.94-.99,1.85-1.54,2.74-.43.69-.88,1.37-1.37,2.03a34.8,34.8,0,0,1-7.25,7.39c-.63.48-1.28.93-1.95,1.37a34.707,34.707,0,0,1-33.31,2.52c-.56-.26-1.12-.53-1.67-.81v-.01a35.177,35.177,0,0,1-14.55-14.31c-.46-.86-.89-1.75-1.28-2.65h-.01a34.765,34.765,0,1,1,66.64-13.88" fill="#fff"/>
            </g>
          </g>
        </g>
        <path id="Path_621" data-name="Path 621" d="M356.513,282.421a18.054,18.054,0,0,1-2.15,2.6l-3,14.19-1.96,9.26a34.991,34.991,0,0,1-6.13-8.15c.24-.75.5-1.53.75-2.32,2.12-6.58,4.56-14.2,4.74-14.95.32-1.34-.85-7.91-.58-9.12s6.27-2.62,7.57-2.6,1.2,10.24.76,11.09" fill="#9f5b53"/>
        <path id="Path_622" data-name="Path 622" d="M361.2,298.051a.175.175,0,0,1-.01.05l-1.26,12.93-.44,4.42c-.56-.26-1.12-.53-1.67-.81v-.01a35.177,35.177,0,0,1-14.55-14.31c-.46-.86-.89-1.75-1.28-2.65l2.03.33,7.34,1.21,1.58.26-1.85,8.97s6.73-9.37,10.11-10.39" fill="#407bff"/>
        <g id="Group_557" data-name="Group 557" opacity="0.3">
          <g id="Group_556" data-name="Group 556">
            <g id="Group_555" data-name="Group 555" clip-path="url(#clip-path-53)">
              <path id="Path_623" data-name="Path 623" d="M361.2,298.051a.175.175,0,0,1-.01.05l-1.26,12.93-.44,4.42c-.56-.26-1.12-.53-1.67-.81v-.01a35.177,35.177,0,0,1-14.55-14.31c-.46-.86-.89-1.75-1.28-2.65l2.03.33,7.34,1.21,1.58.26-1.85,8.97s6.73-9.37,10.11-10.39"/>
            </g>
          </g>
        </g>
        <path id="Path_624" data-name="Path 624" d="M404.913,299.4c-.47.94-.99,1.85-1.54,2.74-.43.69-.88,1.37-1.37,2.03a34.8,34.8,0,0,1-7.25,7.39c-.63.48-1.28.93-1.95,1.37a34.707,34.707,0,0,1-33.31,2.52c-.56-.26-1.12-.53-1.67-.81v-.01a114.264,114.264,0,0,1,3.37-16.53.175.175,0,0,0,.01-.05,72.224,72.224,0,0,1,11-2.24c.06,0,.11-.01.17-.01h.01a139.255,139.255,0,0,1,16.09-.34h.05a76.441,76.441,0,0,1,11.09,1.1,30.425,30.425,0,0,1,5.3,2.84" fill="#407bff"/>
        <g id="Group_560" data-name="Group 560" opacity="0.3">
          <g id="Group_559" data-name="Group 559">
            <g id="Group_558" data-name="Group 558" clip-path="url(#clip-path-54)">
              <path id="Path_625" data-name="Path 625" d="M404.913,299.4c-.47.94-.99,1.85-1.54,2.74-.43.69-.88,1.37-1.37,2.03a34.8,34.8,0,0,1-7.25,7.39c-.63.48-1.28.93-1.95,1.37a34.707,34.707,0,0,1-33.31,2.52c-.56-.26-1.12-.53-1.67-.81v-.01a114.264,114.264,0,0,1,3.37-16.53.175.175,0,0,0,.01-.05,72.224,72.224,0,0,1,11-2.24c.06,0,.11-.01.17-.01h.01a139.255,139.255,0,0,1,16.09-.34h.05a76.441,76.441,0,0,1,11.09,1.1,30.425,30.425,0,0,1,5.3,2.84"/>
            </g>
          </g>
        </g>
        <g id="Group_563" data-name="Group 563" opacity="0.8">
          <g id="Group_562" data-name="Group 562">
            <g id="Group_561" data-name="Group 561" clip-path="url(#clip-path-55)">
              <path id="Path_626" data-name="Path 626" d="M394.753,311.561c-.63.48-1.28.93-1.95,1.37a34.707,34.707,0,0,1-33.31,2.52c-.56-.26-1.12-.53-1.67-.81v-.01c.05-.29.09-.58.13-.86a32.285,32.285,0,0,1,1.98-2.74,93.313,93.313,0,0,1,11.17-11.41,6.358,6.358,0,0,0,3.89,2.02c3.28.64,7.03-.89,10.14-2.74a76.171,76.171,0,0,1,5.45,6.01,31.727,31.727,0,0,1,3.69,5.54q.27.57.48,1.11" fill="#fff"/>
            </g>
          </g>
        </g>
        <path id="Path_627" data-name="Path 627" d="M388.523,295.507a16.866,16.866,0,0,1-11.841,5.373c-6.734.3-4.483-5.025-4.483-5.025,2.467-.645,3.838-1.8,4.534-3.214.87-1.811.614-4.052.062-6.253l-.123-.46,9.835-8.761c-.911,5.271-1.73,14.912,2.016,18.34" fill="#9f5b53"/>
        <g id="Group_566" data-name="Group 566" opacity="0.2" style="mix-blend-mode: normal;isolation: isolate">
          <g id="Group_565" data-name="Group 565">
            <g id="Group_564" data-name="Group 564" clip-path="url(#clip-path-56)">
              <path id="Path_628" data-name="Path 628" d="M384.89,284.894c-.522,3.377-4.626,6.7-8.157,7.747.87-1.811.614-4.052.062-6.253l8.146-6.243a12.789,12.789,0,0,1-.051,4.749"/>
            </g>
          </g>
        </g>
        <path id="Path_629" data-name="Path 629" d="M378.517,265.791c2.335,2.636.22,5.555-7.464,9.005-1.733-4.026-.5-10.668,1.984-11.784s3.442.493,5.48,2.779" fill="#263238"/>
        <path id="Path_630" data-name="Path 630" d="M389.317,274.15c-2.067,6.822-2.934,10.913-7.266,13.641-6.524,4.1-14.319-1.1-14.333-8.4,0-6.559,3.372-16.619,10.8-17.762a9.722,9.722,0,0,1,10.8,12.524" fill="#9f5b53"/>
        <path id="Path_631" data-name="Path 631" d="M378.53,273.6c-.134.563-.543.949-.91.86s-.554-.61-.42-1.173.535-.949.9-.868.521.617.428,1.181" fill="#263238"/>
        <path id="Path_632" data-name="Path 632" d="M372.123,272.087c-.134.563-.543.949-.91.86s-.562-.61-.428-1.181.543-.949.91-.86.562.618.428,1.181" fill="#263238"/>
        <path id="Path_633" data-name="Path 633" d="M374.15,272.848a20.67,20.67,0,0,1-3.836,4.181,3.345,3.345,0,0,0,2.577,1.14Z" fill="#892b29"/>
        <path id="Path_634" data-name="Path 634" d="M380.758,271.992a.335.335,0,0,0,.221,0,.344.344,0,0,0,.181-.447,3.361,3.361,0,0,0-2.371-2.006.328.328,0,0,0-.387.256l0,.024a.351.351,0,0,0,.279.39,2.685,2.685,0,0,1,1.855,1.6.352.352,0,0,0,.226.176" fill="#263238"/>
        <path id="Path_635" data-name="Path 635" d="M369.719,269.236a.351.351,0,0,0,.346-.116,2.707,2.707,0,0,1,2.218-1.056.342.342,0,0,0,.079-.679,3.4,3.4,0,0,0-2.821,1.306.336.336,0,0,0,.044.474l0,0a.4.4,0,0,0,.13.068" fill="#263238"/>
        <path id="Path_636" data-name="Path 636" d="M388.014,267.361c-3.5.342-3.93,3.925-.636,11.671,4.011-1.775,7.622-7.493,6.548-9.99s-2.856-1.974-5.912-1.681" fill="#263238"/>
        <path id="Path_637" data-name="Path 637" d="M391.3,280.469a6.78,6.78,0,0,1-4.072,3.2c-2.291.619-3.416-1.436-2.768-3.588.587-1.94,2.492-4.6,4.781-4.269a3.022,3.022,0,0,1,2.059,4.656" fill="#9f5b53"/>
        <path id="Path_638" data-name="Path 638" d="M381.291,264.478s-.733,7.173,5.808,9.309,9.023-1.611,9.023-1.611a12.8,12.8,0,0,1-1.672-.282,7.142,7.142,0,0,0,1.683-6.6c-1.117-3.74-6.888-8.81-12.255-8.326a12.085,12.085,0,0,0-9.546-1.475c-5.3,1.5-5.967,7.546-5.967,7.546s.7-3.595,3.1-4.039c0,0-4.524,6.62-1.028,9.583,0,0,2.228-7.079,10.852-4.107" fill="#263238"/>
        <path id="Path_639" data-name="Path 639" d="M371.662,280.765a19.2,19.2,0,0,1,1.328,2.439c.159-.041.317-.081.473-.13,2.134-.6,2.925-1.588,3.155-2.5a2.864,2.864,0,0,0-.018-1.354,2.777,2.777,0,0,0-.271-.725,10.459,10.459,0,0,1-3.943,2.05c-.44.146-.724.217-.724.217" fill="#263238"/>
        <path id="Path_640" data-name="Path 640" d="M372.386,280.548l.41.709c2.009-.573,3.347-1.246,3.8-2.033a2.8,2.8,0,0,0-.272-.726,10.448,10.448,0,0,1-3.942,2.05" fill="#fff"/>
        <path id="Path_641" data-name="Path 641" d="M373.463,283.075c2.134-.6,2.925-1.588,3.155-2.5a7.134,7.134,0,0,0-2.238,1.139,2.678,2.678,0,0,0-.917,1.358" fill="#de5753"/>
      </g>
    </g>
    <g id="Group_573" data-name="Group 573">
      <g id="Group_572" data-name="Group 572" clip-path="url(#clip-path)">
        <path id="Path_642" data-name="Path 642" d="M267.944,115.465l-13.7-.655a3.693,3.693,0,0,1-3.511-3.865l.655-13.7a3.692,3.692,0,0,1,3.864-3.512l13.7.655a3.693,3.693,0,0,1,3.512,3.865l-.655,13.7a3.693,3.693,0,0,1-3.865,3.512" fill="#407bff"/>
        <g id="Group_571" data-name="Group 571" opacity="0.6" style="mix-blend-mode: normal;isolation: isolate">
          <g id="Group_570" data-name="Group 570">
            <g id="Group_569" data-name="Group 569" clip-path="url(#clip-path-58)">
              <path id="Path_643" data-name="Path 643" d="M267.6,100.729c-1.373-2.488-4.261-1.695-5.82.112-1.38-1.948-4.179-3.013-5.783-.667-2.7,3.955,2.287,7.978,4.659,9.573.268.184.491.334.676.453.2-.1.432-.229.717-.386,2.513-1.361,7.865-4.89,5.551-9.085" fill="#fff"/>
            </g>
          </g>
        </g>
        <path id="Path_644" data-name="Path 644" d="M263.438,113.614s-3.069,6.19-9.355,7.87c0,0,3.519-1.812,3.571-8.411Z" fill="#407bff"/>
      </g>
    </g>
    <g id="Group_602" data-name="Group 602">
      <g id="Group_601" data-name="Group 601" clip-path="url(#clip-path)">
        <path id="Path_645" data-name="Path 645" d="M279.506,178.881s7.939-7.943,10.5-13.6c0,0-.967-3.163-.06-4.8s6.2-6.335,7.606-5.339,3.455,4.937,2.61,6.59-6.029,5.034-6.029,5.034-6.427,12.891-10.409,15.8-4.215-3.689-4.215-3.689" fill="#ebb376"/>
        <path id="Path_646" data-name="Path 646" d="M259.43,155.008c4.625.6,9.9,23.02,13.592,25.13S286.3,169.857,286.3,169.857l4.4,5.014s-12.659,17.64-17.67,16.068-14.435-18.977-14.435-18.977Z" fill="#263238"/>
        <g id="Group_576" data-name="Group 576" opacity="0.05" style="mix-blend-mode: normal;isolation: isolate">
          <g id="Group_575" data-name="Group 575">
            <g id="Group_574" data-name="Group 574" clip-path="url(#clip-path-60)">
              <path id="Path_647" data-name="Path 647" d="M259.43,155.008c4.625.6,9.9,23.02,13.592,25.13S286.3,169.857,286.3,169.857l4.4,5.014s-12.659,17.64-17.67,16.068-14.435-18.977-14.435-18.977Z" fill="#fff"/>
            </g>
          </g>
        </g>
        <path id="Path_648" data-name="Path 648" d="M287.492,361.8l-6.074,1.072-2.491-8.281-2.273-7.6,7-2.446,2.033,9.136Z" fill="#ebb376"/>
        <path id="Path_649" data-name="Path 649" d="M280.048,362.711c-.1-.672,8.217-1.6,8.217-1.6s5.971,4.254,11.092,4.543,2.894,3.724-2.6,4.694l-13.594,2.4c-3.9.689-2.051-3.068-3.114-10.038" fill="#263238"/>
        <path id="Path_650" data-name="Path 650" d="M292.353,362.5a12.976,12.976,0,0,1-2.981-.488.218.218,0,0,1-.128-.1h0a.19.19,0,0,1-.024-.052h0a.209.209,0,0,1-.006-.1c.016-.094.368-2.131,1.4-2.791a1.286,1.286,0,0,1,1.069-.159c.406.111.629.312.663.6.052.437-.458.974-1.064,1.449a3.449,3.449,0,0,1,1.88-.124.889.889,0,0,1,.538.479.8.8,0,0,1-.044.913,1.75,1.75,0,0,1-1.3.373m-2.252-.759c1.3.3,2.89.487,3.222.1.028-.034.116-.136-.023-.445a.463.463,0,0,0-.286-.245,5.45,5.45,0,0,0-2.913.591m1.213-2.539a.835.835,0,0,0-.462.142,3.679,3.679,0,0,0-1.1,2.018c1.137-.679,2.2-1.527,2.157-1.9-.013-.116-.22-.189-.342-.222a.945.945,0,0,0-.253-.037" fill="#407bff"/>
        <g id="Group_579" data-name="Group 579" opacity="0.2" style="mix-blend-mode: normal;isolation: isolate">
          <g id="Group_578" data-name="Group 578">
            <g id="Group_577" data-name="Group 577" clip-path="url(#clip-path-61)">
              <path id="Path_651" data-name="Path 651" d="M285.724,353.865l-6.768.891-2.287-7.685,7-2.488Z"/>
            </g>
          </g>
        </g>
        <path id="Path_652" data-name="Path 652" d="M246.942,364.4h-6.168l-1.013-8.589-.916-7.88,7.322-1.191.414,9.349Z" fill="#ebb376"/>
        <path id="Path_653" data-name="Path 653" d="M239.452,364.006c.016-.68,8.37-.147,8.37-.147s5.14,5.228,10.133,6.4,2.2,4.17-3.377,4.17h-13.8c-3.965,0-1.487-3.377-1.322-10.426" fill="#263238"/>
        <path id="Path_654" data-name="Path 654" d="M252.219,366a10.479,10.479,0,0,1-3.463-1.059.2.2,0,0,1-.074-.057h0a.274.274,0,0,1-.029-.046.227.227,0,0,1-.009-.17c.03-.082.731-2.033,1.864-2.5a1.288,1.288,0,0,1,1.082.03c.38.18.565.417.548.7-.024.439-.62.88-1.3,1.243a3.413,3.413,0,0,1,1.873.2.9.9,0,0,1,.447.566.8.8,0,0,1-.2.89,1.149,1.149,0,0,1-.736.2m-2.7-1.2c1.231.521,2.762.982,3.156.658.034-.028.138-.114.055-.441a.467.467,0,0,0-.239-.293,5.475,5.475,0,0,0-2.972.076m1.495-2.3a.88.88,0,0,0-.338.071,3.677,3.677,0,0,0-1.434,1.8c1.238-.471,2.433-1.121,2.455-1.5.006-.116-.184-.225-.3-.278a.881.881,0,0,0-.385-.093" fill="#407bff"/>
        <g id="Group_582" data-name="Group 582" opacity="0.2" style="mix-blend-mode: normal;isolation: isolate">
          <g id="Group_581" data-name="Group 581">
            <g id="Group_580" data-name="Group 580" clip-path="url(#clip-path-62)">
              <path id="Path_655" data-name="Path 655" d="M246.581,356.282l-6.82-.3-.916-7.966,7.322-1.233Z"/>
            </g>
          </g>
        </g>
        <path id="Path_656" data-name="Path 656" d="M286.3,349.046l-9.985,1.76c-10.076-25.1-17.244-46.059-22.305-63.449-2.726-9.383-4.851-17.727-6.483-25.131l.456,27.329v62.081H237.838C213.172,234,230.653,207.121,230.653,207.121l29.508-5.043a133.424,133.424,0,0,1,2.472,16.514l1.331,9.757L275.5,287.913Z" fill="#407bff"/>
        <path id="Path_657" data-name="Path 657" d="M274.746,349.572l12.386-4.106-.168,5.268L276.72,354Z" fill="#407bff"/>
        <path id="Path_658" data-name="Path 658" d="M236.515,350.145l12.911-1.89-1.081,5.159L237.69,354.85Z" fill="#407bff"/>
        <path id="Path_659" data-name="Path 659" d="M257.5,142.743a.252.252,0,0,1-.129-.036c-3.764-2.274-7.122-10.626-7.263-10.98a.25.25,0,1,1,.465-.185c.033.085,3.436,8.55,7.056,10.737a.25.25,0,0,1-.129.464" fill="#263238"/>
        <path id="Path_660" data-name="Path 660" d="M227.233,120.805s1.468-4.989,11.265-5.842,14.674,8.8,12.364,15.978c0,0,2.06,9.768,6.014,12.632,0,0-18.853,8.522-28.374,8.57-2.119.01-6.646-10.506-7.23-18.088-.563-7.3,1.641-13.017,5.961-13.25" fill="#263238"/>
        <path id="Path_661" data-name="Path 661" d="M230.653,202.711v4.406l30.092-2.308V199.6Z" fill="#263238"/>
        <g id="Group_585" data-name="Group 585" opacity="0.3" style="mix-blend-mode: normal;isolation: isolate">
          <g id="Group_584" data-name="Group 584">
            <g id="Group_583" data-name="Group 583" clip-path="url(#clip-path-63)">
              <path id="Path_662" data-name="Path 662" d="M230.653,202.711v4.406l30.092-2.308V199.6Z" fill="#fff"/>
            </g>
          </g>
        </g>
        <rect id="Rectangle_1028" data-name="Rectangle 1028" width="6.606" height="5.01" transform="translate(247.208 201.262) rotate(-5.115)" fill="#fff"/>
        <rect id="Rectangle_1029" data-name="Rectangle 1029" width="1.494" height="7.613" transform="translate(239.263 200.934) rotate(-2.916)" fill="#407bff"/>
        <rect id="Rectangle_1030" data-name="Rectangle 1030" width="1.494" height="7.613" transform="translate(257.648 198.915) rotate(-2.916)" fill="#407bff"/>
        <path id="Path_663" data-name="Path 663" d="M260.87,200.128l-30.1,2.6c-.29-4.55-.58-8.45-1.27-12.82-.44-2.8-1.05-5.8-1.93-9.29-.68-2.73-1.53-5.77-2.61-9.25-.05-.19-.11-.38-.17-.57-.62-1.99-5.03-.47-5.43-2.86-1.74-10.64,9.74-11.42,13.97-12.12a95.807,95.807,0,0,1,13.52-1.42c5.85-.05,12.58.61,12.58.61s.96.23,1.56,6.44c.55,5.82,1.09,17.48-.12,38.68" fill="#263238"/>
        <path id="Path_664" data-name="Path 664" d="M244.364,161.042c-7.418-.949-9.647-4.118-9.647-4.118,4.707-4.441.8-12.136.8-12.136l8.929,1.667a26.184,26.184,0,0,0-.349,3.76c-.068,5.419,2.383,5.472,2.383,5.472,1.567,2.935-2.112,5.355-2.112,5.355" fill="#ebb376"/>
        <g id="Group_588" data-name="Group 588" opacity="0.2" style="mix-blend-mode: normal;isolation: isolate">
          <g id="Group_587" data-name="Group 587">
            <g id="Group_586" data-name="Group 586" clip-path="url(#clip-path-64)">
              <path id="Path_665" data-name="Path 665" d="M244.442,146.456a26.16,26.16,0,0,0-.349,3.759c-6.031,0-8.58-5.426-8.58-5.426Z"/>
            </g>
          </g>
        </g>
        <path id="Path_666" data-name="Path 666" d="M237.6,121.465c7.581-1.717,10.941,1.789,13.265,9.476,2.906,9.606,2.312,17.032-7.639,17.094-13.515.084-18.216-23.719-5.626-26.57" fill="#ebb376"/>
        <path id="Path_667" data-name="Path 667" d="M245.865,131.627a16.458,16.458,0,0,0,2.918,2.645,2.135,2.135,0,0,1-1.8,1.31Z" fill="#d58745"/>
        <path id="Path_668" data-name="Path 668" d="M241.084,132.058c.156.62-.053,1.206-.466,1.31s-.874-.315-1.029-.934.052-1.206.466-1.31.873.315,1.029.934" fill="#263238"/>
        <path id="Path_669" data-name="Path 669" d="M239.89,131.2l1.214-.867s-.385,1.3-1.214.867" fill="#263238"/>
        <path id="Path_670" data-name="Path 670" d="M248.753,129.995c.156.619-.053,1.206-.466,1.309s-.874-.314-1.029-.933.053-1.206.466-1.31.874.315,1.029.934" fill="#263238"/>
        <path id="Path_671" data-name="Path 671" d="M247.558,129.134l1.214-.867s-.385,1.3-1.214.867" fill="#263238"/>
        <path id="Path_672" data-name="Path 672" d="M236.794,129.094a.352.352,0,0,1-.16-.038.361.361,0,0,1-.164-.485,4.371,4.371,0,0,1,3.319-2.091.362.362,0,0,1,.068.721,3.709,3.709,0,0,0-2.738,1.691.361.361,0,0,1-.325.2" fill="#263238"/>
        <path id="Path_673" data-name="Path 673" d="M245.262,125.633a.362.362,0,0,1-.2-.665,3.974,3.974,0,0,1,3.489-.1.362.362,0,0,1-.258.677,3.269,3.269,0,0,0-2.838.028.363.363,0,0,1-.194.056" fill="#263238"/>
        <path id="Path_674" data-name="Path 674" d="M246.549,138.815a19.684,19.684,0,0,0-.288,2.833c-.166.025-.332.049-.5.065-2.258.277-3.4-.34-3.974-1.109a2.932,2.932,0,0,1-.52-1.287,2.836,2.836,0,0,1-.032-.793,10.72,10.72,0,0,0,4.541.373c.475-.036.771-.082.771-.082" fill="#263238"/>
        <path id="Path_675" data-name="Path 675" d="M245.778,138.9l-.106.833c-2.127.256-3.659.15-4.4-.413a2.843,2.843,0,0,1-.032-.794,10.7,10.7,0,0,0,4.541.374" fill="#fff"/>
        <path id="Path_676" data-name="Path 676" d="M245.762,141.713c-2.257.277-3.4-.341-3.973-1.109a7.291,7.291,0,0,1,2.567.19,2.733,2.733,0,0,1,1.406.919" fill="#de5753"/>
        <path id="Path_677" data-name="Path 677" d="M232.205,136.119s2.134-7.032.508-11.719c0,0,13.633-9.54,17.828,5.541,0,0-1.6-13.873-14.7-11.222-13.08,2.645-8.727,21.7-.71,25.859,0,0-4.238-4.067-2.927-8.459" fill="#263238"/>
        <path id="Path_678" data-name="Path 678" d="M233.806,137.439a3.412,3.412,0,0,0-4.269-2.228c-2.291.788-2.318,5.865,3.788,5.7.876-.023,1.164-.95.481-3.473" fill="#ebb376"/>
        <path id="Path_679" data-name="Path 679" d="M232.713,124.4s7.856-2.891,12.279-.712c0,0-4.767-4.278-12.837-.25Z" fill="#263238"/>
        <path id="Path_680" data-name="Path 680" d="M227.839,157.747s8.71,7.067,16.818,6.953,10.958-9.233,10.958-9.233-12.576-3.723-27.776,2.28" fill="#ebb376"/>
        <g id="Group_591" data-name="Group 591" opacity="0.2" style="mix-blend-mode: normal;isolation: isolate">
          <g id="Group_590" data-name="Group 590">
            <g id="Group_589" data-name="Group 589" clip-path="url(#clip-path-65)">
              <path id="Path_681" data-name="Path 681" d="M254.006,287.357c-2.726-9.383-4.851-17.727-6.483-25.132a231.454,231.454,0,0,1,1.906-26.207s4.322,33.8,4.577,51.339"/>
            </g>
          </g>
        </g>
        <path id="Path_682" data-name="Path 682" d="M203.471,173.4s-5.968-9.514-7.2-15.6c0,0,1.648-2.868,1.128-4.665s-4.625-7.557-6.223-6.9-4.469,4.042-4.014,5.841,4.755,6.253,4.755,6.253,3.39,14,6.622,17.723,4.932-2.656,4.932-2.656" fill="#ebb376"/>
        <path id="Path_683" data-name="Path 683" d="M219.723,162.722c3.034-.42,9.157,5.5,8.224,10.623s-9.508,19.518-16.125,18.4c-9.349-1.583-19.623-26.229-19.623-26.229l5.13-4.472s12.107,20.972,14.493,20.562,7.9-18.882,7.9-18.882" fill="#263238"/>
        <g id="Group_594" data-name="Group 594" opacity="0.05" style="mix-blend-mode: normal;isolation: isolate">
          <g id="Group_593" data-name="Group 593">
            <g id="Group_592" data-name="Group 592" clip-path="url(#clip-path-66)">
              <path id="Path_684" data-name="Path 684" d="M219.723,162.722c3.034-.42,9.157,5.5,8.224,10.623s-9.508,19.518-16.125,18.4c-9.349-1.583-19.623-26.229-19.623-26.229l5.13-4.472s12.107,20.972,14.493,20.562,7.9-18.882,7.9-18.882" fill="#fff"/>
            </g>
          </g>
        </g>
        <path id="Path_685" data-name="Path 685" d="M190.1,164.008l7.489-4.494,1.187,1.939-7.067,6.253Z" fill="#263238"/>
        <path id="Path_686" data-name="Path 686" d="M284.626,169.72l6.066,7.506,1.055-2.355-5.451-6.338Z" fill="#263238"/>
        <path id="Path_687" data-name="Path 687" d="M287.658,159.565l9.586-11.676a.9.9,0,0,1,1.318-.083l4.273,4.034a.9.9,0,0,1,.08,1.227l-9.734,11.944a.9.9,0,0,1-1.352.055l-4.125-4.3a.9.9,0,0,1-.046-1.2" fill="#407bff"/>
        <g id="Group_597" data-name="Group 597" opacity="0.3" style="mix-blend-mode: normal;isolation: isolate">
          <g id="Group_596" data-name="Group 596">
            <g id="Group_595" data-name="Group 595" clip-path="url(#clip-path-67)">
              <path id="Path_688" data-name="Path 688" d="M287.658,159.565l9.586-11.676a.9.9,0,0,1,1.318-.083l4.273,4.034a.9.9,0,0,1,.08,1.227l-9.734,11.944a.9.9,0,0,1-1.352.055l-4.125-4.3a.9.9,0,0,1-.046-1.2"/>
            </g>
          </g>
        </g>
        <path id="Path_689" data-name="Path 689" d="M287.272,159.1l9.586-11.675a.9.9,0,0,1,1.318-.084l4.273,4.034a.9.9,0,0,1,.08,1.227L292.8,164.541a.9.9,0,0,1-1.352.055l-4.125-4.3a.9.9,0,0,1-.046-1.2" fill="#407bff"/>
        <g id="Group_600" data-name="Group 600" opacity="0.6" style="mix-blend-mode: normal;isolation: isolate">
          <g id="Group_599" data-name="Group 599">
            <g id="Group_598" data-name="Group 598" clip-path="url(#clip-path-68)">
              <path id="Path_690" data-name="Path 690" d="M297.244,147.889l4.738,4.582-9.27,11.405-4.613-4.844Z" fill="#fff"/>
            </g>
          </g>
        </g>
      </g>
    </g>
  </g>
</svg>
