<svg xmlns="http://www.w3.org/2000/svg" xmlns:xlink="http://www.w3.org/1999/xlink" width="71.495" height="65.556" viewBox="0 0 71.495 65.556">
  <defs>
    <clipPath id="clip-path">
      <rect id="Rectangle_940" data-name="Rectangle 940" width="71.495" height="65.556" fill="none"/>
    </clipPath>
    <linearGradient id="linear-gradient" x1="0.5" x2="0.5" y2="1" gradientUnits="objectBoundingBox">
      <stop offset="0" stop-color="#4159f0"/>
      <stop offset="1" stop-color="#0827d5"/>
    </linearGradient>
  </defs>
  <g id="Group_401" data-name="Group 401" clip-path="url(#clip-path)">
    <path id="Path_452" data-name="Path 452" d="M43.922,11.01a14.327,14.327,0,0,1,27.527,6.465A14.093,14.093,0,0,1,66.9,26.936a14.027,14.027,0,0,1-9.654,3.823c-.586,1.905-1.087,3.784-1.738,5.609A51.971,51.971,0,0,1,40.394,58.117,53.958,53.958,0,0,1,30.1,65.3a1.628,1.628,0,0,1-1.719.018C16.351,58.489,7.46,48.922,2.733,35.781A48.659,48.659,0,0,1,.06,16.9c.059-1.285.282-1.473,1.575-1.7A45.187,45.187,0,0,0,27.963.845C29-.288,29.463-.29,30.493.894a42.574,42.574,0,0,0,13.048,9.965c.122.062.254.1.38.151M8.338,20.921c-.016.153-.035.266-.038.38a36.135,36.135,0,0,0,.792,8.8c2.608,11.65,9.65,19.966,19.645,26.055a.876.876,0,0,0,1.02-.029,43.756,43.756,0,0,0,7.953-5.884,37.606,37.606,0,0,0,11.772-20.8,1.119,1.119,0,0,0-.525-1.328,13.893,13.893,0,0,1-5.711-8.563,1,1,0,0,0-.705-.828,34.465,34.465,0,0,1-9.231-5.289c-1.432-1.16-2.776-2.43-4.18-3.668A38.417,38.417,0,0,1,8.338,20.921M29.076,3.011a1.761,1.761,0,0,1-.175.243A47.682,47.682,0,0,1,3.219,17.248c-.7.139-.9.379-.911,1.06A46.908,46.908,0,0,0,4.14,32.685C8.185,46.123,16.863,55.816,28.737,62.9a.847.847,0,0,0,1.025-.038c2.529-1.733,5.188-3.3,7.569-5.222a49.178,49.178,0,0,0,16.208-22.6c.5-1.449.885-2.936,1.324-4.4l-3.036-.868a.944.944,0,0,0-.087.165c-.036.111-.06.226-.084.341-2.762,12.817-10.4,21.909-21.6,28.295a1.5,1.5,0,0,1-1.713-.021c-2.049-1.356-4.217-2.565-6.125-4.1C11.306,45.694,5.509,34.469,6.034,20.273c.04-1.081.3-1.36,1.4-1.55A35.36,35.36,0,0,0,28.12,7.413c.813-.894,1.413-.9,2.2.028a31.849,31.849,0,0,0,8.626,7.024c1.252.71,2.571,1.3,3.885,1.964.113-.929.171-1.724.317-2.5A.7.7,0,0,0,42.7,13a42.121,42.121,0,0,1-8.521-5.418c-1.729-1.432-3.351-2.994-5.107-4.575m40.1,13.5A12.082,12.082,0,0,0,62.378,5.692a11.535,11.535,0,0,0-5.1-1.176,11.966,11.966,0,1,0,11.9,11.992" transform="translate(0 0)" fill="url(#linear-gradient)"/>
    <path id="Path_453" data-name="Path 453" d="M31.338,48.036A38.416,38.416,0,0,0,52.131,36.885c1.4,1.238,2.748,2.507,4.18,3.668a34.459,34.459,0,0,0,9.231,5.289,1,1,0,0,1,.705.828,13.9,13.9,0,0,0,5.711,8.564,1.118,1.118,0,0,1,.525,1.328,37.6,37.6,0,0,1-11.772,20.8,43.756,43.756,0,0,1-7.953,5.884.876.876,0,0,1-1.021.029c-10-6.089-17.038-14.4-19.645-26.055a36.122,36.122,0,0,1-.792-8.8c0-.114.022-.227.038-.38M52.5,73.876c.516,0,1.031.006,1.547,0,.938-.012,1.307-.34,1.427-1.277.071-.557.094-1.122.192-1.674a.759.759,0,0,1,.352-.5c1.713-.767,1.717-.759,3.165.406.128.1.253.209.385.306a1.166,1.166,0,0,0,1.753-.1c.758-.733,1.5-1.481,2.239-2.235a1.186,1.186,0,0,0,.114-1.8c-.34-.448-.721-.866-1.038-1.329a.847.847,0,0,1-.077-.6,2.361,2.361,0,0,1,2.816-2.06.546.546,0,0,0,.14-.013,1.169,1.169,0,0,0,1.127-1.276q.022-1.652,0-3.3a1.125,1.125,0,0,0-1.074-1.242c-.554-.092-1.12-.109-1.672-.21a.824.824,0,0,1-.5-.347c-.738-1.252-.9-2.451.425-3.458a.264.264,0,0,0,.043-.055,1.2,1.2,0,0,0-.1-1.858Q62.7,50.163,61.62,49.1c-.675-.665-1.262-.778-1.891-.106a2.22,2.22,0,0,1-3.252.449,1.315,1.315,0,0,1-.526-.68c-.126-.543-.12-1.116-.2-1.672a1.156,1.156,0,0,0-1.276-1.123c-.937-.015-1.875-.005-2.813,0-1.41,0-1.712.242-1.782,1.642-.054,1.091-.23,2.024-1.55,2.194-.111.014-.213.135-.319.135a1.433,1.433,0,0,1-.739-.08c-.524-.35-.991-.785-1.5-1.166a1.14,1.14,0,0,0-1.7.086q-1.188,1.148-2.336,2.337a1.136,1.136,0,0,0-.07,1.7,13.967,13.967,0,0,0,1.013,1.259c.354.371.316.676.18,1.164a1.821,1.821,0,0,1-2.093,1.539,4.475,4.475,0,0,0-.909.08,1.156,1.156,0,0,0-1.132,1.267q-.023,1.652,0,3.3A1.133,1.133,0,0,0,39.8,62.675a3.036,3.036,0,0,0,.7.068c1.228-.057,2.123.34,2.3,1.687a1.246,1.246,0,0,1-.1.79c-.391.581-.865,1.107-1.292,1.665a1.117,1.117,0,0,0,.079,1.589q1.194,1.241,2.438,2.434a1.116,1.116,0,0,0,1.535.106,3.3,3.3,0,0,0,.6-.479,1.873,1.873,0,0,1,2.767-.444c.347.235.569.407.6.827.04.607.1,1.214.182,1.817a1.161,1.161,0,0,0,1.263,1.137c.539.015,1.078,0,1.617,0" transform="translate(-23 -27.115)" fill="#fff"/>
    <path id="Path_454" data-name="Path 454" d="M35.462,11.367c1.756,1.581,3.378,3.143,5.107,4.575a42.14,42.14,0,0,0,8.521,5.418.7.7,0,0,1,.447.922c-.146.778-.2,1.573-.317,2.5-1.315-.66-2.633-1.254-3.885-1.964A31.85,31.85,0,0,1,36.709,15.8c-.79-.927-1.391-.922-2.2-.028a35.359,35.359,0,0,1-20.687,11.31c-1.1.19-1.359.469-1.4,1.55-.525,14.2,5.272,25.421,16.185,34.182,1.908,1.532,4.076,2.74,6.124,4.1a1.5,1.5,0,0,0,1.713.021c11.194-6.386,18.836-15.477,21.6-28.295.025-.114.049-.229.085-.341a.917.917,0,0,1,.087-.165L61.247,39c-.438,1.469-.827,2.955-1.324,4.4A49.175,49.175,0,0,1,43.716,66c-2.381,1.917-5.04,3.489-7.569,5.222a.847.847,0,0,1-1.025.038c-11.873-7.084-20.551-16.777-24.6-30.216A46.906,46.906,0,0,1,8.694,26.664c.011-.682.209-.922.911-1.06A47.681,47.681,0,0,0,35.286,11.61a1.766,1.766,0,0,0,.176-.243" transform="translate(-6.385 -8.356)" fill="#fff"/>
    <path id="Path_456" data-name="Path 456" d="M73.127,99.074c-.539,0-1.079.011-1.617,0a1.161,1.161,0,0,1-1.263-1.137c-.078-.6-.142-1.21-.182-1.817-.028-.419-.25-.592-.6-.827a1.873,1.873,0,0,0-2.766.443,3.324,3.324,0,0,1-.6.48,1.117,1.117,0,0,1-1.535-.106q-1.24-1.2-2.438-2.434a1.118,1.118,0,0,1-.079-1.589c.427-.558.9-1.083,1.292-1.665a1.243,1.243,0,0,0,.1-.79c-.18-1.347-1.074-1.745-2.3-1.687a3.034,3.034,0,0,1-.7-.068,1.132,1.132,0,0,1-1.067-1.251q-.024-1.652,0-3.3A1.156,1.156,0,0,1,60.5,82.051a4.457,4.457,0,0,1,.909-.08A1.821,1.821,0,0,0,63.5,80.433c.137-.488.174-.793-.179-1.164a13.966,13.966,0,0,1-1.013-1.259,1.136,1.136,0,0,1,.07-1.7q1.146-1.19,2.336-2.337a1.14,1.14,0,0,1,1.7-.086c.505.381.972.816,1.5,1.165a1.436,1.436,0,0,0,.739.08c.106,0,.208-.121.319-.135,1.32-.17,1.5-1.1,1.55-2.194.069-1.4.372-1.641,1.782-1.643.938,0,1.875-.01,2.813.005a1.156,1.156,0,0,1,1.276,1.123c.08.556.074,1.128.2,1.672a1.315,1.315,0,0,0,.526.68,2.22,2.22,0,0,0,3.252-.449c.629-.671,1.216-.559,1.891.106q1.077,1.061,2.136,2.139a1.2,1.2,0,0,1,.1,1.858.262.262,0,0,1-.043.055c-1.323,1.007-1.164,2.205-.426,3.458a.83.83,0,0,0,.5.347c.552.1,1.118.117,1.672.21a1.125,1.125,0,0,1,1.074,1.242q.023,1.652,0,3.3a1.169,1.169,0,0,1-1.127,1.276A.525.525,0,0,1,86,88.2a2.361,2.361,0,0,0-2.816,2.06.847.847,0,0,0,.077.6c.317.463.7.881,1.038,1.329a1.186,1.186,0,0,1-.114,1.8c-.737.755-1.481,1.5-2.239,2.235a1.166,1.166,0,0,1-1.753.1c-.132-.1-.257-.2-.385-.307-1.448-1.166-1.452-1.174-3.165-.406a.761.761,0,0,0-.352.5c-.1.552-.12,1.117-.191,1.674-.12.938-.49,1.265-1.427,1.278-.515.007-1.031,0-1.547,0M81.12,76.508c-.474.378-.933.739-1.388,1.107a1.315,1.315,0,0,1-1.56.122,28.849,28.849,0,0,0-2.767-1.168,1.276,1.276,0,0,1-.987-1.128c-.068-.647-.161-1.292-.246-1.954H72.761c-.082.649-.174,1.271-.235,1.9a1.322,1.322,0,0,1-1.077,1.209A14.939,14.939,0,0,0,69,77.605a1.451,1.451,0,0,1-1.855-.175c-.466-.41-.969-.777-1.359-1.087l-1.13.912c.466.586.864,1.106,1.283,1.609a1.342,1.342,0,0,1,.131,1.619A24.157,24.157,0,0,0,65.014,83a1.348,1.348,0,0,1-1.269,1.017c-.691.054-1.377.164-2.061.249v1.417c.706.088,1.377.2,2.053.248A1.353,1.353,0,0,1,65,87.035a21.254,21.254,0,0,0,.951,2.4,1.371,1.371,0,0,1-.15,1.622c-.459.552-.892,1.125-1.25,1.579l.928,1.117c.562-.448,1.1-.862,1.619-1.292a1.336,1.336,0,0,1,1.621-.12,25.987,25.987,0,0,0,2.49,1.107,1.369,1.369,0,0,1,1,1.284c.048.671.158,1.339.242,2.018h1.417c.079-.65.177-1.271.226-1.9a1.381,1.381,0,0,1,1.225-1.314,11.086,11.086,0,0,0,2.289-.856,1.547,1.547,0,0,1,1.981.206c.426.386.9.721,1.268,1.015l1.112-.927c-.429-.54-.8-1.02-1.185-1.49a1.311,1.311,0,0,1-.116-1.561c.445-.9.862-1.809,1.226-2.74a1.33,1.33,0,0,1,1.217-.984c.618-.051,1.232-.155,1.821-.233v-1.42c-.581-.065-1.114-.132-1.65-.183a1.4,1.4,0,0,1-1.32-1.14,20.347,20.347,0,0,0-1.085-2.724,1.316,1.316,0,0,1,.132-1.557c.384-.469.754-.949,1.107-1.4l-1-1.045" transform="translate(-43.631 -52.313)" fill="url(#linear-gradient)"/>
    <path id="Path_457" data-name="Path 457" d="M190.708,49.536c3.055-2.625,6.057-5.2,9.06-7.784a3.652,3.652,0,0,1,.549-.435,1.061,1.061,0,0,1,1.452.244,1.042,1.042,0,0,1-.006,1.468,6.8,6.8,0,0,1-.773.714q-4.582,3.942-9.167,7.88c-1.089.935-1.505.908-2.46-.136-.823-.9-1.652-1.791-2.472-2.692-.585-.642-.622-1.313-.113-1.8a1.2,1.2,0,0,1,1.785.218c.706.749,1.4,1.511,2.146,2.319" transform="translate(-137.042 -30.239)" fill="url(#linear-gradient)"/>
    <path id="Path_458" data-name="Path 458" d="M87.591,82.956l1,1.045c-.354.447-.723.927-1.107,1.4a1.316,1.316,0,0,0-.132,1.557,20.348,20.348,0,0,1,1.085,2.724,1.4,1.4,0,0,0,1.32,1.14c.535.051,1.069.118,1.65.183v1.421c-.589.077-1.2.181-1.821.233a1.329,1.329,0,0,0-1.216.984c-.364.931-.781,1.845-1.226,2.74a1.311,1.311,0,0,0,.116,1.561c.384.471.757.95,1.185,1.49l-1.112.926c-.37-.294-.842-.629-1.268-1.015a1.547,1.547,0,0,0-1.981-.206,11.071,11.071,0,0,1-2.289.856,1.38,1.38,0,0,0-1.225,1.314c-.05.626-.147,1.247-.227,1.9H78.927c-.084-.679-.194-1.347-.242-2.018a1.369,1.369,0,0,0-1-1.284,25.891,25.891,0,0,1-2.49-1.107,1.336,1.336,0,0,0-1.621.12c-.522.43-1.057.844-1.619,1.292l-.929-1.117c.358-.454.792-1.027,1.251-1.579a1.371,1.371,0,0,0,.15-1.622,21.236,21.236,0,0,1-.951-2.4,1.353,1.353,0,0,0-1.266-1.108c-.675-.05-1.346-.16-2.053-.248V90.71c.683-.085,1.37-.195,2.061-.249a1.349,1.349,0,0,0,1.269-1.017,24.16,24.16,0,0,1,1.052-2.513,1.342,1.342,0,0,0-.131-1.619c-.419-.5-.817-1.023-1.283-1.609l1.13-.912c.391.31.894.678,1.359,1.087a1.451,1.451,0,0,0,1.855.175,14.968,14.968,0,0,1,2.452-1.014A1.322,1.322,0,0,0,79,81.829c.061-.625.153-1.247.235-1.9h1.412c.084.663.177,1.307.246,1.954a1.276,1.276,0,0,0,.987,1.128,28.878,28.878,0,0,1,2.767,1.168,1.316,1.316,0,0,0,1.56-.121c.454-.368.914-.729,1.388-1.107m-7.657,2.231a6.315,6.315,0,1,0,6.33,6.344,6.331,6.331,0,0,0-6.33-6.344" transform="translate(-50.103 -58.76)" fill="#fff"/>
    <path id="Path_459" data-name="Path 459" d="M95.064,99.768a6.315,6.315,0,1,1-6.327,6.282,6.317,6.317,0,0,1,6.327-6.282m-.044,10.327a4.015,4.015,0,1,0-3.972-4.061,4.032,4.032,0,0,0,3.972,4.061" transform="translate(-65.232 -73.341)" fill="url(#linear-gradient)"/>
    <path id="Path_460" data-name="Path 460" d="M101.433,116.471a4.015,4.015,0,1,1,4.075-3.965,4.021,4.021,0,0,1-4.075,3.965" transform="translate(-71.645 -79.718)" fill="#fff"/>
  </g>
</svg>
