<svg xmlns="http://www.w3.org/2000/svg" xmlns:xlink="http://www.w3.org/1999/xlink" width="85" height="85" viewBox="0 0 85 85">
  <defs>
    <clipPath id="clip-path">
      <rect id="Rectangle_2257" data-name="Rectangle 2257" width="33.426" height="54.315" fill="#fff"/>
    </clipPath>
  </defs>
  <g id="Group_1786" data-name="Group 1786" transform="translate(-1078 -2524)">
    <g id="Ellipse_25" data-name="Ellipse 25" transform="translate(1078 2524)" fill="none" stroke="#fff" stroke-linecap="round" stroke-width="5" stroke-dasharray="25 20">
      <circle cx="42.5" cy="42.5" r="42.5" stroke="none"/>
      <circle cx="42.5" cy="42.5" r="40" fill="none"/>
    </g>
    <g id="Group_1762" data-name="Group 1762" transform="translate(1104.068 2539.338)">
      <g id="Group_1761" data-name="Group 1761" transform="translate(0 0)" clip-path="url(#clip-path)">
        <path id="Path_1794" data-name="Path 1794" d="M19.055.212S19.98.4,20.9.636A16.762,16.762,0,0,1,33.368,15.417,16.46,16.46,0,0,1,29,28.248a13.683,13.683,0,0,0-3.648,7.591c-.07.541-.084,1.09-.117,1.636a1.592,1.592,0,0,1-1.729,1.66q-6.776.012-13.551,0c-1.14,0-1.731-.622-1.765-1.849A13.267,13.267,0,0,0,4.58,28.43a17.57,17.57,0,0,1-2.9-4.211A16.837,16.837,0,0,1,13.327.451C13.863.337,14.4.212,14.4.212a12.909,12.909,0,0,1,4.659,0M22.12,35.935c.055-.369.1-.716.16-1.062a16.977,16.977,0,0,1,4.407-8.8,13.117,13.117,0,0,0,3.444-11.037A13.5,13.5,0,0,0,14.413,3.489,13.6,13.6,0,0,0,6.79,26.127a16.717,16.717,0,0,1,4.16,7.731c.157.683.257,1.378.386,2.077Z" transform="translate(0 0)" fill="#fff"/>
        <path id="Path_1795" data-name="Path 1795" d="M87.628,389.751c-2.205,0-4.41.006-6.615,0a1.577,1.577,0,0,1-.509-3.1,2.862,2.862,0,0,1,.681-.072q6.457-.006,12.914,0a1.64,1.64,0,0,1,1.8,1.232,1.578,1.578,0,0,1-1.655,1.939c-2.205.012-4.41,0-6.615,0" transform="translate(-70.916 -345.566)" fill="#fff"/>
        <path id="Path_1796" data-name="Path 1796" d="M87.544,437.442q-3.361,0-6.723,0a1.51,1.51,0,0,1-1.439-.9,1.49,1.49,0,0,1,.144-1.6,1.592,1.592,0,0,1,1.371-.669q6.643,0,13.286,0a1.586,1.586,0,1,1-.023,3.168c-2.206.007-4.411,0-6.617,0" transform="translate(-70.81 -388.198)" fill="#fff"/>
        <path id="Path_1797" data-name="Path 1797" d="M108.488,485.223c-1.356,0-2.713,0-4.069,0a1.593,1.593,0,1,1-.025-3.173q4.1-.007,8.192,0a1.6,1.6,0,1,1-.028,3.174c-1.356,0-2.713,0-4.069,0" transform="translate(-91.783 -430.909)" fill="#fff"/>
      </g>
    </g>
  </g>
</svg>
