<svg xmlns="http://www.w3.org/2000/svg" xmlns:xlink="http://www.w3.org/1999/xlink" width="1681.5" height="482.257" viewBox="0 0 1681.5 482.257">
  <defs>
    <clipPath id="clip-path">
      <rect id="Rectangle_2237" data-name="Rectangle 2237" width="100.486" height="100.462" fill="#2742e4"/>
    </clipPath>
    <clipPath id="clip-path-2">
      <rect id="Rectangle_2255" data-name="Rectangle 2255" width="115.174" height="121.398" transform="translate(0 -6)" fill="#2742e4" stroke="#2742e4" stroke-width="2"/>
    </clipPath>
    <clipPath id="clip-path-3">
      <rect id="Rectangle_2256" data-name="Rectangle 2256" width="113.461" height="102.858" fill="#2742e4"/>
    </clipPath>
    <clipPath id="clip-path-4">
      <rect id="Rectangle_2258" data-name="Rectangle 2258" width="88.725" height="102.602" fill="#2742e4"/>
    </clipPath>
  </defs>
  <g id="Group_1787" data-name="Group 1787" transform="translate(-154.5 -1673.097)">
    <g id="Group_1739" data-name="Group 1739" transform="translate(-7 82.399)">
      <text id="Gain_experience_and_support_while_remaining_independent" data-name="Gain experience and support 
while remaining independent" transform="translate(163.5 1971)" stroke="#000" stroke-width="2" font-size="21" font-family="FONTSPRINGDEMO-CommutersSansThinRegular, FONTSPRING DEMO - Commuters Sans" font-weight="200"><tspan x="0" y="0">Gain experience and support </tspan><tspan x="0" y="33">while remaining independent</tspan></text>
      <text id="We_ll_take_care_of_finding_customers" data-name="We&apos;ll take care of finding customers" transform="translate(999 2006.486)" stroke="#000" stroke-width="2" font-size="21" font-family="FONTSPRINGDEMO-CommutersSansThinRegular, FONTSPRING DEMO - Commuters Sans" font-weight="200"><tspan x="0" y="0">We</tspan><tspan y="0" font-family="ErasITC-Medium, Eras ITC" font-weight="500">&apos;</tspan><tspan y="0">ll take care of finding customers</tspan></text>
      <text id="_Focus_on_your_mission_" data-name=" Focus on your mission
" transform="translate(1061 1976.986)" stroke="#000" stroke-width="2" font-size="21" font-family="FONTSPRINGDEMO-CommutersSansThinRegular, FONTSPRING DEMO - Commuters Sans" font-weight="200"><tspan x="0" y="0" xml:space="preserve"> Focus on your mission</tspan><tspan x="0" y="33"></tspan></text>
      <text id="Work_according_to_your_availability_and_goals" data-name="Work according to your 
availability and goals" transform="translate(622 1631.839)" stroke="#000" stroke-width="2" font-size="21" font-family="FONTSPRINGDEMO-CommutersSansThinRegular, FONTSPRING DEMO - Commuters Sans" font-weight="200"><tspan x="0" y="0">Work according to your </tspan><tspan x="0" y="33">availability and goals</tspan></text>
      <text id="Gain_experience_with_reputable_institutions_and_companies" data-name="Gain experience with reputable 
   institutions and companies" transform="translate(1492 1631.839)" stroke="#000" stroke-width="2" font-size="21" font-family="FONTSPRINGDEMO-CommutersSansThinRegular, FONTSPRING DEMO - Commuters Sans" font-weight="200"><tspan x="0" y="0">Gain experience with reputable </tspan><tspan x="0" y="33" xml:space="preserve">   institutions and companies</tspan></text>
      <circle id="Ellipse_18" data-name="Ellipse 18" cx="105" cy="105" r="105" transform="translate(212 1707)" fill="#89a1a8" opacity="0.21"/>
      <circle id="Ellipse_19" data-name="Ellipse 19" cx="105" cy="105" r="105" transform="translate(1081 1707)" fill="#89a1a8" opacity="0.21"/>
      <circle id="Ellipse_21" data-name="Ellipse 21" cx="105" cy="105" r="105" transform="translate(622 1707)" fill="#89a1a8" opacity="0.21"/>
      <circle id="Ellipse_20" data-name="Ellipse 20" cx="105" cy="105" r="105" transform="translate(1499 1707)" fill="#89a1a8" opacity="0.21"/>
      <circle id="Ellipse_17" data-name="Ellipse 17" cx="83" cy="83" r="83" transform="translate(644 1729)" fill="#fff"/>
      <circle id="Ellipse_16" data-name="Ellipse 16" cx="83" cy="83" r="83" transform="translate(234 1729)" fill="#fff"/>
      <circle id="Ellipse_14" data-name="Ellipse 14" cx="83" cy="83" r="83" transform="translate(1103 1729)" fill="#fff"/>
      <circle id="Ellipse_15" data-name="Ellipse 15" cx="83" cy="83" r="83" transform="translate(1521 1729)" fill="#fff"/>
      <path id="Path_1767" data-name="Path 1767" d="M-9552.074,1912.017s101.545-280.1,204.992-110.982" transform="matrix(0.819, 0.574, -0.574, 0.819, 9321.289, 5644.132)" fill="none" stroke="#2742e4" stroke-linecap="round" stroke-width="3" stroke-dasharray="10"/>
      <path id="Path_1771" data-name="Path 1771" d="M-9552.072,1886.058s123.243-236.1,248.8-93.549" transform="matrix(0.934, 0.358, -0.358, 0.934, 10848.529, 3385.243)" fill="none" stroke="#2742e4" stroke-linecap="round" stroke-width="3" stroke-dasharray="10"/>
      <path id="Path_1770" data-name="Path 1770" d="M-9552.072,1953.242s163.059-349.97,329.175-138.667" transform="matrix(-0.966, -0.259, 0.259, -0.966, -8640.615, 1285.967)" fill="none" stroke="#2742e4" stroke-linecap="round" stroke-width="3" stroke-dasharray="10"/>
    </g>
    <g id="Group_1758" data-name="Group 1758" transform="translate(669 1841.77)">
      <g id="Group_1744" data-name="Group 1744" clip-path="url(#clip-path)">
        <path id="Path_1775" data-name="Path 1775" d="M0,47.282c.254-1.9.443-3.814.772-5.7A49.181,49.181,0,0,1,17.165,12.437,48.441,48.441,0,0,1,43.338.479,49.541,49.541,0,0,1,77.841,8.3,49.2,49.2,0,0,1,92.019,22.362c.137.205.3.4.6.8V21.988c0-3.107-.011-6.214,0-9.32a3.933,3.933,0,1,1,7.842.015c.013,3.7.03,7.391,0,11.086A12.548,12.548,0,0,1,87.783,36.481c-3.858.041-7.718.019-11.577,0a3.929,3.929,0,1,1,0-7.84c3.432-.016,6.864,0,10.522,0-.583-.907-1.046-1.712-1.589-2.457C76.062,13.722,63.8,7.483,48.4,7.921A40.284,40.284,0,0,0,22.009,18.7,40.993,40.993,0,0,0,8.782,41.535C6.33,53.733,8.661,65,16,75.086A41.48,41.48,0,0,0,41.532,91.694a40.809,40.809,0,0,0,11.307.831,9.313,9.313,0,0,1,2.431.087,3.829,3.829,0,0,1,2.994,4.044,3.937,3.937,0,0,1-3.539,3.611l-1.938.2H47.293c-1.325-.159-2.654-.292-3.976-.479a49.064,49.064,0,0,1-26.16-11.977A49.176,49.176,0,0,1,.772,58.87c-.33-1.888-.518-3.8-.772-5.7V47.282" transform="translate(0 0)" fill="#2742e4"/>
        <path id="Path_1776" data-name="Path 1776" d="M148.606,80.313c0,5.068-.017,10.137.011,15.205a4.677,4.677,0,0,1-1.439,3.513q-7.5,7.48-14.993,14.973c-2.4,2.388-6.013,1.566-6.826-1.539a3.9,3.9,0,0,1,1.192-3.927l4.856-4.856c2.844-2.844,5.674-5.7,8.544-8.52a2.477,2.477,0,0,0,.828-1.953q-.048-14.126-.018-28.253a4,4,0,0,1,2.6-4.082,3.916,3.916,0,0,1,5.236,3.841c.031,4.97.009,9.941.009,14.911v.687" transform="translate(-94.444 -45.735)" fill="#2742e4"/>
        <path id="Path_1777" data-name="Path 1777" d="M270.626,362.737a4.073,4.073,0,0,1-3.755-2.993,3.776,3.776,0,0,1,1.75-4.3,43.5,43.5,0,0,1,4.019-2.024,3.862,3.862,0,0,1,5.006,1.812,3.812,3.812,0,0,1-1.418,5.054c-1.314.784-2.71,1.435-4.1,2.088a7.515,7.515,0,0,1-1.506.365" transform="translate(-201.176 -266.311)" fill="#2742e4"/>
        <path id="Path_1778" data-name="Path 1778" d="M369.46,235.708a44.207,44.207,0,0,1,1.5-4.976,3.692,3.692,0,0,1,4.583-1.839,3.733,3.733,0,0,1,2.63,4.18,31.363,31.363,0,0,1-1.247,4.821,3.787,3.787,0,0,1-4.552,2.284c-1.688-.348-2.935-1.97-2.919-4.47" transform="translate(-278.656 -172.489)" fill="#2742e4"/>
        <path id="Path_1779" data-name="Path 1779" d="M336.875,300.867a3.842,3.842,0,0,1,3.34,5.8,24.529,24.529,0,0,1-3.256,4.024,3.778,3.778,0,0,1-5.164.056,3.832,3.832,0,0,1-.626-5.14c.9-1.241,1.892-2.417,2.9-3.569a3.492,3.492,0,0,1,2.8-1.17" transform="translate(-249.235 -226.921)" fill="#2742e4"/>
      </g>
    </g>
    <g id="Group_1757" data-name="Group 1757" transform="translate(255.305 1834.301)">
      <g id="Group_1756" data-name="Group 1756" clip-path="url(#clip-path-2)">
        <path id="Path_1784" data-name="Path 1784" d="M94.735,115.4c-.378-.141-.755-.289-1.135-.423a7.367,7.367,0,0,1-4.972-6.711c-.032-.821,0-1.645,0-2.516-.546-.134-1.019-.231-1.481-.368a7.843,7.843,0,0,1-5.628-7.689c-.03-4.355-.1-8.713.016-13.065.15-5.492-2.106-9.612-6.429-12.9-8.936-6.8-14.32-15.851-15.581-27.007C57.884,30.252,62.912,18.233,74.045,8.9A37.969,37.969,0,0,1,95.341.188,4.878,4.878,0,0,0,96.084,0h5.849c2.129.371,4.284.634,6.384,1.132a39.692,39.692,0,0,1,30.3,35.167c1.171,14.723-4.38,26.6-15.965,35.633a14.654,14.654,0,0,0-5.984,9.42,16.567,16.567,0,0,0-.15,2.581c-.014,4.355-.005,8.711-.007,13.066,0,4.728-2.051,7.392-6.61,8.608a5.23,5.23,0,0,0-.491.192c0,.662.011,1.334,0,2.005a7.439,7.439,0,0,1-5.635,7.367,3.5,3.5,0,0,0-.489.226Zm18.433-33.839c.12-.6.224-1.187.353-1.766,1.047-4.669,3.889-7.984,7.556-10.944,11.673-9.425,16.583-21.723,13.521-36.46-4.675-22.5-27.909-34.7-49.268-26.319a36.533,36.533,0,0,0-7.555,63.49,17.373,17.373,0,0,1,6.518,9.457c.233.824.375,1.674.566,2.542Zm-.087,3.49H84.973v6.843H113.08ZM84.881,95.38c0,.683,0,1.241,0,1.8.006,3.4,1.733,5.145,5.094,5.147q9.039,0,18.078,0a7.058,7.058,0,0,0,1.559-.12c2.82-.649,4.2-3.466,3.349-6.82Zm21.11,10.393H92c0,.847-.035,1.63.007,2.409A3.963,3.963,0,0,0,95.851,112c2.1.063,4.2.059,6.3,0a3.977,3.977,0,0,0,3.828-3.476c.091-.885.016-1.786.016-2.749" transform="translate(-41.422)" fill="#2742e4" stroke="#2742e4" stroke-width="2"/>
        <path id="Path_1785" data-name="Path 1785" d="M0,92.265a2.262,2.262,0,0,1,2.95-.711c2.839,1.04,5.721,1.96,8.58,2.944,1.231.424,1.756,1.295,1.409,2.261-.354.985-1.265,1.335-2.5.92-2.973-1-5.95-1.984-8.9-3.036A7.413,7.413,0,0,1,0,93.617V92.265" transform="translate(0 -63.866)" fill="#2742e4" stroke="#2742e4" stroke-width="2"/>
        <path id="Path_1786" data-name="Path 1786" d="M0,154.97a9.143,9.143,0,0,1,1.807-1.189c2.844-1.03,5.718-1.978,8.587-2.94,1.307-.438,2.254-.064,2.575.977.294.952-.27,1.8-1.516,2.225q-4.346,1.487-8.7,2.951c-1.411.475-1.851.323-2.754-.9V154.97" transform="translate(0 -105.385)" fill="#2742e4" stroke="#2742e4" stroke-width="2"/>
        <path id="Path_1787" data-name="Path 1787" d="M351.157,91.126a1.681,1.681,0,0,1,.445,3.3q-3.6,1.242-7.212,2.464c-.814.277-1.615.6-2.446.812a1.56,1.56,0,0,1-1.987-1.029,1.457,1.457,0,0,1,.82-2.058c3.337-1.2,6.71-2.3,10.071-3.442a1.711,1.711,0,0,1,.309-.05" transform="translate(-237.693 -63.741)" fill="#2742e4" stroke="#2742e4" stroke-width="2"/>
        <path id="Path_1788" data-name="Path 1788" d="M341.689,150.526c.2.053.53.118.846.224q4.406,1.487,8.807,2.988c1.242.425,1.8,1.274,1.5,2.226-.328,1.031-1.279,1.4-2.582.96q-4.514-1.515-9.02-3.055a1.668,1.668,0,0,1-1.323-1.938,1.632,1.632,0,0,1,1.775-1.4" transform="translate(-237.745 -105.291)" fill="#2742e4" stroke="#2742e4" stroke-width="2"/>
        <path id="Path_1789" data-name="Path 1789" d="M124.557,95.161A28.793,28.793,0,1,1,153.35,66.368a28.769,28.769,0,0,1-28.793,28.793m0-54.281a25.487,25.487,0,1,0,25.488,25.487,25.516,25.516,0,0,0-25.488-25.487" transform="translate(-66.985 -26.283)" fill="#2742e4" stroke="#2742e4" stroke-width="2"/>
        <path id="Path_1790" data-name="Path 1790" d="M165.025,95.945a11.512,11.512,0,1,1,11.512-11.512,11.525,11.525,0,0,1-11.512,11.512m0-20.32a8.808,8.808,0,1,0,8.808,8.808,8.818,8.818,0,0,0-8.808-8.808" transform="translate(-107.38 -51.006)" fill="#2742e4" stroke="#2742e4" stroke-width="2"/>
        <path id="Path_1791" data-name="Path 1791" d="M158.127,156.547c-.564-2.475-2.495-8.576-8.215-11.763-3.7-2.061-7.439-2-9.914-1.966a20.874,20.874,0,0,0-11.139,2.882,19.966,19.966,0,0,0-8.054,10.141l-3.109-1.123a23.29,23.29,0,0,1,9.42-11.826,23.911,23.911,0,0,1,12.83-3.379,21.966,21.966,0,0,1,11.574,2.384c6.882,3.835,9.166,11.009,9.829,13.916Z" transform="translate(-82.327 -97.579)" fill="#2742e4" stroke="#2742e4" stroke-width="2"/>
      </g>
    </g>
    <g id="Group_1760" data-name="Group 1760" transform="translate(1120.164 1839.452)">
      <g id="Group_1759" data-name="Group 1759" clip-path="url(#clip-path-3)">
        <path id="Path_1792" data-name="Path 1792" d="M113.461,186.727a3.3,3.3,0,0,1-3.44,2.016Q56.73,188.7,3.44,188.722c-.148,0-.3,0-.443,0-1.813-.026-3.018-1.11-3-2.7a2.689,2.689,0,0,1,2.957-2.618c3.73-.013,7.46,0,11.19,0h1.817v-1.33q0-15.289,0-30.578c0-2.684.879-3.55,3.6-3.551q7.257,0,14.514,0c2.32,0,3.3.966,3.3,3.3q.01,15.289,0,30.578v1.507h8.673V182.02q0-21.77,0-43.541c0-2.676.816-3.484,3.517-3.485q7.257,0,14.514,0c2.446,0,3.317.884,3.318,3.351q0,21.826,0,43.652v1.35h8.673v-1.4q0-28.03,0-56.06c0-.406-.017-.814.016-1.218a2.643,2.643,0,0,1,2.816-2.652q7.866-.029,15.732,0c1.828.007,2.842,1.122,2.846,3.075q.015,8.808,0,17.616V183.4h1.234c3.767,0,7.535.05,11.3-.023a3.259,3.259,0,0,1,3.439,2.018Zm-31.986-3.415H92.111V127.389H81.474Zm-30.05.008H62.007V140.39H51.425ZM32.008,153.353H21.343v29.979H32.008Z" transform="translate(0 -85.885)" fill="#2742e4"/>
        <path id="Path_1793" data-name="Path 1793" d="M126.713,5.324h-9.3c-.406,0-.813.008-1.219,0a2.66,2.66,0,0,1-2.813-2.643A2.629,2.629,0,0,1,116.17.014c2.622-.027,5.244-.008,7.866-.009,2.659,0,5.318-.017,7.976.007a2.65,2.65,0,0,1,2.851,2.84q.037,7.921,0,15.842a2.655,2.655,0,1,1-5.3-.021c-.022-2.326-.006-4.653-.007-6.98V10.348c-.452.5-.717.784-.968,1.077A153.653,153.653,0,0,1,57.042,58.688c-1.846.585-3.274-.031-3.788-1.6-.505-1.537.344-2.885,2.187-3.471.035-.011.072-.018.107-.029A148.158,148.158,0,0,0,94.321,35.016,147.579,147.579,0,0,0,125.8,6.472c.256-.31.5-.629.91-1.148" transform="translate(-37.386 0.001)" fill="#2742e4"/>
      </g>
    </g>
    <g id="Group_1764" data-name="Group 1764" transform="translate(1559.637 1850.398)">
      <g id="Group_1763" data-name="Group 1763" clip-path="url(#clip-path-4)">
        <path id="Path_1798" data-name="Path 1798" d="M0,46.15Q0,31.726.007,17.3A17.016,17.016,0,0,1,13.751.356,17.427,17.427,0,0,1,17.242.021Q37.561-.013,57.88.012A17.056,17.056,0,0,1,75.1,17.215c.02,5.591.007,11.183,0,16.774,0,2.27-1.393,3.827-3.4,3.834s-3.42-1.555-3.422-3.813q-.008-8.174,0-16.347c-.007-6.431-4.364-10.814-10.763-10.816q-19.945-.008-39.891,0c-6.407,0-10.784,4.381-10.785,10.794q-.006,28.528,0,57.055c0,6.41,4.382,10.789,10.789,10.793Q30.9,85.5,44.18,85.5a3.421,3.421,0,0,1,3.374,4.657,3.477,3.477,0,0,1-3.465,2.174q-7.466.01-14.933,0c-3.946,0-7.893.009-11.839,0A17.068,17.068,0,0,1,.007,75Q-.014,60.574,0,46.15" transform="translate(0 0)" fill="#2742e4"/>
        <path id="Path_1799" data-name="Path 1799" d="M174.445,200.8c0-2.741.026-5.482-.025-8.222a2.211,2.211,0,0,0-.552-1.373c-5.732-5.932-7.729-12.925-5.278-20.8,2.432-7.819,7.967-12.54,16-14.132,11.182-2.216,22.5,6.173,23.8,17.528a20.424,20.424,0,0,1-6.045,17.393,2.169,2.169,0,0,0-.569,1.364q-.059,7.9-.014,15.8a5.247,5.247,0,0,1-2.7,5.073,5.135,5.135,0,0,1-5.8-.553c-1.481-1.043-3.014-2.013-4.5-3.052a.975.975,0,0,0-1.317-.006c-1.567,1.106-3.178,2.148-4.767,3.223a4.99,4.99,0,0,1-5.525.4,5.084,5.084,0,0,1-2.715-4.847c.017-2.6,0-5.2,0-7.8m0-24.384A13.653,13.653,0,1,0,188.125,162.8a13.7,13.7,0,0,0-13.679,13.622m6.854,29.316c1.536-1.029,2.915-1.949,4.289-2.874,2-1.35,3.032-1.35,5.057.011l4.2,2.824v-9.871a20.4,20.4,0,0,1-13.548,0Z" transform="translate(-119.826 -111.497)" fill="#2742e4"/>
        <path id="Path_1800" data-name="Path 1800" d="M77.645,132.048c4.728,0,9.457-.011,14.185.007a3.365,3.365,0,0,1,3.325,2.5,3.281,3.281,0,0,1-1.479,3.78,4.106,4.106,0,0,1-1.911.53q-14.132.05-28.264.018a3.419,3.419,0,1,1,.066-6.829c4.693-.012,9.386,0,14.079,0" transform="translate(-42.861 -94.427)" fill="#2742e4"/>
        <path id="Path_1801" data-name="Path 1801" d="M75.4,72.037q5.706,0,11.411,0c2.273,0,3.824,1.381,3.838,3.393s-1.539,3.441-3.788,3.443q-11.571.008-23.143,0c-2.245,0-3.8-1.43-3.782-3.449s1.556-3.383,3.84-3.386q5.812-.007,11.625,0" transform="translate(-42.861 -51.514)" fill="#2742e4"/>
        <path id="Path_1802" data-name="Path 1802" d="M72.842,180.056c3.017,0,6.035-.008,9.052,0a3.426,3.426,0,1,1,0,6.833q-9.158.013-18.317,0a3.423,3.423,0,1,1,0-6.831c3.088-.013,6.177,0,9.265,0" transform="translate(-42.86 -128.759)" fill="#2742e4"/>
        <path id="Path_1803" data-name="Path 1803" d="M71.94,234.906c-2.772,0-5.544.009-8.316,0a3.428,3.428,0,1,1,.029-6.833q8.316-.011,16.631,0a3.458,3.458,0,0,1,3.746,3.378c.023,2.016-1.534,3.45-3.775,3.456-2.772.008-5.544,0-8.316,0" transform="translate(-42.861 -163.093)" fill="#2742e4"/>
      </g>
    </g>
  </g>
</svg>
