<svg xmlns="http://www.w3.org/2000/svg" xmlns:xlink="http://www.w3.org/1999/xlink" width="40.181" height="40.186" viewBox="0 0 40.181 40.186">
  <defs>
    <linearGradient id="linear-gradient" x1="0.5" x2="0.5" y2="1" gradientUnits="objectBoundingBox">
      <stop offset="0" stop-color="#4159f0"/>
      <stop offset="1" stop-color="#0827d5"/>
    </linearGradient>
    <clipPath id="clip-path">
      <rect id="Rectangle_2129" data-name="Rectangle 2129" width="40.181" height="40.186" fill="url(#linear-gradient)"/>
    </clipPath>
  </defs>
  <g id="Group_1586" data-name="Group 1586" transform="translate(5.933 -2)">
    <g id="Group_1585" data-name="Group 1585" transform="translate(-5.933 2)" clip-path="url(#clip-path)">
      <path id="Path_1529" data-name="Path 1529" d="M40.181,36.808a10.024,10.024,0,0,1-.793,1.8,3.655,3.655,0,0,1-3.174,1.559c-2.3.005-4.6,0-6.9,0-2.694,0-5.388-.046-8.08.013A3.983,3.983,0,0,1,17.028,36c.052-4.118.014-8.237.014-12.356v-.518h-.526q-6.257,0-12.513,0a3.691,3.691,0,0,1-3.58-2.149,4.073,4.073,0,0,1-.4-1.692C-.008,14.147,0,9.008.008,3.87A3.83,3.83,0,0,1,3.08.076,1.933,1.933,0,0,0,3.295,0h16.56a8.86,8.86,0,0,1,1.061.371,3.752,3.752,0,0,1,2.229,3.579c.014,4.2,0,8.4,0,12.6v.491H36.173a3.692,3.692,0,0,1,3.235,1.6,9.957,9.957,0,0,1,.773,1.771ZM17.815,18.516a.662.662,0,0,0,.15-.1,3.512,3.512,0,0,1,1.887-1.2c.489-.118,1-.152,1.516-.226.006-.092.02-.195.02-.3q0-6.337,0-12.673a2.886,2.886,0,0,0-.086-.736,2.1,2.1,0,0,0-2.225-1.548q-7.455,0-14.909,0A2.15,2.15,0,0,0,1.743,4.147q0,7.435,0,14.87a2.1,2.1,0,0,0,2.338,2.36q6.258.016,12.516.027h.458a4.6,4.6,0,0,1,.774-2.9Zm1,10.08q0,3.746,0,7.493a3.212,3.212,0,0,0,.067.777,2.053,2.053,0,0,0,2.205,1.558q7.532.005,15.064,0a3.018,3.018,0,0,0,.775-.091,2.066,2.066,0,0,0,1.519-2.161q0-7.473,0-14.946a2.166,2.166,0,0,0-2.431-2.445c-4.943,0-9.886.015-14.828-.009A2.208,2.208,0,0,0,18.8,21.143c.047,2.484.013,4.969.013,7.453" transform="translate(0)" fill="url(#linear-gradient)"/>
      <path id="Path_1530" data-name="Path 1530" d="M256.834,0c.959.179,1.938.29,2.874.55a12.622,12.622,0,0,1,6.6,4.412,13.015,13.015,0,0,1,2.876,8.2c.009.826-.292,1.157-1.109,1.161-1.112.005-2.223,0-3.335,0a.9.9,0,0,1-.923-.532.72.72,0,0,1,.164-.9,1.615,1.615,0,0,1,.848-.3c.743-.041,1.49-.013,2.236-.015.127,0,.253-.012.4-.019a10.89,10.89,0,0,0-1.611-5.29A11.209,11.209,0,0,0,258.471,2a17.386,17.386,0,0,0-2.138-.252c-.623-.059-.925-.234-1.04-.655s.063-.759.6-1.1Z" transform="translate(-229.053)" fill="url(#linear-gradient)"/>
      <path id="Path_1531" data-name="Path 1531" d="M2.393,253.839a10.869,10.869,0,0,0,1.147,4.437,11.3,11.3,0,0,0,6.72,5.813,12.237,12.237,0,0,0,3.389.56.884.884,0,0,1,.919.646.862.862,0,0,1-.905,1.085,12.891,12.891,0,0,1-3.963-.662,13.026,13.026,0,0,1-7.349-6.071A12.858,12.858,0,0,1,.679,253a.845.845,0,0,1,.912-.909q1.784-.021,3.568,0a.866.866,0,0,1,.938.848.885.885,0,0,1-.951.881c-.823.015-1.647,0-2.47.005-.077,0-.153.006-.283.012" transform="translate(-0.608 -226.204)" fill="url(#linear-gradient)"/>
      <path id="Path_1532" data-name="Path 1532" d="M229.153,227.071c.047-.163.081-.316.135-.462q2.024-5.514,4.052-11.026a.922.922,0,0,1,1.807-.014q2.084,5.533,4.169,11.067a.948.948,0,0,1-.138,1.091.733.733,0,0,1-.894.195,1.347,1.347,0,0,1-.556-.6c-.327-.768-.6-1.557-.885-2.344a.4.4,0,0,0-.45-.318q-2.079.019-4.158,0a.421.421,0,0,0-.482.328c-.273.789-.573,1.569-.871,2.35a.873.873,0,0,1-.847.641.81.81,0,0,1-.8-.529,2.246,2.246,0,0,1-.086-.373m3.33-4.16h3.459l-1.73-4.756-1.73,4.756" transform="translate(-205.628 -192.78)" fill="url(#linear-gradient)"/>
      <path id="Path_1533" data-name="Path 1533" d="M62.966,56.116a1.286,1.286,0,0,1-1,.345,9.537,9.537,0,0,1-4.884-1.5c-.121-.077-.243-.152-.375-.234a9.466,9.466,0,0,1-3.928,1.6,12.347,12.347,0,0,1-1.482.128.867.867,0,1,1-.083-1.725,8.532,8.532,0,0,0,2.972-.633c.369-.161.723-.356,1.094-.541-.4-.537-.807-1.027-1.155-1.555a9.029,9.029,0,0,1-1.437-3.94c-.036-.3-.141-.374-.415-.357-.313.02-.628.011-.941,0-.656-.016-1.034-.34-1.033-.875s.383-.871,1.034-.875c1.347-.009,2.694,0,4.042,0h.463c0-.945,0-1.844,0-2.743a3.574,3.574,0,0,1,.04-.585.815.815,0,0,1,.81-.708.793.793,0,0,1,.85.7,10.916,10.916,0,0,1,.048,1.251c.007.677,0,1.355,0,2.084h4.26c.091,0,.183,0,.275,0a.916.916,0,0,1,.978.863.9.9,0,0,1-.99.886c-.43.015-.861,0-1.333,0a9.743,9.743,0,0,1-2.672,5.8,6.474,6.474,0,0,0,2.185.954,12.574,12.574,0,0,0,1.741.253c.928.08,1.254.563.917,1.421l.015-.015m-8.525-8.382a7.861,7.861,0,0,0,2.275,4.738,7.8,7.8,0,0,0,2.264-4.738Z" transform="translate(-45.137 -37.615)" fill="url(#linear-gradient)"/>
    </g>
  </g>
</svg>
