<svg xmlns="http://www.w3.org/2000/svg" xmlns:xlink="http://www.w3.org/1999/xlink" width="43.257" height="43.326" viewBox="0 0 43.257 43.326">
  <defs>
    <linearGradient id="linear-gradient" x1="0.5" x2="0.5" y2="1" gradientUnits="objectBoundingBox">
      <stop offset="0" stop-color="#4159f0"/>
      <stop offset="1" stop-color="#0827d5"/>
    </linearGradient>
    <clipPath id="clip-path">
      <rect id="Rectangle_2131" data-name="Rectangle 2131" width="43.257" height="43.326" fill="url(#linear-gradient)"/>
    </clipPath>
  </defs>
  <g id="Group_1588" data-name="Group 1588" transform="translate(9.009 -0.597)">
    <g id="Group_1588-2" data-name="Group 1588" transform="translate(-9.009 0.597)">
      <g id="Group_1588-3" data-name="Group 1588" clip-path="url(#clip-path)">
        <path id="Path_1536" data-name="Path 1536" d="M14.2,165.24c-.709-.692-1.4-1.311-2.018-1.992a1.256,1.256,0,0,0-1.018-.469c-1.675.01-3.351.006-5.027,0a4.255,4.255,0,0,1-4.442-4.431q0-6.294,0-12.588a4.255,4.255,0,0,1,4.435-4.438q3.992,0,7.983,0a2.9,2.9,0,0,0,.421-.015.834.834,0,0,0,0-1.66,2.6,2.6,0,0,0-.379-.014q-4.034,0-8.068,0A5.912,5.912,0,0,0,0,145.721Q0,152.057,0,158.393a5.914,5.914,0,0,0,6.086,6.079c1.507,0,3.013-.009,4.52.012a.991.991,0,0,1,.613.257c.853.819,1.681,1.664,2.518,2.5.239.238.474.482.726.707a.8.8,0,0,0,.94.145.825.825,0,0,0,.476-.785c0-.352,0-.7,0-1.056,0-.585,0-1.171,0-1.779h.52q3.781,0,7.561,0a5.916,5.916,0,0,0,6.112-6.1q.005-2.682,0-5.365a1.846,1.846,0,0,0-.062-.541.819.819,0,0,0-1.558-.012,1.812,1.812,0,0,0-.065.54c0,1.774,0,3.548,0,5.322a4.257,4.257,0,0,1-4.455,4.461q-4.33,0-8.659,0c-.768,0-1.072.309-1.077,1.079,0,.444,0,.887,0,1.378m.126-12.426q4.329,0,8.658,0c.685,0,1.092-.319,1.092-.845s-.407-.841-1.093-.844H5.748a2.9,2.9,0,0,0-.421.015.833.833,0,0,0,0,1.659,2.913,2.913,0,0,0,.421.014h8.574m-1.661,3.041H5.739c-.757,0-1.174.306-1.167.854s.418.835,1.185.836H19.562a2.511,2.511,0,0,0,.462-.021.8.8,0,0,0,.707-.728c.071-.559-.335-.938-1.019-.939q-3.525,0-7.05,0m-1.086-9.462q-2.956,0-5.913,0c-.685,0-1.092.319-1.092.845s.408.84,1.093.844H17.406a2.908,2.908,0,0,0,.421-.015.833.833,0,0,0,0-1.659,2.928,2.928,0,0,0-.421-.014H11.576m12.5,10.311a.838.838,0,1,0-.842.833.873.873,0,0,0,.842-.833" transform="translate(0 -124.859)" fill="url(#linear-gradient)"/>
        <path id="Path_1537" data-name="Path 1537" d="M172.4.151a12.623,12.623,0,0,1,2.467.53,12.087,12.087,0,0,1,8.19,8.895c.159.623.228,1.269.339,1.9v1.859c-.124.675-.209,1.36-.378,2.024a11.963,11.963,0,0,1-3.776,6.162,1.09,1.09,0,0,0-.418.932c.027,1.379.005,2.759.013,4.139a.9.9,0,0,1-.529.964.92.92,0,0,1-1.059-.311c-.914-.918-1.837-1.827-2.745-2.75a.57.57,0,0,0-.619-.192,20.027,20.027,0,0,1-5.419.295,11.679,11.679,0,0,1-6.15-1.957,11.828,11.828,0,0,1-5.435-8.375,11.9,11.9,0,0,1,4.112-11.212,11.472,11.472,0,0,1,1.837-1.338A13.708,13.708,0,0,1,169.82,0,16.742,16.742,0,0,1,172.4.151m4.745,24.615c0-.874.059-1.634-.015-2.381a2.25,2.25,0,0,1,.963-2.118,9.9,9.9,0,0,0,3.521-6.611,10.258,10.258,0,0,0-2.237-7.9,10.2,10.2,0,0,0-6.541-3.83,17.853,17.853,0,0,0-5.133-.05,10.637,10.637,0,0,0-3.066.855,10.107,10.107,0,0,0-6.095,8.041,10.184,10.184,0,0,0,3.887,9.871,9.887,9.887,0,0,0,6.053,2.265,16.72,16.72,0,0,0,5.406-.352,1.292,1.292,0,0,1,1.471.4c.544.6,1.135,1.153,1.784,1.806" transform="translate(-140.137 0.001)" fill="url(#linear-gradient)"/>
        <path id="Path_1538" data-name="Path 1538" d="M14.2,165.24c0-.49,0-.934,0-1.378,0-.77.309-1.078,1.077-1.079q4.33,0,8.659,0a4.257,4.257,0,0,0,4.455-4.461c0-1.774,0-3.548,0-5.322a1.812,1.812,0,0,1,.065-.54.819.819,0,0,1,1.558.012,1.846,1.846,0,0,1,.062.541q.006,2.682,0,5.364a5.916,5.916,0,0,1-6.112,6.1q-3.781.005-7.561,0h-.52c0,.608,0,1.193,0,1.779,0,.352,0,.7,0,1.056a.825.825,0,0,1-.476.785.8.8,0,0,1-.94-.145c-.252-.224-.487-.468-.726-.707-.838-.835-1.665-1.68-2.518-2.5a.992.992,0,0,0-.613-.257c-1.506-.022-3.013-.009-4.52-.012A5.914,5.914,0,0,1,0,158.393Q0,152.057,0,145.721a5.912,5.912,0,0,1,6.079-6.085q4.034-.008,8.068,0a2.6,2.6,0,0,1,.379.014.834.834,0,0,1,0,1.66,2.9,2.9,0,0,1-.421.015q-3.992,0-7.983,0a4.255,4.255,0,0,0-4.435,4.438q0,6.294,0,12.588a4.255,4.255,0,0,0,4.442,4.431c1.676,0,3.351.006,5.027,0a1.256,1.256,0,0,1,1.018.469c.62.681,1.308,1.3,2.018,1.992" transform="translate(0 -124.859)" fill="url(#linear-gradient)"/>
        <path id="Path_1539" data-name="Path 1539" d="M52.958,249.924H44.384a2.912,2.912,0,0,1-.421-.014.833.833,0,0,1,0-1.659,2.9,2.9,0,0,1,.421-.015H61.616c.685,0,1.092.318,1.093.844s-.407.844-1.092.845q-4.329,0-8.658,0" transform="translate(-38.635 -221.969)" fill="url(#linear-gradient)"/>
        <path id="Path_1540" data-name="Path 1540" d="M51.3,292.944q3.525,0,7.05,0c.685,0,1.09.38,1.019.939a.8.8,0,0,1-.707.728,2.512,2.512,0,0,1-.463.021H44.391c-.767,0-1.178-.29-1.185-.835s.409-.854,1.167-.854H51.3" transform="translate(-38.635 -261.948)" fill="url(#linear-gradient)"/>
        <path id="Path_1541" data-name="Path 1541" d="M50.211,203.521h5.828a2.941,2.941,0,0,1,.421.014.833.833,0,0,1,0,1.659,2.909,2.909,0,0,1-.421.015H44.3c-.685,0-1.092-.318-1.093-.844s.407-.844,1.092-.845q2.956,0,5.913,0" transform="translate(-38.634 -181.987)" fill="url(#linear-gradient)"/>
        <path id="Path_1542" data-name="Path 1542" d="M213.355,293.858a.838.838,0,1,1-.833-.842.873.873,0,0,1,.833.842" transform="translate(-189.282 -262.012)" fill="url(#linear-gradient)"/>
        <path id="Path_1543" data-name="Path 1543" d="M253.95,64.7c0-.324-.009-.648,0-.971a1.547,1.547,0,0,1,1.071-1.466c.132-.048.268-.086.4-.134a1.876,1.876,0,0,0,1.215-2.117,1.9,1.9,0,0,0-1.906-1.531,1.865,1.865,0,0,0-1.8,1.639c-.017.125-.037.251-.062.374a.8.8,0,0,1-.906.689.821.821,0,0,1-.739-.83,3.615,3.615,0,0,1,2.459-3.389,3.57,3.57,0,0,1,4.666,3.588,3.5,3.5,0,0,1-2.306,3.136.5.5,0,0,0-.41.6c.027.463.017.929,0,1.393a.882.882,0,0,1-.851.964.871.871,0,0,1-.834-.969c-.006-.324,0-.647,0-.971Z" transform="translate(-224.639 -50.792)" fill="url(#linear-gradient)"/>
        <path id="Path_1544" data-name="Path 1544" d="M278.725,166.394a.852.852,0,0,1-.84.829.828.828,0,0,1-.833-.828.84.84,0,0,1,.831-.835.863.863,0,0,1,.842.833" transform="translate(-247.738 -148.043)" fill="url(#linear-gradient)"/>
      </g>
    </g>
  </g>
</svg>
