<svg id="Group_1589" data-name="Group 1589" xmlns="http://www.w3.org/2000/svg" xmlns:xlink="http://www.w3.org/1999/xlink" width="35.8" height="45.009" viewBox="0 0 35.8 45.009">
  <defs>
    <clipPath id="clip-path">
      <rect id="Rectangle_2132" data-name="Rectangle 2132" width="35.8" height="45.009" fill="#fff"/>
    </clipPath>
  </defs>
  <g id="Group_1589-2" data-name="Group 1589" clip-path="url(#clip-path)">
    <path id="Path_1545" data-name="Path 1545" d="M23,0a4.317,4.317,0,0,1,2.629,2.114c.3.469.607.932.906,1.4a2.77,2.77,0,0,0,1.7,1.23c.637.167,1.275.329,1.9.521C32.32,5.928,33.15,7.147,33,9.422c-.041.614-.058,1.229-.087,1.843a2.643,2.643,0,0,0,.626,1.869c.465.565.937,1.127,1.37,1.716a3.427,3.427,0,0,1,.017,4.594c-.411.569-.863,1.11-1.317,1.646a2.937,2.937,0,0,0-.7,2.11c.038.964.082,1.933.029,2.894a2.8,2.8,0,0,1-1.791,2.557,22.075,22.075,0,0,1-2.5.8,3.06,3.06,0,0,0-1.978,1.19,1.466,1.466,0,0,0-.232.717c-.014,4.1-.01,8.2-.01,12.306,0,.117,0,.234,0,.352a.892.892,0,0,1-1.344.876c-2.08-.9-4.168-1.789-6.221-2.749a2.028,2.028,0,0,0-1.916.005c-2.013.942-4.064,1.8-6.1,2.693-.9.394-1.463.025-1.463-.958,0-4.058-.024-8.117.016-12.175a1.91,1.91,0,0,0-1.29-1.919A16.319,16.319,0,0,0,6.18,29.2c-.238-.071-.482-.125-.718-.2A3.379,3.379,0,0,1,2.8,25.308c0-.7.047-1.405.092-2.107A2.9,2.9,0,0,0,2.2,21.089C1.667,20.446,1.134,19.8.663,19.114a3.206,3.206,0,0,1-.007-3.9c.47-.688,1-1.336,1.534-1.977a2.994,2.994,0,0,0,.7-2.153c-.043-.92-.086-1.845-.041-2.763a2.961,2.961,0,0,1,2.07-2.784c.847-.317,1.728-.545,2.6-.782A2.865,2.865,0,0,0,9.29,3.479c.286-.46.591-.908.882-1.364A4.314,4.314,0,0,1,12.8,0h1.055c.97.342,1.945.671,2.909,1.03a3.185,3.185,0,0,0,2.263.008c1-.357,2-.693,3.007-1.038Zm8.205,10.348h.01c0-.614.013-1.228,0-1.842a1.4,1.4,0,0,0-1.045-1.369A17.155,17.155,0,0,0,28.317,6.6,5.162,5.162,0,0,1,24.741,4,15.169,15.169,0,0,0,23.63,2.37,1.37,1.37,0,0,0,22,1.84c-.789.266-1.573.55-2.353.842a4.769,4.769,0,0,1-3.475,0c-.615-.233-1.227-.478-1.847-.7a1.719,1.719,0,0,0-2.471.791c-.387.551-.737,1.127-1.1,1.692A4.469,4.469,0,0,1,8.041,6.434c-.736.192-1.474.38-2.2.62A1.558,1.558,0,0,0,4.562,8.8a18.515,18.515,0,0,0,.083,1.975,4.905,4.905,0,0,1-1.3,3.835c-.435.493-.835,1.02-1.221,1.553a1.578,1.578,0,0,0,.005,2,14.978,14.978,0,0,0,1.083,1.382A5.169,5.169,0,0,1,4.643,23.73a18.037,18.037,0,0,0-.028,2.234,1.208,1.208,0,0,0,.8,1.116,5.879,5.879,0,0,0,1.285.431,6.035,6.035,0,0,1,4.728,3.381A6.673,6.673,0,0,0,12.214,32a1.385,1.385,0,0,0,1.615.479,19.637,19.637,0,0,0,1.9-.681,5.229,5.229,0,0,1,4.383.014c.548.242,1.119.431,1.685.628a1.565,1.565,0,0,0,1.963-.632c.36-.516.723-1.033,1.042-1.574a5.018,5.018,0,0,1,3.408-2.478,19.044,19.044,0,0,0,1.977-.579,1.355,1.355,0,0,0,1.023-1.333c.009-.8-.007-1.61-.055-2.412a4.683,4.683,0,0,1,1.1-3.463c.437-.513.866-1.034,1.263-1.577a1.728,1.728,0,0,0-.009-2.472c-.336-.461-.712-.893-1.073-1.335A4.6,4.6,0,0,1,31.22,12.19a17.963,17.963,0,0,1-.012-1.842m-20.037,23.1v9.319c.177-.072.311-.122.442-.18,1.675-.734,3.345-1.478,5.028-2.193a.554.554,0,0,0,.39-.62c-.018-1.274-.01-2.549-.006-3.824a.886.886,0,0,1,.663-.961.872.872,0,0,1,1.092.923q.014,1.978,0,3.956a.447.447,0,0,0,.314.49c1.733.746,3.459,1.51,5.187,2.266.113.049.234.081.363.125v-9.2c-.04-.008-.056-.016-.066-.012a.569.569,0,0,0-.112.067,2.992,2.992,0,0,1-2.889.588c-.87-.248-1.714-.588-2.563-.9a2.98,2.98,0,0,0-2.226.009c-.652.259-1.312.5-1.974.734a3.326,3.326,0,0,1-3.64-.577" transform="translate(0)" fill="#fff"/>
    <path id="Path_1546" data-name="Path 1546" d="M60.141,66.312A12.267,12.267,0,1,1,71.555,49.505a1.809,1.809,0,0,1,.137.548.819.819,0,0,1-.623.851.827.827,0,0,1-.959-.356,2.132,2.132,0,0,1-.2-.436,10.519,10.519,0,1,0-.081,8.042c.074-.175.135-.357.222-.525a.868.868,0,0,1,1.634.543,1.884,1.884,0,0,1-.115.376,12.3,12.3,0,0,1-11.427,7.765" transform="translate(-42.253 -36.878)" fill="#fff"/>
    <path id="Path_1547" data-name="Path 1547" d="M175.062,118.99c0,.541,0,1.02,0,1.5-.008.633-.358,1.036-.888,1.033s-.867-.389-.868-1.041q0-2.745,0-5.49a.883.883,0,0,1,1-1,14.064,14.064,0,0,1,1.927.06,2.467,2.467,0,0,1,2.093,2.621,2.507,2.507,0,0,1-2.342,2.319c-.288.018-.578,0-.919,0m.029-3.228v1.465c.508,0,1.057.173,1.351-.37a.9.9,0,0,0-.026-.76c-.3-.493-.829-.351-1.324-.335" transform="translate(-152.948 -100.596)" fill="#fff"/>
    <path id="Path_1548" data-name="Path 1548" d="M87.3,118.184c.379-1.135.729-2.188,1.082-3.239a2.761,2.761,0,0,1,.192-.489.865.865,0,0,1,1.067-.372.846.846,0,0,1,.534.953,8.872,8.872,0,0,1-.283.921q-.779,2.353-1.563,4.7c-.2.6-.52.876-1.008.882s-.827-.27-1.031-.858q-.937-2.694-1.866-5.391a.893.893,0,0,1,.335-1.154.883.883,0,0,1,1.319.565c.339.951.661,1.907.993,2.861.062.177.13.352.229.616" transform="translate(-74.443 -100.618)" fill="#fff"/>
    <path id="Path_1549" data-name="Path 1549" d="M146.125,117.782c0,.923.005,1.846,0,2.77,0,.623-.336,1-.86,1.006a.892.892,0,0,1-.892-.985q-.014-2.791,0-5.583a.881.881,0,1,1,1.751.024c.008.923,0,1.846,0,2.77" transform="translate(-127.408 -100.631)" fill="#fff"/>
    <path id="Path_1550" data-name="Path 1550" d="M242.855,138.619a.877.877,0,0,1,.887.847.868.868,0,1,1-1.734.043.879.879,0,0,1,.847-.89" transform="translate(-213.585 -122.339)" fill="#fff"/>
  </g>
</svg>
